<mxfile host="Electron" modified="2023-11-11T01:18:31.534Z" agent="Mozilla/5.0 (Windows NT 10.0; Win64; x64) AppleWebKit/537.36 (KHTML, like Gecko) draw.io/22.0.3 Chrome/114.0.5735.289 Electron/25.8.4 Safari/537.36" etag="m2x8qUcSEGJ4hmGcad-Q" version="22.0.3" type="device" pages="2">
  <diagram id="R2lEEEUBdFMjLlhIrx00" name="Page-1">
    <mxGraphModel dx="5407" dy="1150" grid="1" gridSize="10" guides="1" tooltips="1" connect="1" arrows="1" fold="1" page="1" pageScale="1" pageWidth="3300" pageHeight="4681" background="none" math="0" shadow="0" extFonts="Permanent Marker^https://fonts.googleapis.com/css?family=Permanent+Marker">
      <root>
        <mxCell id="0" />
        <mxCell id="1" parent="0" />
        <mxCell id="c1wcHCh8fKcfgMownZdg-45" value="" style="shape=process;whiteSpace=wrap;html=1;backgroundOutline=1;rotation=90;container=1;noLabel=1;horizontal=0;verticalAlign=top;fillColor=#182E3E;strokeColor=#FFFFFF;rounded=1;labelBackgroundColor=none;fontColor=#FFFFFF;" vertex="1" parent="1">
          <mxGeometry x="850" y="622.5" width="1195" height="535" as="geometry" />
        </mxCell>
        <mxCell id="c1wcHCh8fKcfgMownZdg-46" value="Batch Tables&lt;br&gt;&lt;br&gt;Generated and copied from the employees earn codes, rates, deductions and deduction amounts. Once Payroll is posted the batch tables transfer to payroll history and the batches are cleared" style="text;html=1;strokeColor=none;fillColor=none;align=center;verticalAlign=middle;whiteSpace=wrap;rounded=1;labelBackgroundColor=none;fontColor=#FFFFFF;arcSize=25;" vertex="1" parent="c1wcHCh8fKcfgMownZdg-45">
          <mxGeometry x="423.7616059972389" y="-299.99821100109233" width="347.4822695035461" height="55.05717255717255" as="geometry" />
        </mxCell>
        <mxCell id="V9Exqj90Ii3oVxS3J_qq-74" value="Pay_Tax_Batch" style="shape=table;startSize=30;container=1;collapsible=1;childLayout=tableLayout;fixedRows=1;rowLines=0;fontStyle=1;align=center;resizeLast=1;html=1;labelBackgroundColor=none;fillColor=#182E3E;strokeColor=#FFFFFF;fontColor=#FFFFFF;rounded=1;" parent="c1wcHCh8fKcfgMownZdg-45" vertex="1">
          <mxGeometry x="480.00140625" y="530.003076923077" width="256.73828125" height="168.73076923076923" as="geometry" />
        </mxCell>
        <mxCell id="V9Exqj90Ii3oVxS3J_qq-75" value="" style="shape=tableRow;horizontal=0;startSize=0;swimlaneHead=0;swimlaneBody=0;fillColor=none;collapsible=0;dropTarget=0;points=[[0,0.5],[1,0.5]];portConstraint=eastwest;top=0;left=0;right=0;bottom=1;labelBackgroundColor=none;strokeColor=#FFFFFF;fontColor=#FFFFFF;rounded=1;" parent="V9Exqj90Ii3oVxS3J_qq-74" vertex="1">
          <mxGeometry y="30" width="256.73828125" height="30" as="geometry" />
        </mxCell>
        <mxCell id="V9Exqj90Ii3oVxS3J_qq-76" value="PK" style="shape=partialRectangle;connectable=0;fillColor=none;top=0;left=0;bottom=0;right=0;fontStyle=1;overflow=hidden;whiteSpace=wrap;html=1;labelBackgroundColor=none;strokeColor=#FFFFFF;fontColor=#FFFFFF;rounded=1;" parent="V9Exqj90Ii3oVxS3J_qq-75" vertex="1">
          <mxGeometry width="30" height="30" as="geometry">
            <mxRectangle width="30" height="30" as="alternateBounds" />
          </mxGeometry>
        </mxCell>
        <mxCell id="V9Exqj90Ii3oVxS3J_qq-77" value="tax_id&amp;nbsp;int NOT NULL&amp;nbsp;" style="shape=partialRectangle;connectable=0;fillColor=none;top=0;left=0;bottom=0;right=0;align=left;spacingLeft=6;fontStyle=5;overflow=hidden;whiteSpace=wrap;html=1;labelBackgroundColor=none;strokeColor=#FFFFFF;fontColor=#FFFFFF;rounded=1;" parent="V9Exqj90Ii3oVxS3J_qq-75" vertex="1">
          <mxGeometry x="30" width="226.73828125" height="30" as="geometry">
            <mxRectangle width="226.73828125" height="30" as="alternateBounds" />
          </mxGeometry>
        </mxCell>
        <mxCell id="V9Exqj90Ii3oVxS3J_qq-78" value="" style="shape=tableRow;horizontal=0;startSize=0;swimlaneHead=0;swimlaneBody=0;fillColor=none;collapsible=0;dropTarget=0;points=[[0,0.5],[1,0.5]];portConstraint=eastwest;top=0;left=0;right=0;bottom=0;labelBackgroundColor=none;strokeColor=#FFFFFF;fontColor=#FFFFFF;rounded=1;" parent="V9Exqj90Ii3oVxS3J_qq-74" vertex="1">
          <mxGeometry y="60" width="256.73828125" height="30" as="geometry" />
        </mxCell>
        <mxCell id="V9Exqj90Ii3oVxS3J_qq-79" value="" style="shape=partialRectangle;connectable=0;fillColor=none;top=0;left=0;bottom=0;right=0;editable=1;overflow=hidden;whiteSpace=wrap;html=1;labelBackgroundColor=none;strokeColor=#FFFFFF;fontColor=#FFFFFF;rounded=1;" parent="V9Exqj90Ii3oVxS3J_qq-78" vertex="1">
          <mxGeometry width="30" height="30" as="geometry">
            <mxRectangle width="30" height="30" as="alternateBounds" />
          </mxGeometry>
        </mxCell>
        <mxCell id="V9Exqj90Ii3oVxS3J_qq-80" value="tax_name char 50 NOT NULL" style="shape=partialRectangle;connectable=0;fillColor=none;top=0;left=0;bottom=0;right=0;align=left;spacingLeft=6;overflow=hidden;whiteSpace=wrap;html=1;labelBackgroundColor=none;strokeColor=#FFFFFF;fontColor=#FFFFFF;rounded=1;" parent="V9Exqj90Ii3oVxS3J_qq-78" vertex="1">
          <mxGeometry x="30" width="226.73828125" height="30" as="geometry">
            <mxRectangle width="226.73828125" height="30" as="alternateBounds" />
          </mxGeometry>
        </mxCell>
        <mxCell id="V9Exqj90Ii3oVxS3J_qq-81" value="" style="shape=tableRow;horizontal=0;startSize=0;swimlaneHead=0;swimlaneBody=0;fillColor=none;collapsible=0;dropTarget=0;points=[[0,0.5],[1,0.5]];portConstraint=eastwest;top=0;left=0;right=0;bottom=0;labelBackgroundColor=none;strokeColor=#FFFFFF;fontColor=#FFFFFF;rounded=1;" parent="V9Exqj90Ii3oVxS3J_qq-74" vertex="1">
          <mxGeometry y="90" width="256.73828125" height="30" as="geometry" />
        </mxCell>
        <mxCell id="V9Exqj90Ii3oVxS3J_qq-82" value="" style="shape=partialRectangle;connectable=0;fillColor=none;top=0;left=0;bottom=0;right=0;editable=1;overflow=hidden;whiteSpace=wrap;html=1;labelBackgroundColor=none;strokeColor=#FFFFFF;fontColor=#FFFFFF;rounded=1;" parent="V9Exqj90Ii3oVxS3J_qq-81" vertex="1">
          <mxGeometry width="30" height="30" as="geometry">
            <mxRectangle width="30" height="30" as="alternateBounds" />
          </mxGeometry>
        </mxCell>
        <mxCell id="V9Exqj90Ii3oVxS3J_qq-83" value="tax_code int NOT NULL" style="shape=partialRectangle;connectable=0;fillColor=none;top=0;left=0;bottom=0;right=0;align=left;spacingLeft=6;overflow=hidden;whiteSpace=wrap;html=1;labelBackgroundColor=none;strokeColor=#FFFFFF;fontColor=#FFFFFF;rounded=1;" parent="V9Exqj90Ii3oVxS3J_qq-81" vertex="1">
          <mxGeometry x="30" width="226.73828125" height="30" as="geometry">
            <mxRectangle width="226.73828125" height="30" as="alternateBounds" />
          </mxGeometry>
        </mxCell>
        <mxCell id="V9Exqj90Ii3oVxS3J_qq-84" value="" style="shape=tableRow;horizontal=0;startSize=0;swimlaneHead=0;swimlaneBody=0;fillColor=none;collapsible=0;dropTarget=0;points=[[0,0.5],[1,0.5]];portConstraint=eastwest;top=0;left=0;right=0;bottom=0;labelBackgroundColor=none;strokeColor=#FFFFFF;fontColor=#FFFFFF;rounded=1;" parent="V9Exqj90Ii3oVxS3J_qq-74" vertex="1">
          <mxGeometry y="120" width="256.73828125" height="30" as="geometry" />
        </mxCell>
        <mxCell id="V9Exqj90Ii3oVxS3J_qq-85" value="" style="shape=partialRectangle;connectable=0;fillColor=none;top=0;left=0;bottom=0;right=0;editable=1;overflow=hidden;whiteSpace=wrap;html=1;labelBackgroundColor=none;strokeColor=#FFFFFF;fontColor=#FFFFFF;rounded=1;" parent="V9Exqj90Ii3oVxS3J_qq-84" vertex="1">
          <mxGeometry width="30" height="30" as="geometry">
            <mxRectangle width="30" height="30" as="alternateBounds" />
          </mxGeometry>
        </mxCell>
        <mxCell id="V9Exqj90Ii3oVxS3J_qq-86" value="tax_rate int NOT NULL&amp;nbsp;" style="shape=partialRectangle;connectable=0;fillColor=none;top=0;left=0;bottom=0;right=0;align=left;spacingLeft=6;overflow=hidden;whiteSpace=wrap;html=1;labelBackgroundColor=none;strokeColor=#FFFFFF;fontColor=#FFFFFF;rounded=1;" parent="V9Exqj90Ii3oVxS3J_qq-84" vertex="1">
          <mxGeometry x="30" width="226.73828125" height="30" as="geometry">
            <mxRectangle width="226.73828125" height="30" as="alternateBounds" />
          </mxGeometry>
        </mxCell>
        <mxCell id="c1wcHCh8fKcfgMownZdg-1" value="Pay_Deduction_Batch" style="shape=table;startSize=30;container=1;collapsible=1;childLayout=tableLayout;fixedRows=1;rowLines=0;fontStyle=1;align=center;resizeLast=1;html=1;labelBackgroundColor=none;fillColor=#182E3E;strokeColor=#FFFFFF;fontColor=#FFFFFF;rounded=1;" vertex="1" parent="c1wcHCh8fKcfgMownZdg-45">
          <mxGeometry x="480.9158203125" y="339.9984615384615" width="257.6438671875" height="151.54000000000005" as="geometry" />
        </mxCell>
        <mxCell id="c1wcHCh8fKcfgMownZdg-2" value="" style="shape=tableRow;horizontal=0;startSize=0;swimlaneHead=0;swimlaneBody=0;fillColor=none;collapsible=0;dropTarget=0;points=[[0,0.5],[1,0.5]];portConstraint=eastwest;top=0;left=0;right=0;bottom=1;labelBackgroundColor=none;strokeColor=#FFFFFF;fontColor=#FFFFFF;rounded=1;" vertex="1" parent="c1wcHCh8fKcfgMownZdg-1">
          <mxGeometry y="30" width="257.6438671875" height="30" as="geometry" />
        </mxCell>
        <mxCell id="c1wcHCh8fKcfgMownZdg-3" value="PK" style="shape=partialRectangle;connectable=0;fillColor=none;top=0;left=0;bottom=0;right=0;fontStyle=1;overflow=hidden;whiteSpace=wrap;html=1;labelBackgroundColor=none;strokeColor=#FFFFFF;fontColor=#FFFFFF;rounded=1;" vertex="1" parent="c1wcHCh8fKcfgMownZdg-2">
          <mxGeometry width="30" height="30" as="geometry">
            <mxRectangle width="30" height="30" as="alternateBounds" />
          </mxGeometry>
        </mxCell>
        <mxCell id="c1wcHCh8fKcfgMownZdg-4" value="pay_Per_Control" style="shape=partialRectangle;connectable=0;fillColor=none;top=0;left=0;bottom=0;right=0;align=left;spacingLeft=6;fontStyle=5;overflow=hidden;whiteSpace=wrap;html=1;labelBackgroundColor=none;strokeColor=#FFFFFF;fontColor=#FFFFFF;rounded=1;" vertex="1" parent="c1wcHCh8fKcfgMownZdg-2">
          <mxGeometry x="30" width="227.6438671875" height="30" as="geometry">
            <mxRectangle width="227.6438671875" height="30" as="alternateBounds" />
          </mxGeometry>
        </mxCell>
        <mxCell id="c1wcHCh8fKcfgMownZdg-5" value="" style="shape=tableRow;horizontal=0;startSize=0;swimlaneHead=0;swimlaneBody=0;fillColor=none;collapsible=0;dropTarget=0;points=[[0,0.5],[1,0.5]];portConstraint=eastwest;top=0;left=0;right=0;bottom=0;labelBackgroundColor=none;strokeColor=#FFFFFF;fontColor=#FFFFFF;rounded=1;" vertex="1" parent="c1wcHCh8fKcfgMownZdg-1">
          <mxGeometry y="60" width="257.6438671875" height="30" as="geometry" />
        </mxCell>
        <mxCell id="c1wcHCh8fKcfgMownZdg-6" value="FK" style="shape=partialRectangle;connectable=0;fillColor=none;top=0;left=0;bottom=0;right=0;editable=1;overflow=hidden;whiteSpace=wrap;html=1;labelBackgroundColor=none;strokeColor=#FFFFFF;fontColor=#FFFFFF;rounded=1;" vertex="1" parent="c1wcHCh8fKcfgMownZdg-5">
          <mxGeometry width="30" height="30" as="geometry">
            <mxRectangle width="30" height="30" as="alternateBounds" />
          </mxGeometry>
        </mxCell>
        <mxCell id="c1wcHCh8fKcfgMownZdg-7" value="emp_Ded_Code" style="shape=partialRectangle;connectable=0;fillColor=none;top=0;left=0;bottom=0;right=0;align=left;spacingLeft=6;overflow=hidden;whiteSpace=wrap;html=1;labelBackgroundColor=none;strokeColor=#FFFFFF;fontColor=#FFFFFF;rounded=1;" vertex="1" parent="c1wcHCh8fKcfgMownZdg-5">
          <mxGeometry x="30" width="227.6438671875" height="30" as="geometry">
            <mxRectangle width="227.6438671875" height="30" as="alternateBounds" />
          </mxGeometry>
        </mxCell>
        <mxCell id="c1wcHCh8fKcfgMownZdg-8" value="" style="shape=tableRow;horizontal=0;startSize=0;swimlaneHead=0;swimlaneBody=0;fillColor=none;collapsible=0;dropTarget=0;points=[[0,0.5],[1,0.5]];portConstraint=eastwest;top=0;left=0;right=0;bottom=0;labelBackgroundColor=none;strokeColor=#FFFFFF;fontColor=#FFFFFF;rounded=1;" vertex="1" parent="c1wcHCh8fKcfgMownZdg-1">
          <mxGeometry y="90" width="257.6438671875" height="28" as="geometry" />
        </mxCell>
        <mxCell id="c1wcHCh8fKcfgMownZdg-9" value="" style="shape=partialRectangle;connectable=0;fillColor=none;top=0;left=0;bottom=0;right=0;editable=1;overflow=hidden;whiteSpace=wrap;html=1;labelBackgroundColor=none;strokeColor=#FFFFFF;fontColor=#FFFFFF;rounded=1;" vertex="1" parent="c1wcHCh8fKcfgMownZdg-8">
          <mxGeometry width="30" height="28" as="geometry">
            <mxRectangle width="30" height="28" as="alternateBounds" />
          </mxGeometry>
        </mxCell>
        <mxCell id="c1wcHCh8fKcfgMownZdg-10" value="emp_Ded_Amt" style="shape=partialRectangle;connectable=0;fillColor=none;top=0;left=0;bottom=0;right=0;align=left;spacingLeft=6;overflow=hidden;whiteSpace=wrap;html=1;labelBackgroundColor=none;strokeColor=#FFFFFF;fontColor=#FFFFFF;rounded=1;" vertex="1" parent="c1wcHCh8fKcfgMownZdg-8">
          <mxGeometry x="30" width="227.6438671875" height="28" as="geometry">
            <mxRectangle width="227.6438671875" height="28" as="alternateBounds" />
          </mxGeometry>
        </mxCell>
        <mxCell id="c1wcHCh8fKcfgMownZdg-11" value="" style="shape=tableRow;horizontal=0;startSize=0;swimlaneHead=0;swimlaneBody=0;fillColor=none;collapsible=0;dropTarget=0;points=[[0,0.5],[1,0.5]];portConstraint=eastwest;top=0;left=0;right=0;bottom=0;labelBackgroundColor=none;strokeColor=#FFFFFF;fontColor=#FFFFFF;rounded=1;" vertex="1" parent="c1wcHCh8fKcfgMownZdg-1">
          <mxGeometry y="118" width="257.6438671875" height="30" as="geometry" />
        </mxCell>
        <mxCell id="c1wcHCh8fKcfgMownZdg-12" value="" style="shape=partialRectangle;connectable=0;fillColor=none;top=0;left=0;bottom=0;right=0;editable=1;overflow=hidden;whiteSpace=wrap;html=1;labelBackgroundColor=none;strokeColor=#FFFFFF;fontColor=#FFFFFF;rounded=1;" vertex="1" parent="c1wcHCh8fKcfgMownZdg-11">
          <mxGeometry width="30" height="30" as="geometry">
            <mxRectangle width="30" height="30" as="alternateBounds" />
          </mxGeometry>
        </mxCell>
        <mxCell id="c1wcHCh8fKcfgMownZdg-13" value="hourly_Rate" style="shape=partialRectangle;connectable=0;fillColor=none;top=0;left=0;bottom=0;right=0;align=left;spacingLeft=6;overflow=hidden;whiteSpace=wrap;html=1;labelBackgroundColor=none;strokeColor=#FFFFFF;fontColor=#FFFFFF;rounded=1;" vertex="1" parent="c1wcHCh8fKcfgMownZdg-11">
          <mxGeometry x="30" width="227.6438671875" height="30" as="geometry">
            <mxRectangle width="227.6438671875" height="30" as="alternateBounds" />
          </mxGeometry>
        </mxCell>
        <mxCell id="C-vyLk0tnHw3VtMMgP7b-13" value="Pay_Header" style="shape=table;startSize=30;container=1;collapsible=1;childLayout=tableLayout;fixedRows=1;rowLines=0;fontStyle=1;align=center;resizeLast=1;labelBackgroundColor=none;fillColor=#182E3E;strokeColor=#FFFFFF;fontColor=#FFFFFF;rounded=1;" parent="c1wcHCh8fKcfgMownZdg-45" vertex="1">
          <mxGeometry x="480.91140624999997" y="-190.0030769230769" width="256.73828125" height="260.00307692307683" as="geometry" />
        </mxCell>
        <mxCell id="C-vyLk0tnHw3VtMMgP7b-14" value="" style="shape=partialRectangle;collapsible=0;dropTarget=0;pointerEvents=0;fillColor=none;points=[[0,0.5],[1,0.5]];portConstraint=eastwest;top=0;left=0;right=0;bottom=1;labelBackgroundColor=none;strokeColor=#FFFFFF;fontColor=#FFFFFF;rounded=1;" parent="C-vyLk0tnHw3VtMMgP7b-13" vertex="1">
          <mxGeometry y="30" width="256.73828125" height="30" as="geometry" />
        </mxCell>
        <mxCell id="C-vyLk0tnHw3VtMMgP7b-15" value="PK" style="shape=partialRectangle;overflow=hidden;connectable=0;fillColor=none;top=0;left=0;bottom=0;right=0;fontStyle=1;labelBackgroundColor=none;strokeColor=#FFFFFF;fontColor=#FFFFFF;rounded=1;" parent="C-vyLk0tnHw3VtMMgP7b-14" vertex="1">
          <mxGeometry width="30" height="30" as="geometry">
            <mxRectangle width="30" height="30" as="alternateBounds" />
          </mxGeometry>
        </mxCell>
        <mxCell id="C-vyLk0tnHw3VtMMgP7b-16" value="GenNumber VARCHAR(15) NOT NULL" style="shape=partialRectangle;overflow=hidden;connectable=0;fillColor=none;top=0;left=0;bottom=0;right=0;align=left;spacingLeft=6;fontStyle=1;labelBackgroundColor=none;strokeColor=#FFFFFF;fontColor=#FFFFFF;rounded=1;" parent="C-vyLk0tnHw3VtMMgP7b-14" vertex="1">
          <mxGeometry x="30" width="226.73828125" height="30" as="geometry">
            <mxRectangle width="226.73828125" height="30" as="alternateBounds" />
          </mxGeometry>
        </mxCell>
        <mxCell id="C-vyLk0tnHw3VtMMgP7b-17" value="" style="shape=partialRectangle;collapsible=0;dropTarget=0;pointerEvents=0;fillColor=none;points=[[0,0.5],[1,0.5]];portConstraint=eastwest;top=0;left=0;right=0;bottom=0;labelBackgroundColor=none;strokeColor=#FFFFFF;fontColor=#FFFFFF;rounded=1;" parent="C-vyLk0tnHw3VtMMgP7b-13" vertex="1">
          <mxGeometry y="60" width="256.73828125" height="30" as="geometry" />
        </mxCell>
        <mxCell id="C-vyLk0tnHw3VtMMgP7b-18" value="FK1" style="shape=partialRectangle;overflow=hidden;connectable=0;fillColor=none;top=0;left=0;bottom=0;right=0;labelBackgroundColor=none;strokeColor=#FFFFFF;fontColor=#FFFFFF;rounded=1;" parent="C-vyLk0tnHw3VtMMgP7b-17" vertex="1">
          <mxGeometry width="30" height="30" as="geometry">
            <mxRectangle width="30" height="30" as="alternateBounds" />
          </mxGeometry>
        </mxCell>
        <mxCell id="C-vyLk0tnHw3VtMMgP7b-19" value="EEID            VARCHAR(15)" style="shape=partialRectangle;overflow=hidden;connectable=0;fillColor=none;top=0;left=0;bottom=0;right=0;align=left;spacingLeft=6;labelBackgroundColor=none;strokeColor=#FFFFFF;fontColor=#FFFFFF;rounded=1;" parent="C-vyLk0tnHw3VtMMgP7b-17" vertex="1">
          <mxGeometry x="30" width="226.73828125" height="30" as="geometry">
            <mxRectangle width="226.73828125" height="30" as="alternateBounds" />
          </mxGeometry>
        </mxCell>
        <mxCell id="ySKFGLkEAsGldyNubYaE-20" value="" style="shape=tableRow;horizontal=0;startSize=0;swimlaneHead=0;swimlaneBody=0;fillColor=none;collapsible=0;dropTarget=0;points=[[0,0.5],[1,0.5]];portConstraint=eastwest;top=0;left=0;right=0;bottom=0;labelBackgroundColor=none;strokeColor=#FFFFFF;fontColor=#FFFFFF;rounded=1;" vertex="1" parent="C-vyLk0tnHw3VtMMgP7b-13">
          <mxGeometry y="90" width="256.73828125" height="20" as="geometry" />
        </mxCell>
        <mxCell id="ySKFGLkEAsGldyNubYaE-21" value="FK2" style="shape=partialRectangle;connectable=0;fillColor=none;top=0;left=0;bottom=0;right=0;editable=1;overflow=hidden;labelBackgroundColor=none;strokeColor=#FFFFFF;fontColor=#FFFFFF;rounded=1;" vertex="1" parent="ySKFGLkEAsGldyNubYaE-20">
          <mxGeometry width="30" height="20" as="geometry">
            <mxRectangle width="30" height="20" as="alternateBounds" />
          </mxGeometry>
        </mxCell>
        <mxCell id="ySKFGLkEAsGldyNubYaE-22" value="pay_Per_Control" style="shape=partialRectangle;connectable=0;fillColor=none;top=0;left=0;bottom=0;right=0;align=left;spacingLeft=6;overflow=hidden;labelBackgroundColor=none;strokeColor=#FFFFFF;fontColor=#FFFFFF;rounded=1;" vertex="1" parent="ySKFGLkEAsGldyNubYaE-20">
          <mxGeometry x="30" width="226.73828125" height="20" as="geometry">
            <mxRectangle width="226.73828125" height="20" as="alternateBounds" />
          </mxGeometry>
        </mxCell>
        <mxCell id="V9Exqj90Ii3oVxS3J_qq-49" value="" style="shape=partialRectangle;collapsible=0;dropTarget=0;pointerEvents=0;fillColor=none;points=[[0,0.5],[1,0.5]];portConstraint=eastwest;top=0;left=0;right=0;bottom=0;labelBackgroundColor=none;strokeColor=#FFFFFF;fontColor=#FFFFFF;rounded=1;" parent="C-vyLk0tnHw3VtMMgP7b-13" vertex="1">
          <mxGeometry y="110" width="256.73828125" height="30" as="geometry" />
        </mxCell>
        <mxCell id="V9Exqj90Ii3oVxS3J_qq-50" value="" style="shape=partialRectangle;overflow=hidden;connectable=0;fillColor=none;top=0;left=0;bottom=0;right=0;labelBackgroundColor=none;strokeColor=#FFFFFF;fontColor=#FFFFFF;rounded=1;" parent="V9Exqj90Ii3oVxS3J_qq-49" vertex="1">
          <mxGeometry width="30" height="30" as="geometry">
            <mxRectangle width="30" height="30" as="alternateBounds" />
          </mxGeometry>
        </mxCell>
        <mxCell id="V9Exqj90Ii3oVxS3J_qq-51" value="period_start_Date Date NOT NULL" style="shape=partialRectangle;overflow=hidden;connectable=0;fillColor=none;top=0;left=0;bottom=0;right=0;align=left;spacingLeft=6;labelBackgroundColor=none;strokeColor=#FFFFFF;fontColor=#FFFFFF;rounded=1;" parent="V9Exqj90Ii3oVxS3J_qq-49" vertex="1">
          <mxGeometry x="30" width="226.73828125" height="30" as="geometry">
            <mxRectangle width="226.73828125" height="30" as="alternateBounds" />
          </mxGeometry>
        </mxCell>
        <mxCell id="V9Exqj90Ii3oVxS3J_qq-52" value="" style="shape=partialRectangle;collapsible=0;dropTarget=0;pointerEvents=0;fillColor=none;points=[[0,0.5],[1,0.5]];portConstraint=eastwest;top=0;left=0;right=0;bottom=0;labelBackgroundColor=none;strokeColor=#FFFFFF;fontColor=#FFFFFF;rounded=1;" parent="C-vyLk0tnHw3VtMMgP7b-13" vertex="1">
          <mxGeometry y="140" width="256.73828125" height="30" as="geometry" />
        </mxCell>
        <mxCell id="V9Exqj90Ii3oVxS3J_qq-53" value="" style="shape=partialRectangle;overflow=hidden;connectable=0;fillColor=none;top=0;left=0;bottom=0;right=0;labelBackgroundColor=none;strokeColor=#FFFFFF;fontColor=#FFFFFF;rounded=1;" parent="V9Exqj90Ii3oVxS3J_qq-52" vertex="1">
          <mxGeometry width="30" height="30" as="geometry">
            <mxRectangle width="30" height="30" as="alternateBounds" />
          </mxGeometry>
        </mxCell>
        <mxCell id="V9Exqj90Ii3oVxS3J_qq-54" value="period_end_Date date NOT NULL" style="shape=partialRectangle;overflow=hidden;connectable=0;fillColor=none;top=0;left=0;bottom=0;right=0;align=left;spacingLeft=6;labelBackgroundColor=none;strokeColor=#FFFFFF;fontColor=#FFFFFF;rounded=1;" parent="V9Exqj90Ii3oVxS3J_qq-52" vertex="1">
          <mxGeometry x="30" width="226.73828125" height="30" as="geometry">
            <mxRectangle width="226.73828125" height="30" as="alternateBounds" />
          </mxGeometry>
        </mxCell>
        <mxCell id="ySKFGLkEAsGldyNubYaE-3" value="" style="shape=tableRow;horizontal=0;startSize=0;swimlaneHead=0;swimlaneBody=0;fillColor=none;collapsible=0;dropTarget=0;points=[[0,0.5],[1,0.5]];portConstraint=eastwest;top=0;left=0;right=0;bottom=0;labelBackgroundColor=none;strokeColor=#FFFFFF;fontColor=#FFFFFF;rounded=1;" vertex="1" parent="C-vyLk0tnHw3VtMMgP7b-13">
          <mxGeometry y="170" width="256.73828125" height="30" as="geometry" />
        </mxCell>
        <mxCell id="ySKFGLkEAsGldyNubYaE-4" value="" style="shape=partialRectangle;connectable=0;fillColor=none;top=0;left=0;bottom=0;right=0;editable=1;overflow=hidden;labelBackgroundColor=none;strokeColor=#FFFFFF;fontColor=#FFFFFF;rounded=1;" vertex="1" parent="ySKFGLkEAsGldyNubYaE-3">
          <mxGeometry width="30" height="30" as="geometry">
            <mxRectangle width="30" height="30" as="alternateBounds" />
          </mxGeometry>
        </mxCell>
        <mxCell id="ySKFGLkEAsGldyNubYaE-5" value="period_pay_Date date NOT NULL" style="shape=partialRectangle;connectable=0;fillColor=none;top=0;left=0;bottom=0;right=0;align=left;spacingLeft=6;overflow=hidden;labelBackgroundColor=none;strokeColor=#FFFFFF;fontColor=#FFFFFF;rounded=1;" vertex="1" parent="ySKFGLkEAsGldyNubYaE-3">
          <mxGeometry x="30" width="226.73828125" height="30" as="geometry">
            <mxRectangle width="226.73828125" height="30" as="alternateBounds" />
          </mxGeometry>
        </mxCell>
        <mxCell id="C-vyLk0tnHw3VtMMgP7b-20" value="" style="shape=partialRectangle;collapsible=0;dropTarget=0;pointerEvents=0;fillColor=none;points=[[0,0.5],[1,0.5]];portConstraint=eastwest;top=0;left=0;right=0;bottom=0;labelBackgroundColor=none;strokeColor=#FFFFFF;fontColor=#FFFFFF;rounded=1;" parent="C-vyLk0tnHw3VtMMgP7b-13" vertex="1">
          <mxGeometry y="200" width="256.73828125" height="30" as="geometry" />
        </mxCell>
        <mxCell id="C-vyLk0tnHw3VtMMgP7b-21" value="" style="shape=partialRectangle;overflow=hidden;connectable=0;fillColor=none;top=0;left=0;bottom=0;right=0;labelBackgroundColor=none;strokeColor=#FFFFFF;fontColor=#FFFFFF;rounded=1;" parent="C-vyLk0tnHw3VtMMgP7b-20" vertex="1">
          <mxGeometry width="30" height="30" as="geometry">
            <mxRectangle width="30" height="30" as="alternateBounds" />
          </mxGeometry>
        </mxCell>
        <mxCell id="C-vyLk0tnHw3VtMMgP7b-22" value="gross_Amt money NOT NULL" style="shape=partialRectangle;overflow=hidden;connectable=0;fillColor=none;top=0;left=0;bottom=0;right=0;align=left;spacingLeft=6;labelBackgroundColor=none;strokeColor=#FFFFFF;fontColor=#FFFFFF;rounded=1;" parent="C-vyLk0tnHw3VtMMgP7b-20" vertex="1">
          <mxGeometry x="30" width="226.73828125" height="30" as="geometry">
            <mxRectangle width="226.73828125" height="30" as="alternateBounds" />
          </mxGeometry>
        </mxCell>
        <mxCell id="V9Exqj90Ii3oVxS3J_qq-46" value="" style="shape=partialRectangle;collapsible=0;dropTarget=0;pointerEvents=0;fillColor=none;points=[[0,0.5],[1,0.5]];portConstraint=eastwest;top=0;left=0;right=0;bottom=0;labelBackgroundColor=none;strokeColor=#FFFFFF;fontColor=#FFFFFF;rounded=1;" parent="C-vyLk0tnHw3VtMMgP7b-13" vertex="1">
          <mxGeometry y="230" width="256.73828125" height="30" as="geometry" />
        </mxCell>
        <mxCell id="V9Exqj90Ii3oVxS3J_qq-47" value="" style="shape=partialRectangle;overflow=hidden;connectable=0;fillColor=none;top=0;left=0;bottom=0;right=0;labelBackgroundColor=none;strokeColor=#FFFFFF;fontColor=#FFFFFF;rounded=1;" parent="V9Exqj90Ii3oVxS3J_qq-46" vertex="1">
          <mxGeometry width="30" height="30" as="geometry">
            <mxRectangle width="30" height="30" as="alternateBounds" />
          </mxGeometry>
        </mxCell>
        <mxCell id="V9Exqj90Ii3oVxS3J_qq-48" value="net_salary money NOT NULL" style="shape=partialRectangle;overflow=hidden;connectable=0;fillColor=none;top=0;left=0;bottom=0;right=0;align=left;spacingLeft=6;labelBackgroundColor=none;strokeColor=#FFFFFF;fontColor=#FFFFFF;rounded=1;" parent="V9Exqj90Ii3oVxS3J_qq-46" vertex="1">
          <mxGeometry x="30" width="226.73828125" height="30" as="geometry">
            <mxRectangle width="226.73828125" height="30" as="alternateBounds" />
          </mxGeometry>
        </mxCell>
        <mxCell id="ySKFGLkEAsGldyNubYaE-6" value="Pay_Earning_Batch" style="shape=table;startSize=30;container=1;collapsible=1;childLayout=tableLayout;fixedRows=1;rowLines=0;fontStyle=1;align=center;resizeLast=1;html=1;labelBackgroundColor=none;fillColor=#182E3E;strokeColor=#FFFFFF;fontColor=#FFFFFF;rounded=1;" vertex="1" parent="c1wcHCh8fKcfgMownZdg-45">
          <mxGeometry x="480.00140625" y="87.50384615384615" width="256.73828125" height="230.91923076923058" as="geometry" />
        </mxCell>
        <mxCell id="ySKFGLkEAsGldyNubYaE-7" value="" style="shape=tableRow;horizontal=0;startSize=0;swimlaneHead=0;swimlaneBody=0;fillColor=none;collapsible=0;dropTarget=0;points=[[0,0.5],[1,0.5]];portConstraint=eastwest;top=0;left=0;right=0;bottom=1;labelBackgroundColor=none;strokeColor=#FFFFFF;fontColor=#FFFFFF;rounded=1;" vertex="1" parent="ySKFGLkEAsGldyNubYaE-6">
          <mxGeometry y="30" width="256.73828125" height="30" as="geometry" />
        </mxCell>
        <mxCell id="ySKFGLkEAsGldyNubYaE-8" value="PK" style="shape=partialRectangle;connectable=0;fillColor=none;top=0;left=0;bottom=0;right=0;fontStyle=1;overflow=hidden;whiteSpace=wrap;html=1;labelBackgroundColor=none;strokeColor=#FFFFFF;fontColor=#FFFFFF;rounded=1;" vertex="1" parent="ySKFGLkEAsGldyNubYaE-7">
          <mxGeometry width="30" height="30" as="geometry">
            <mxRectangle width="30" height="30" as="alternateBounds" />
          </mxGeometry>
        </mxCell>
        <mxCell id="ySKFGLkEAsGldyNubYaE-9" value="pay_Per_Control" style="shape=partialRectangle;connectable=0;fillColor=none;top=0;left=0;bottom=0;right=0;align=left;spacingLeft=6;fontStyle=5;overflow=hidden;whiteSpace=wrap;html=1;labelBackgroundColor=none;strokeColor=#FFFFFF;fontColor=#FFFFFF;rounded=1;" vertex="1" parent="ySKFGLkEAsGldyNubYaE-7">
          <mxGeometry x="30" width="226.73828125" height="30" as="geometry">
            <mxRectangle width="226.73828125" height="30" as="alternateBounds" />
          </mxGeometry>
        </mxCell>
        <mxCell id="ySKFGLkEAsGldyNubYaE-13" value="" style="shape=tableRow;horizontal=0;startSize=0;swimlaneHead=0;swimlaneBody=0;fillColor=none;collapsible=0;dropTarget=0;points=[[0,0.5],[1,0.5]];portConstraint=eastwest;top=0;left=0;right=0;bottom=0;labelBackgroundColor=none;strokeColor=#FFFFFF;fontColor=#FFFFFF;rounded=1;" vertex="1" parent="ySKFGLkEAsGldyNubYaE-6">
          <mxGeometry y="60" width="256.73828125" height="30" as="geometry" />
        </mxCell>
        <mxCell id="ySKFGLkEAsGldyNubYaE-14" value="FK" style="shape=partialRectangle;connectable=0;fillColor=none;top=0;left=0;bottom=0;right=0;editable=1;overflow=hidden;whiteSpace=wrap;html=1;labelBackgroundColor=none;strokeColor=#FFFFFF;fontColor=#FFFFFF;rounded=1;" vertex="1" parent="ySKFGLkEAsGldyNubYaE-13">
          <mxGeometry width="30" height="30" as="geometry">
            <mxRectangle width="30" height="30" as="alternateBounds" />
          </mxGeometry>
        </mxCell>
        <mxCell id="ySKFGLkEAsGldyNubYaE-15" value="period_Hours_Total Double NOT NULL" style="shape=partialRectangle;connectable=0;fillColor=none;top=0;left=0;bottom=0;right=0;align=left;spacingLeft=6;overflow=hidden;whiteSpace=wrap;html=1;labelBackgroundColor=none;strokeColor=#FFFFFF;fontColor=#FFFFFF;rounded=1;" vertex="1" parent="ySKFGLkEAsGldyNubYaE-13">
          <mxGeometry x="30" width="226.73828125" height="30" as="geometry">
            <mxRectangle width="226.73828125" height="30" as="alternateBounds" />
          </mxGeometry>
        </mxCell>
        <mxCell id="ySKFGLkEAsGldyNubYaE-10" value="" style="shape=tableRow;horizontal=0;startSize=0;swimlaneHead=0;swimlaneBody=0;fillColor=none;collapsible=0;dropTarget=0;points=[[0,0.5],[1,0.5]];portConstraint=eastwest;top=0;left=0;right=0;bottom=0;labelBackgroundColor=none;strokeColor=#FFFFFF;fontColor=#FFFFFF;rounded=1;" vertex="1" parent="ySKFGLkEAsGldyNubYaE-6">
          <mxGeometry y="90" width="256.73828125" height="27" as="geometry" />
        </mxCell>
        <mxCell id="ySKFGLkEAsGldyNubYaE-11" value="" style="shape=partialRectangle;connectable=0;fillColor=none;top=0;left=0;bottom=0;right=0;editable=1;overflow=hidden;whiteSpace=wrap;html=1;labelBackgroundColor=none;strokeColor=#FFFFFF;fontColor=#FFFFFF;rounded=1;" vertex="1" parent="ySKFGLkEAsGldyNubYaE-10">
          <mxGeometry width="30" height="27" as="geometry">
            <mxRectangle width="30" height="27" as="alternateBounds" />
          </mxGeometry>
        </mxCell>
        <mxCell id="ySKFGLkEAsGldyNubYaE-12" value="emp_Earn_Code" style="shape=partialRectangle;connectable=0;fillColor=none;top=0;left=0;bottom=0;right=0;align=left;spacingLeft=6;overflow=hidden;whiteSpace=wrap;html=1;labelBackgroundColor=none;strokeColor=#FFFFFF;fontColor=#FFFFFF;rounded=1;" vertex="1" parent="ySKFGLkEAsGldyNubYaE-10">
          <mxGeometry x="30" width="226.73828125" height="27" as="geometry">
            <mxRectangle width="226.73828125" height="27" as="alternateBounds" />
          </mxGeometry>
        </mxCell>
        <mxCell id="ySKFGLkEAsGldyNubYaE-16" value="" style="shape=tableRow;horizontal=0;startSize=0;swimlaneHead=0;swimlaneBody=0;fillColor=none;collapsible=0;dropTarget=0;points=[[0,0.5],[1,0.5]];portConstraint=eastwest;top=0;left=0;right=0;bottom=0;labelBackgroundColor=none;strokeColor=#FFFFFF;fontColor=#FFFFFF;rounded=1;" vertex="1" parent="ySKFGLkEAsGldyNubYaE-6">
          <mxGeometry y="117" width="256.73828125" height="30" as="geometry" />
        </mxCell>
        <mxCell id="ySKFGLkEAsGldyNubYaE-17" value="" style="shape=partialRectangle;connectable=0;fillColor=none;top=0;left=0;bottom=0;right=0;editable=1;overflow=hidden;whiteSpace=wrap;html=1;labelBackgroundColor=none;strokeColor=#FFFFFF;fontColor=#FFFFFF;rounded=1;" vertex="1" parent="ySKFGLkEAsGldyNubYaE-16">
          <mxGeometry width="30" height="30" as="geometry">
            <mxRectangle width="30" height="30" as="alternateBounds" />
          </mxGeometry>
        </mxCell>
        <mxCell id="ySKFGLkEAsGldyNubYaE-18" value="emp_hourly_Rate" style="shape=partialRectangle;connectable=0;fillColor=none;top=0;left=0;bottom=0;right=0;align=left;spacingLeft=6;overflow=hidden;whiteSpace=wrap;html=1;labelBackgroundColor=none;strokeColor=#FFFFFF;fontColor=#FFFFFF;rounded=1;" vertex="1" parent="ySKFGLkEAsGldyNubYaE-16">
          <mxGeometry x="30" width="226.73828125" height="30" as="geometry">
            <mxRectangle width="226.73828125" height="30" as="alternateBounds" />
          </mxGeometry>
        </mxCell>
        <mxCell id="O6YI9wrZHvGKkqHvLnah-66" value="" style="shape=tableRow;horizontal=0;startSize=0;swimlaneHead=0;swimlaneBody=0;fillColor=none;collapsible=0;dropTarget=0;points=[[0,0.5],[1,0.5]];portConstraint=eastwest;top=0;left=0;right=0;bottom=0;strokeColor=#FFFFFF;fontColor=#FFFFFF;" vertex="1" parent="ySKFGLkEAsGldyNubYaE-6">
          <mxGeometry y="147" width="256.73828125" height="30" as="geometry" />
        </mxCell>
        <mxCell id="O6YI9wrZHvGKkqHvLnah-67" value="" style="shape=partialRectangle;connectable=0;fillColor=none;top=0;left=0;bottom=0;right=0;editable=1;overflow=hidden;strokeColor=#FFFFFF;fontColor=#FFFFFF;" vertex="1" parent="O6YI9wrZHvGKkqHvLnah-66">
          <mxGeometry width="30" height="30" as="geometry">
            <mxRectangle width="30" height="30" as="alternateBounds" />
          </mxGeometry>
        </mxCell>
        <mxCell id="O6YI9wrZHvGKkqHvLnah-68" value="emp_Scheduled_Hours" style="shape=partialRectangle;connectable=0;fillColor=none;top=0;left=0;bottom=0;right=0;align=left;spacingLeft=6;overflow=hidden;strokeColor=#FFFFFF;fontColor=#FFFFFF;" vertex="1" parent="O6YI9wrZHvGKkqHvLnah-66">
          <mxGeometry x="30" width="226.73828125" height="30" as="geometry">
            <mxRectangle width="226.73828125" height="30" as="alternateBounds" />
          </mxGeometry>
        </mxCell>
        <mxCell id="V9Exqj90Ii3oVxS3J_qq-127" value="Department" style="shape=table;startSize=30;container=1;collapsible=1;childLayout=tableLayout;fixedRows=1;rowLines=0;fontStyle=1;align=center;resizeLast=1;html=1;labelBackgroundColor=none;fillColor=#182E3E;strokeColor=#FFFFFF;fontColor=#FFFFFF;rounded=1;" parent="1" vertex="1">
          <mxGeometry x="-190" y="40" width="310" height="160" as="geometry" />
        </mxCell>
        <mxCell id="V9Exqj90Ii3oVxS3J_qq-128" value="" style="shape=tableRow;horizontal=0;startSize=0;swimlaneHead=0;swimlaneBody=0;fillColor=none;collapsible=0;dropTarget=0;points=[[0,0.5],[1,0.5]];portConstraint=eastwest;top=0;left=0;right=0;bottom=1;labelBackgroundColor=none;strokeColor=#FFFFFF;fontColor=#FFFFFF;rounded=1;" parent="V9Exqj90Ii3oVxS3J_qq-127" vertex="1">
          <mxGeometry y="30" width="310" height="30" as="geometry" />
        </mxCell>
        <mxCell id="V9Exqj90Ii3oVxS3J_qq-129" value="PK" style="shape=partialRectangle;connectable=0;fillColor=none;top=0;left=0;bottom=0;right=0;fontStyle=1;overflow=hidden;whiteSpace=wrap;html=1;labelBackgroundColor=none;strokeColor=#FFFFFF;fontColor=#FFFFFF;rounded=1;" parent="V9Exqj90Ii3oVxS3J_qq-128" vertex="1">
          <mxGeometry width="30" height="30" as="geometry">
            <mxRectangle width="30" height="30" as="alternateBounds" />
          </mxGeometry>
        </mxCell>
        <mxCell id="V9Exqj90Ii3oVxS3J_qq-130" value="Department_id_int NOT NULL" style="shape=partialRectangle;connectable=0;fillColor=none;top=0;left=0;bottom=0;right=0;align=left;spacingLeft=6;fontStyle=5;overflow=hidden;whiteSpace=wrap;html=1;labelBackgroundColor=none;strokeColor=#FFFFFF;fontColor=#FFFFFF;rounded=1;" parent="V9Exqj90Ii3oVxS3J_qq-128" vertex="1">
          <mxGeometry x="30" width="280" height="30" as="geometry">
            <mxRectangle width="280" height="30" as="alternateBounds" />
          </mxGeometry>
        </mxCell>
        <mxCell id="V9Exqj90Ii3oVxS3J_qq-131" value="" style="shape=tableRow;horizontal=0;startSize=0;swimlaneHead=0;swimlaneBody=0;fillColor=none;collapsible=0;dropTarget=0;points=[[0,0.5],[1,0.5]];portConstraint=eastwest;top=0;left=0;right=0;bottom=0;labelBackgroundColor=none;strokeColor=#FFFFFF;fontColor=#FFFFFF;rounded=1;" parent="V9Exqj90Ii3oVxS3J_qq-127" vertex="1">
          <mxGeometry y="60" width="310" height="30" as="geometry" />
        </mxCell>
        <mxCell id="V9Exqj90Ii3oVxS3J_qq-132" value="" style="shape=partialRectangle;connectable=0;fillColor=none;top=0;left=0;bottom=0;right=0;editable=1;overflow=hidden;whiteSpace=wrap;html=1;labelBackgroundColor=none;strokeColor=#FFFFFF;fontColor=#FFFFFF;rounded=1;" parent="V9Exqj90Ii3oVxS3J_qq-131" vertex="1">
          <mxGeometry width="30" height="30" as="geometry">
            <mxRectangle width="30" height="30" as="alternateBounds" />
          </mxGeometry>
        </mxCell>
        <mxCell id="V9Exqj90Ii3oVxS3J_qq-133" value="department_name&amp;nbsp; char 50 NOT NULL" style="shape=partialRectangle;connectable=0;fillColor=none;top=0;left=0;bottom=0;right=0;align=left;spacingLeft=6;overflow=hidden;whiteSpace=wrap;html=1;labelBackgroundColor=none;strokeColor=#FFFFFF;fontColor=#FFFFFF;rounded=1;" parent="V9Exqj90Ii3oVxS3J_qq-131" vertex="1">
          <mxGeometry x="30" width="280" height="30" as="geometry">
            <mxRectangle width="280" height="30" as="alternateBounds" />
          </mxGeometry>
        </mxCell>
        <mxCell id="V9Exqj90Ii3oVxS3J_qq-134" value="" style="shape=tableRow;horizontal=0;startSize=0;swimlaneHead=0;swimlaneBody=0;fillColor=none;collapsible=0;dropTarget=0;points=[[0,0.5],[1,0.5]];portConstraint=eastwest;top=0;left=0;right=0;bottom=0;labelBackgroundColor=none;strokeColor=#FFFFFF;fontColor=#FFFFFF;rounded=1;" parent="V9Exqj90Ii3oVxS3J_qq-127" vertex="1">
          <mxGeometry y="90" width="310" height="40" as="geometry" />
        </mxCell>
        <mxCell id="V9Exqj90Ii3oVxS3J_qq-135" value="" style="shape=partialRectangle;connectable=0;fillColor=none;top=0;left=0;bottom=0;right=0;editable=1;overflow=hidden;whiteSpace=wrap;html=1;labelBackgroundColor=none;strokeColor=#FFFFFF;fontColor=#FFFFFF;rounded=1;" parent="V9Exqj90Ii3oVxS3J_qq-134" vertex="1">
          <mxGeometry width="30" height="40" as="geometry">
            <mxRectangle width="30" height="40" as="alternateBounds" />
          </mxGeometry>
        </mxCell>
        <mxCell id="V9Exqj90Ii3oVxS3J_qq-136" value="department_head char 50 NOT NULL" style="shape=partialRectangle;connectable=0;fillColor=none;top=0;left=0;bottom=0;right=0;align=left;spacingLeft=6;overflow=hidden;whiteSpace=wrap;html=1;labelBackgroundColor=none;strokeColor=#FFFFFF;fontColor=#FFFFFF;rounded=1;" parent="V9Exqj90Ii3oVxS3J_qq-134" vertex="1">
          <mxGeometry x="30" width="280" height="40" as="geometry">
            <mxRectangle width="280" height="40" as="alternateBounds" />
          </mxGeometry>
        </mxCell>
        <mxCell id="V9Exqj90Ii3oVxS3J_qq-137" value="" style="shape=tableRow;horizontal=0;startSize=0;swimlaneHead=0;swimlaneBody=0;fillColor=none;collapsible=0;dropTarget=0;points=[[0,0.5],[1,0.5]];portConstraint=eastwest;top=0;left=0;right=0;bottom=0;labelBackgroundColor=none;strokeColor=#FFFFFF;fontColor=#FFFFFF;rounded=1;" parent="V9Exqj90Ii3oVxS3J_qq-127" vertex="1">
          <mxGeometry y="130" width="310" height="30" as="geometry" />
        </mxCell>
        <mxCell id="V9Exqj90Ii3oVxS3J_qq-138" value="" style="shape=partialRectangle;connectable=0;fillColor=none;top=0;left=0;bottom=0;right=0;editable=1;overflow=hidden;whiteSpace=wrap;html=1;labelBackgroundColor=none;strokeColor=#FFFFFF;fontColor=#FFFFFF;rounded=1;" parent="V9Exqj90Ii3oVxS3J_qq-137" vertex="1">
          <mxGeometry width="30" height="30" as="geometry">
            <mxRectangle width="30" height="30" as="alternateBounds" />
          </mxGeometry>
        </mxCell>
        <mxCell id="V9Exqj90Ii3oVxS3J_qq-139" value="location char 50 NOT NULL" style="shape=partialRectangle;connectable=0;fillColor=none;top=0;left=0;bottom=0;right=0;align=left;spacingLeft=6;overflow=hidden;whiteSpace=wrap;html=1;labelBackgroundColor=none;strokeColor=#FFFFFF;fontColor=#FFFFFF;rounded=1;" parent="V9Exqj90Ii3oVxS3J_qq-137" vertex="1">
          <mxGeometry x="30" width="280" height="30" as="geometry">
            <mxRectangle width="280" height="30" as="alternateBounds" />
          </mxGeometry>
        </mxCell>
        <mxCell id="V9Exqj90Ii3oVxS3J_qq-199" value="payroll_history" style="shape=table;startSize=30;container=1;collapsible=1;childLayout=tableLayout;fixedRows=1;rowLines=0;fontStyle=1;align=center;resizeLast=1;html=1;labelBackgroundColor=none;fillColor=#182E3E;strokeColor=#FFFFFF;fontColor=#FFFFFF;rounded=1;" parent="1" vertex="1">
          <mxGeometry x="1760" y="440" width="410" height="180" as="geometry" />
        </mxCell>
        <mxCell id="V9Exqj90Ii3oVxS3J_qq-200" value="" style="shape=tableRow;horizontal=0;startSize=0;swimlaneHead=0;swimlaneBody=0;fillColor=none;collapsible=0;dropTarget=0;points=[[0,0.5],[1,0.5]];portConstraint=eastwest;top=0;left=0;right=0;bottom=1;labelBackgroundColor=none;strokeColor=#FFFFFF;fontColor=#FFFFFF;rounded=1;" parent="V9Exqj90Ii3oVxS3J_qq-199" vertex="1">
          <mxGeometry y="30" width="410" height="30" as="geometry" />
        </mxCell>
        <mxCell id="V9Exqj90Ii3oVxS3J_qq-201" value="PK" style="shape=partialRectangle;connectable=0;fillColor=none;top=0;left=0;bottom=0;right=0;fontStyle=1;overflow=hidden;whiteSpace=wrap;html=1;labelBackgroundColor=none;strokeColor=#FFFFFF;fontColor=#FFFFFF;rounded=1;" parent="V9Exqj90Ii3oVxS3J_qq-200" vertex="1">
          <mxGeometry width="30" height="30" as="geometry">
            <mxRectangle width="30" height="30" as="alternateBounds" />
          </mxGeometry>
        </mxCell>
        <mxCell id="V9Exqj90Ii3oVxS3J_qq-202" value="payroll_id int NOT NULL" style="shape=partialRectangle;connectable=0;fillColor=none;top=0;left=0;bottom=0;right=0;align=left;spacingLeft=6;fontStyle=5;overflow=hidden;whiteSpace=wrap;html=1;labelBackgroundColor=none;strokeColor=#FFFFFF;fontColor=#FFFFFF;rounded=1;" parent="V9Exqj90Ii3oVxS3J_qq-200" vertex="1">
          <mxGeometry x="30" width="380" height="30" as="geometry">
            <mxRectangle width="380" height="30" as="alternateBounds" />
          </mxGeometry>
        </mxCell>
        <mxCell id="V9Exqj90Ii3oVxS3J_qq-203" value="" style="shape=tableRow;horizontal=0;startSize=0;swimlaneHead=0;swimlaneBody=0;fillColor=none;collapsible=0;dropTarget=0;points=[[0,0.5],[1,0.5]];portConstraint=eastwest;top=0;left=0;right=0;bottom=0;labelBackgroundColor=none;strokeColor=#FFFFFF;fontColor=#FFFFFF;rounded=1;" parent="V9Exqj90Ii3oVxS3J_qq-199" vertex="1">
          <mxGeometry y="60" width="410" height="30" as="geometry" />
        </mxCell>
        <mxCell id="V9Exqj90Ii3oVxS3J_qq-204" value="" style="shape=partialRectangle;connectable=0;fillColor=none;top=0;left=0;bottom=0;right=0;editable=1;overflow=hidden;whiteSpace=wrap;html=1;labelBackgroundColor=none;strokeColor=#FFFFFF;fontColor=#FFFFFF;rounded=1;" parent="V9Exqj90Ii3oVxS3J_qq-203" vertex="1">
          <mxGeometry width="30" height="30" as="geometry">
            <mxRectangle width="30" height="30" as="alternateBounds" />
          </mxGeometry>
        </mxCell>
        <mxCell id="V9Exqj90Ii3oVxS3J_qq-205" value="employee_id int NOT NULL" style="shape=partialRectangle;connectable=0;fillColor=none;top=0;left=0;bottom=0;right=0;align=left;spacingLeft=6;overflow=hidden;whiteSpace=wrap;html=1;labelBackgroundColor=none;strokeColor=#FFFFFF;fontColor=#FFFFFF;rounded=1;" parent="V9Exqj90Ii3oVxS3J_qq-203" vertex="1">
          <mxGeometry x="30" width="380" height="30" as="geometry">
            <mxRectangle width="380" height="30" as="alternateBounds" />
          </mxGeometry>
        </mxCell>
        <mxCell id="V9Exqj90Ii3oVxS3J_qq-206" value="" style="shape=tableRow;horizontal=0;startSize=0;swimlaneHead=0;swimlaneBody=0;fillColor=none;collapsible=0;dropTarget=0;points=[[0,0.5],[1,0.5]];portConstraint=eastwest;top=0;left=0;right=0;bottom=0;labelBackgroundColor=none;strokeColor=#FFFFFF;fontColor=#FFFFFF;rounded=1;" parent="V9Exqj90Ii3oVxS3J_qq-199" vertex="1">
          <mxGeometry y="90" width="410" height="30" as="geometry" />
        </mxCell>
        <mxCell id="V9Exqj90Ii3oVxS3J_qq-207" value="" style="shape=partialRectangle;connectable=0;fillColor=none;top=0;left=0;bottom=0;right=0;editable=1;overflow=hidden;whiteSpace=wrap;html=1;labelBackgroundColor=none;strokeColor=#FFFFFF;fontColor=#FFFFFF;rounded=1;" parent="V9Exqj90Ii3oVxS3J_qq-206" vertex="1">
          <mxGeometry width="30" height="30" as="geometry">
            <mxRectangle width="30" height="30" as="alternateBounds" />
          </mxGeometry>
        </mxCell>
        <mxCell id="V9Exqj90Ii3oVxS3J_qq-208" value="salary_payment_id int NOT NULL" style="shape=partialRectangle;connectable=0;fillColor=none;top=0;left=0;bottom=0;right=0;align=left;spacingLeft=6;overflow=hidden;whiteSpace=wrap;html=1;labelBackgroundColor=none;strokeColor=#FFFFFF;fontColor=#FFFFFF;rounded=1;" parent="V9Exqj90Ii3oVxS3J_qq-206" vertex="1">
          <mxGeometry x="30" width="380" height="30" as="geometry">
            <mxRectangle width="380" height="30" as="alternateBounds" />
          </mxGeometry>
        </mxCell>
        <mxCell id="V9Exqj90Ii3oVxS3J_qq-209" value="" style="shape=tableRow;horizontal=0;startSize=0;swimlaneHead=0;swimlaneBody=0;fillColor=none;collapsible=0;dropTarget=0;points=[[0,0.5],[1,0.5]];portConstraint=eastwest;top=0;left=0;right=0;bottom=0;labelBackgroundColor=none;strokeColor=#FFFFFF;fontColor=#FFFFFF;rounded=1;" parent="V9Exqj90Ii3oVxS3J_qq-199" vertex="1">
          <mxGeometry y="120" width="410" height="30" as="geometry" />
        </mxCell>
        <mxCell id="V9Exqj90Ii3oVxS3J_qq-210" value="" style="shape=partialRectangle;connectable=0;fillColor=none;top=0;left=0;bottom=0;right=0;editable=1;overflow=hidden;whiteSpace=wrap;html=1;labelBackgroundColor=none;strokeColor=#FFFFFF;fontColor=#FFFFFF;rounded=1;" parent="V9Exqj90Ii3oVxS3J_qq-209" vertex="1">
          <mxGeometry width="30" height="30" as="geometry">
            <mxRectangle width="30" height="30" as="alternateBounds" />
          </mxGeometry>
        </mxCell>
        <mxCell id="V9Exqj90Ii3oVxS3J_qq-211" value="payment_date int NOT NULL" style="shape=partialRectangle;connectable=0;fillColor=none;top=0;left=0;bottom=0;right=0;align=left;spacingLeft=6;overflow=hidden;whiteSpace=wrap;html=1;labelBackgroundColor=none;strokeColor=#FFFFFF;fontColor=#FFFFFF;rounded=1;" parent="V9Exqj90Ii3oVxS3J_qq-209" vertex="1">
          <mxGeometry x="30" width="380" height="30" as="geometry">
            <mxRectangle width="380" height="30" as="alternateBounds" />
          </mxGeometry>
        </mxCell>
        <mxCell id="V9Exqj90Ii3oVxS3J_qq-212" value="" style="shape=tableRow;horizontal=0;startSize=0;swimlaneHead=0;swimlaneBody=0;fillColor=none;collapsible=0;dropTarget=0;points=[[0,0.5],[1,0.5]];portConstraint=eastwest;top=0;left=0;right=0;bottom=0;labelBackgroundColor=none;strokeColor=#FFFFFF;fontColor=#FFFFFF;rounded=1;" parent="V9Exqj90Ii3oVxS3J_qq-199" vertex="1">
          <mxGeometry y="150" width="410" height="30" as="geometry" />
        </mxCell>
        <mxCell id="V9Exqj90Ii3oVxS3J_qq-213" value="" style="shape=partialRectangle;connectable=0;fillColor=none;top=0;left=0;bottom=0;right=0;editable=1;overflow=hidden;whiteSpace=wrap;html=1;labelBackgroundColor=none;strokeColor=#FFFFFF;fontColor=#FFFFFF;rounded=1;" parent="V9Exqj90Ii3oVxS3J_qq-212" vertex="1">
          <mxGeometry width="30" height="30" as="geometry">
            <mxRectangle width="30" height="30" as="alternateBounds" />
          </mxGeometry>
        </mxCell>
        <mxCell id="V9Exqj90Ii3oVxS3J_qq-214" value="total_payment_amount&amp;nbsp;int NOT NULL" style="shape=partialRectangle;connectable=0;fillColor=none;top=0;left=0;bottom=0;right=0;align=left;spacingLeft=6;overflow=hidden;whiteSpace=wrap;html=1;labelBackgroundColor=none;strokeColor=#FFFFFF;fontColor=#FFFFFF;rounded=1;" parent="V9Exqj90Ii3oVxS3J_qq-212" vertex="1">
          <mxGeometry x="30" width="380" height="30" as="geometry">
            <mxRectangle width="380" height="30" as="alternateBounds" />
          </mxGeometry>
        </mxCell>
        <mxCell id="C-vyLk0tnHw3VtMMgP7b-2" value="working_hours_log" style="shape=table;startSize=30;container=1;collapsible=1;childLayout=tableLayout;fixedRows=1;rowLines=0;fontStyle=1;align=center;resizeLast=1;labelBackgroundColor=none;fillColor=#182E3E;strokeColor=#FFFFFF;fontColor=#FFFFFF;rounded=1;" parent="1" vertex="1">
          <mxGeometry x="580" y="760" width="280" height="180" as="geometry" />
        </mxCell>
        <mxCell id="C-vyLk0tnHw3VtMMgP7b-3" value="" style="shape=partialRectangle;collapsible=0;dropTarget=0;pointerEvents=0;fillColor=none;points=[[0,0.5],[1,0.5]];portConstraint=eastwest;top=0;left=0;right=0;bottom=1;labelBackgroundColor=none;strokeColor=#FFFFFF;fontColor=#FFFFFF;rounded=1;" parent="C-vyLk0tnHw3VtMMgP7b-2" vertex="1">
          <mxGeometry y="30" width="280" height="30" as="geometry" />
        </mxCell>
        <mxCell id="C-vyLk0tnHw3VtMMgP7b-4" value="PK" style="shape=partialRectangle;overflow=hidden;connectable=0;fillColor=none;top=0;left=0;bottom=0;right=0;fontStyle=1;labelBackgroundColor=none;strokeColor=#FFFFFF;fontColor=#FFFFFF;rounded=1;" parent="C-vyLk0tnHw3VtMMgP7b-3" vertex="1">
          <mxGeometry width="30" height="30" as="geometry">
            <mxRectangle width="30" height="30" as="alternateBounds" />
          </mxGeometry>
        </mxCell>
        <mxCell id="C-vyLk0tnHw3VtMMgP7b-5" value="working_hours_log_id int NOT NULL " style="shape=partialRectangle;overflow=hidden;connectable=0;fillColor=none;top=0;left=0;bottom=0;right=0;align=left;spacingLeft=6;fontStyle=1;labelBackgroundColor=none;strokeColor=#FFFFFF;fontColor=#FFFFFF;rounded=1;" parent="C-vyLk0tnHw3VtMMgP7b-3" vertex="1">
          <mxGeometry x="30" width="250" height="30" as="geometry">
            <mxRectangle width="250" height="30" as="alternateBounds" />
          </mxGeometry>
        </mxCell>
        <mxCell id="C-vyLk0tnHw3VtMMgP7b-6" value="" style="shape=partialRectangle;collapsible=0;dropTarget=0;pointerEvents=0;fillColor=none;points=[[0,0.5],[1,0.5]];portConstraint=eastwest;top=0;left=0;right=0;bottom=0;labelBackgroundColor=none;strokeColor=#FFFFFF;fontColor=#FFFFFF;rounded=1;" parent="C-vyLk0tnHw3VtMMgP7b-2" vertex="1">
          <mxGeometry y="60" width="280" height="30" as="geometry" />
        </mxCell>
        <mxCell id="C-vyLk0tnHw3VtMMgP7b-7" value="FK1" style="shape=partialRectangle;overflow=hidden;connectable=0;fillColor=none;top=0;left=0;bottom=0;right=0;labelBackgroundColor=none;strokeColor=#FFFFFF;fontColor=#FFFFFF;rounded=1;" parent="C-vyLk0tnHw3VtMMgP7b-6" vertex="1">
          <mxGeometry width="30" height="30" as="geometry">
            <mxRectangle width="30" height="30" as="alternateBounds" />
          </mxGeometry>
        </mxCell>
        <mxCell id="C-vyLk0tnHw3VtMMgP7b-8" value="employee_id int NOT NULL" style="shape=partialRectangle;overflow=hidden;connectable=0;fillColor=none;top=0;left=0;bottom=0;right=0;align=left;spacingLeft=6;labelBackgroundColor=none;strokeColor=#FFFFFF;fontColor=#FFFFFF;rounded=1;" parent="C-vyLk0tnHw3VtMMgP7b-6" vertex="1">
          <mxGeometry x="30" width="250" height="30" as="geometry">
            <mxRectangle width="250" height="30" as="alternateBounds" />
          </mxGeometry>
        </mxCell>
        <mxCell id="ySKFGLkEAsGldyNubYaE-26" value="" style="shape=tableRow;horizontal=0;startSize=0;swimlaneHead=0;swimlaneBody=0;fillColor=none;collapsible=0;dropTarget=0;points=[[0,0.5],[1,0.5]];portConstraint=eastwest;top=0;left=0;right=0;bottom=0;fontFamily=Helvetica;fontSize=12;fontColor=#FFFFFF;labelBackgroundColor=none;strokeColor=#FFFFFF;rounded=1;" vertex="1" parent="C-vyLk0tnHw3VtMMgP7b-2">
          <mxGeometry y="90" width="280" height="30" as="geometry" />
        </mxCell>
        <mxCell id="ySKFGLkEAsGldyNubYaE-27" value="FK2" style="shape=partialRectangle;connectable=0;fillColor=none;top=0;left=0;bottom=0;right=0;editable=1;overflow=hidden;fontFamily=Helvetica;fontSize=12;fontColor=#FFFFFF;labelBackgroundColor=none;strokeColor=#FFFFFF;rounded=1;" vertex="1" parent="ySKFGLkEAsGldyNubYaE-26">
          <mxGeometry width="30" height="30" as="geometry">
            <mxRectangle width="30" height="30" as="alternateBounds" />
          </mxGeometry>
        </mxCell>
        <mxCell id="ySKFGLkEAsGldyNubYaE-28" value="earn_Code" style="shape=partialRectangle;connectable=0;fillColor=none;top=0;left=0;bottom=0;right=0;align=left;spacingLeft=6;overflow=hidden;fontFamily=Helvetica;fontSize=12;fontColor=#FFFFFF;labelBackgroundColor=none;strokeColor=#FFFFFF;rounded=1;" vertex="1" parent="ySKFGLkEAsGldyNubYaE-26">
          <mxGeometry x="30" width="250" height="30" as="geometry">
            <mxRectangle width="250" height="30" as="alternateBounds" />
          </mxGeometry>
        </mxCell>
        <mxCell id="C-vyLk0tnHw3VtMMgP7b-9" value="" style="shape=partialRectangle;collapsible=0;dropTarget=0;pointerEvents=0;fillColor=none;points=[[0,0.5],[1,0.5]];portConstraint=eastwest;top=0;left=0;right=0;bottom=0;labelBackgroundColor=none;strokeColor=#FFFFFF;fontColor=#FFFFFF;rounded=1;" parent="C-vyLk0tnHw3VtMMgP7b-2" vertex="1">
          <mxGeometry y="120" width="280" height="30" as="geometry" />
        </mxCell>
        <mxCell id="C-vyLk0tnHw3VtMMgP7b-10" value="" style="shape=partialRectangle;overflow=hidden;connectable=0;fillColor=none;top=0;left=0;bottom=0;right=0;labelBackgroundColor=none;strokeColor=#FFFFFF;fontColor=#FFFFFF;rounded=1;" parent="C-vyLk0tnHw3VtMMgP7b-9" vertex="1">
          <mxGeometry width="30" height="30" as="geometry">
            <mxRectangle width="30" height="30" as="alternateBounds" />
          </mxGeometry>
        </mxCell>
        <mxCell id="C-vyLk0tnHw3VtMMgP7b-11" value="start_time date NOT NULL" style="shape=partialRectangle;overflow=hidden;connectable=0;fillColor=none;top=0;left=0;bottom=0;right=0;align=left;spacingLeft=6;labelBackgroundColor=none;strokeColor=#FFFFFF;fontColor=#FFFFFF;rounded=1;" parent="C-vyLk0tnHw3VtMMgP7b-9" vertex="1">
          <mxGeometry x="30" width="250" height="30" as="geometry">
            <mxRectangle width="250" height="30" as="alternateBounds" />
          </mxGeometry>
        </mxCell>
        <mxCell id="V9Exqj90Ii3oVxS3J_qq-43" value="" style="shape=partialRectangle;collapsible=0;dropTarget=0;pointerEvents=0;fillColor=none;points=[[0,0.5],[1,0.5]];portConstraint=eastwest;top=0;left=0;right=0;bottom=0;labelBackgroundColor=none;strokeColor=#FFFFFF;fontColor=#FFFFFF;rounded=1;" parent="C-vyLk0tnHw3VtMMgP7b-2" vertex="1">
          <mxGeometry y="150" width="280" height="30" as="geometry" />
        </mxCell>
        <mxCell id="V9Exqj90Ii3oVxS3J_qq-44" value="" style="shape=partialRectangle;overflow=hidden;connectable=0;fillColor=none;top=0;left=0;bottom=0;right=0;labelBackgroundColor=none;strokeColor=#FFFFFF;fontColor=#FFFFFF;rounded=1;" parent="V9Exqj90Ii3oVxS3J_qq-43" vertex="1">
          <mxGeometry width="30" height="30" as="geometry">
            <mxRectangle width="30" height="30" as="alternateBounds" />
          </mxGeometry>
        </mxCell>
        <mxCell id="V9Exqj90Ii3oVxS3J_qq-45" value="end_time date NOT NULL" style="shape=partialRectangle;overflow=hidden;connectable=0;fillColor=none;top=0;left=0;bottom=0;right=0;align=left;spacingLeft=6;labelBackgroundColor=none;strokeColor=#FFFFFF;fontColor=#FFFFFF;rounded=1;" parent="V9Exqj90Ii3oVxS3J_qq-43" vertex="1">
          <mxGeometry x="30" width="250" height="30" as="geometry">
            <mxRectangle width="250" height="30" as="alternateBounds" />
          </mxGeometry>
        </mxCell>
        <mxCell id="n4IWMxkNp2gicGKN8Kom-1" value="Employee_Personal" style="shape=table;startSize=30;container=1;collapsible=1;childLayout=tableLayout;fixedRows=1;rowLines=0;fontStyle=1;align=center;resizeLast=1;html=1;movable=1;resizable=1;rotatable=1;deletable=1;editable=1;locked=0;connectable=1;labelBackgroundColor=none;fillColor=#182E3E;strokeColor=#FFFFFF;fontColor=#FFFFFF;rounded=1;" vertex="1" parent="1">
          <mxGeometry x="170" y="250" width="309" height="360" as="geometry" />
        </mxCell>
        <mxCell id="n4IWMxkNp2gicGKN8Kom-2" value="" style="shape=tableRow;horizontal=0;startSize=0;swimlaneHead=0;swimlaneBody=0;fillColor=none;collapsible=0;dropTarget=0;points=[[0,0.5],[1,0.5]];portConstraint=eastwest;top=0;left=0;right=0;bottom=1;labelBackgroundColor=none;strokeColor=#FFFFFF;fontColor=#FFFFFF;rounded=1;" vertex="1" parent="n4IWMxkNp2gicGKN8Kom-1">
          <mxGeometry y="30" width="309" height="30" as="geometry" />
        </mxCell>
        <mxCell id="n4IWMxkNp2gicGKN8Kom-3" value="PK" style="shape=partialRectangle;connectable=0;fillColor=none;top=0;left=0;bottom=0;right=0;fontStyle=1;overflow=hidden;whiteSpace=wrap;html=1;labelBackgroundColor=none;strokeColor=#FFFFFF;fontColor=#FFFFFF;rounded=1;" vertex="1" parent="n4IWMxkNp2gicGKN8Kom-2">
          <mxGeometry width="30" height="30" as="geometry">
            <mxRectangle width="30" height="30" as="alternateBounds" />
          </mxGeometry>
        </mxCell>
        <mxCell id="n4IWMxkNp2gicGKN8Kom-4" value="eepEEID&amp;nbsp;&lt;span style=&quot;white-space: pre;&quot;&gt;&#x9;&lt;/span&gt;VARCHAR(15)" style="shape=partialRectangle;connectable=0;fillColor=none;top=0;left=0;bottom=0;right=0;align=left;spacingLeft=6;fontStyle=5;overflow=hidden;whiteSpace=wrap;html=1;labelBackgroundColor=none;strokeColor=#FFFFFF;fontColor=#FFFFFF;rounded=1;" vertex="1" parent="n4IWMxkNp2gicGKN8Kom-2">
          <mxGeometry x="30" width="279" height="30" as="geometry">
            <mxRectangle width="279" height="30" as="alternateBounds" />
          </mxGeometry>
        </mxCell>
        <mxCell id="n4IWMxkNp2gicGKN8Kom-8" value="" style="shape=tableRow;horizontal=0;startSize=0;swimlaneHead=0;swimlaneBody=0;fillColor=none;collapsible=0;dropTarget=0;points=[[0,0.5],[1,0.5]];portConstraint=eastwest;top=0;left=0;right=0;bottom=0;labelBackgroundColor=none;strokeColor=#FFFFFF;fontColor=#FFFFFF;rounded=1;" vertex="1" parent="n4IWMxkNp2gicGKN8Kom-1">
          <mxGeometry y="60" width="309" height="30" as="geometry" />
        </mxCell>
        <mxCell id="n4IWMxkNp2gicGKN8Kom-9" value="" style="shape=partialRectangle;connectable=0;fillColor=none;top=0;left=0;bottom=0;right=0;editable=1;overflow=hidden;whiteSpace=wrap;html=1;labelBackgroundColor=none;strokeColor=#FFFFFF;fontColor=#FFFFFF;rounded=1;" vertex="1" parent="n4IWMxkNp2gicGKN8Kom-8">
          <mxGeometry width="30" height="30" as="geometry">
            <mxRectangle width="30" height="30" as="alternateBounds" />
          </mxGeometry>
        </mxCell>
        <mxCell id="n4IWMxkNp2gicGKN8Kom-10" value="emp_First_Name&lt;span style=&quot;&quot;&gt;&lt;span style=&quot;white-space: pre;&quot;&gt;&amp;nbsp;&amp;nbsp;&amp;nbsp;&amp;nbsp;&lt;/span&gt;&lt;/span&gt;VARCHAR(50)" style="shape=partialRectangle;connectable=0;fillColor=none;top=0;left=0;bottom=0;right=0;align=left;spacingLeft=6;overflow=hidden;whiteSpace=wrap;html=1;labelBackgroundColor=none;strokeColor=#FFFFFF;fontColor=#FFFFFF;rounded=1;" vertex="1" parent="n4IWMxkNp2gicGKN8Kom-8">
          <mxGeometry x="30" width="279" height="30" as="geometry">
            <mxRectangle width="279" height="30" as="alternateBounds" />
          </mxGeometry>
        </mxCell>
        <mxCell id="n4IWMxkNp2gicGKN8Kom-11" value="" style="shape=tableRow;horizontal=0;startSize=0;swimlaneHead=0;swimlaneBody=0;fillColor=none;collapsible=0;dropTarget=0;points=[[0,0.5],[1,0.5]];portConstraint=eastwest;top=0;left=0;right=0;bottom=0;labelBackgroundColor=none;strokeColor=#FFFFFF;fontColor=#FFFFFF;rounded=1;" vertex="1" parent="n4IWMxkNp2gicGKN8Kom-1">
          <mxGeometry y="90" width="309" height="30" as="geometry" />
        </mxCell>
        <mxCell id="n4IWMxkNp2gicGKN8Kom-12" value="" style="shape=partialRectangle;connectable=0;fillColor=none;top=0;left=0;bottom=0;right=0;editable=1;overflow=hidden;whiteSpace=wrap;html=1;labelBackgroundColor=none;strokeColor=#FFFFFF;fontColor=#FFFFFF;rounded=1;" vertex="1" parent="n4IWMxkNp2gicGKN8Kom-11">
          <mxGeometry width="30" height="30" as="geometry">
            <mxRectangle width="30" height="30" as="alternateBounds" />
          </mxGeometry>
        </mxCell>
        <mxCell id="n4IWMxkNp2gicGKN8Kom-13" value="emp_Last_Name&lt;span style=&quot;&quot;&gt;&lt;span style=&quot;white-space: pre;&quot;&gt;&amp;nbsp;&amp;nbsp;&amp;nbsp;&amp;nbsp;&lt;/span&gt;&lt;/span&gt;&amp;nbsp;VARCHAR(50)" style="shape=partialRectangle;connectable=0;fillColor=none;top=0;left=0;bottom=0;right=0;align=left;spacingLeft=6;overflow=hidden;whiteSpace=wrap;html=1;labelBackgroundColor=none;strokeColor=#FFFFFF;fontColor=#FFFFFF;rounded=1;" vertex="1" parent="n4IWMxkNp2gicGKN8Kom-11">
          <mxGeometry x="30" width="279" height="30" as="geometry">
            <mxRectangle width="279" height="30" as="alternateBounds" />
          </mxGeometry>
        </mxCell>
        <mxCell id="c1wcHCh8fKcfgMownZdg-57" value="" style="shape=tableRow;horizontal=0;startSize=0;swimlaneHead=0;swimlaneBody=0;fillColor=none;collapsible=0;dropTarget=0;points=[[0,0.5],[1,0.5]];portConstraint=eastwest;top=0;left=0;right=0;bottom=0;strokeColor=#FFFFFF;fontColor=#FFFFFF;" vertex="1" parent="n4IWMxkNp2gicGKN8Kom-1">
          <mxGeometry y="120" width="309" height="30" as="geometry" />
        </mxCell>
        <mxCell id="c1wcHCh8fKcfgMownZdg-58" value="" style="shape=partialRectangle;connectable=0;fillColor=none;top=0;left=0;bottom=0;right=0;editable=1;overflow=hidden;strokeColor=#FFFFFF;fontColor=#FFFFFF;" vertex="1" parent="c1wcHCh8fKcfgMownZdg-57">
          <mxGeometry width="30" height="30" as="geometry">
            <mxRectangle width="30" height="30" as="alternateBounds" />
          </mxGeometry>
        </mxCell>
        <mxCell id="c1wcHCh8fKcfgMownZdg-59" value="emp_Middle_Name    VARCHAR(50)" style="shape=partialRectangle;connectable=0;fillColor=none;top=0;left=0;bottom=0;right=0;align=left;spacingLeft=6;overflow=hidden;strokeColor=#FFFFFF;fontColor=#FFFFFF;" vertex="1" parent="c1wcHCh8fKcfgMownZdg-57">
          <mxGeometry x="30" width="279" height="30" as="geometry">
            <mxRectangle width="279" height="30" as="alternateBounds" />
          </mxGeometry>
        </mxCell>
        <mxCell id="n4IWMxkNp2gicGKN8Kom-5" value="" style="shape=tableRow;horizontal=0;startSize=0;swimlaneHead=0;swimlaneBody=0;fillColor=none;collapsible=0;dropTarget=0;points=[[0,0.5],[1,0.5]];portConstraint=eastwest;top=0;left=0;right=0;bottom=0;labelBackgroundColor=none;strokeColor=#FFFFFF;fontColor=#FFFFFF;rounded=1;" vertex="1" parent="n4IWMxkNp2gicGKN8Kom-1">
          <mxGeometry y="150" width="309" height="30" as="geometry" />
        </mxCell>
        <mxCell id="n4IWMxkNp2gicGKN8Kom-6" value="" style="shape=partialRectangle;connectable=0;fillColor=none;top=0;left=0;bottom=0;right=0;editable=1;overflow=hidden;whiteSpace=wrap;html=1;labelBackgroundColor=none;strokeColor=#FFFFFF;fontColor=#FFFFFF;rounded=1;" vertex="1" parent="n4IWMxkNp2gicGKN8Kom-5">
          <mxGeometry width="30" height="30" as="geometry">
            <mxRectangle width="30" height="30" as="alternateBounds" />
          </mxGeometry>
        </mxCell>
        <mxCell id="n4IWMxkNp2gicGKN8Kom-7" value="emp_Date_Of_Birth&amp;nbsp;&lt;span style=&quot;white-space: pre;&quot;&gt;&#x9;&lt;/span&gt;DATE" style="shape=partialRectangle;connectable=0;fillColor=none;top=0;left=0;bottom=0;right=0;align=left;spacingLeft=6;overflow=hidden;whiteSpace=wrap;html=1;labelBackgroundColor=none;strokeColor=#FFFFFF;fontColor=#FFFFFF;rounded=1;" vertex="1" parent="n4IWMxkNp2gicGKN8Kom-5">
          <mxGeometry x="30" width="279" height="30" as="geometry">
            <mxRectangle width="279" height="30" as="alternateBounds" />
          </mxGeometry>
        </mxCell>
        <mxCell id="c1wcHCh8fKcfgMownZdg-53" value="" style="shape=tableRow;horizontal=0;startSize=0;swimlaneHead=0;swimlaneBody=0;fillColor=none;collapsible=0;dropTarget=0;points=[[0,0.5],[1,0.5]];portConstraint=eastwest;top=0;left=0;right=0;bottom=0;strokeColor=#FFFFFF;fontColor=#FFFFFF;" vertex="1" parent="n4IWMxkNp2gicGKN8Kom-1">
          <mxGeometry y="180" width="309" height="30" as="geometry" />
        </mxCell>
        <mxCell id="c1wcHCh8fKcfgMownZdg-54" value="" style="shape=partialRectangle;connectable=0;fillColor=none;top=0;left=0;bottom=0;right=0;editable=1;overflow=hidden;strokeColor=#FFFFFF;fontColor=#FFFFFF;" vertex="1" parent="c1wcHCh8fKcfgMownZdg-53">
          <mxGeometry width="30" height="30" as="geometry">
            <mxRectangle width="30" height="30" as="alternateBounds" />
          </mxGeometry>
        </mxCell>
        <mxCell id="c1wcHCh8fKcfgMownZdg-55" value="emp_SSN                VARCHAR(10)" style="shape=partialRectangle;connectable=0;fillColor=none;top=0;left=0;bottom=0;right=0;align=left;spacingLeft=6;overflow=hidden;strokeColor=#FFFFFF;fontColor=#FFFFFF;" vertex="1" parent="c1wcHCh8fKcfgMownZdg-53">
          <mxGeometry x="30" width="279" height="30" as="geometry">
            <mxRectangle width="279" height="30" as="alternateBounds" />
          </mxGeometry>
        </mxCell>
        <mxCell id="c1wcHCh8fKcfgMownZdg-61" value="" style="shape=tableRow;horizontal=0;startSize=0;swimlaneHead=0;swimlaneBody=0;fillColor=none;collapsible=0;dropTarget=0;points=[[0,0.5],[1,0.5]];portConstraint=eastwest;top=0;left=0;right=0;bottom=0;strokeColor=#FFFFFF;fontColor=#FFFFFF;" vertex="1" parent="n4IWMxkNp2gicGKN8Kom-1">
          <mxGeometry y="210" width="309" height="30" as="geometry" />
        </mxCell>
        <mxCell id="c1wcHCh8fKcfgMownZdg-62" value="" style="shape=partialRectangle;connectable=0;fillColor=none;top=0;left=0;bottom=0;right=0;editable=1;overflow=hidden;strokeColor=#FFFFFF;fontColor=#FFFFFF;" vertex="1" parent="c1wcHCh8fKcfgMownZdg-61">
          <mxGeometry width="30" height="30" as="geometry">
            <mxRectangle width="30" height="30" as="alternateBounds" />
          </mxGeometry>
        </mxCell>
        <mxCell id="c1wcHCh8fKcfgMownZdg-63" value="emp_Address_Line1    VARCHAR(25)" style="shape=partialRectangle;connectable=0;fillColor=none;top=0;left=0;bottom=0;right=0;align=left;spacingLeft=6;overflow=hidden;strokeColor=#FFFFFF;fontColor=#FFFFFF;" vertex="1" parent="c1wcHCh8fKcfgMownZdg-61">
          <mxGeometry x="30" width="279" height="30" as="geometry">
            <mxRectangle width="279" height="30" as="alternateBounds" />
          </mxGeometry>
        </mxCell>
        <mxCell id="c1wcHCh8fKcfgMownZdg-69" value="" style="shape=tableRow;horizontal=0;startSize=0;swimlaneHead=0;swimlaneBody=0;fillColor=none;collapsible=0;dropTarget=0;points=[[0,0.5],[1,0.5]];portConstraint=eastwest;top=0;left=0;right=0;bottom=0;strokeColor=#FFFFFF;fontColor=#FFFFFF;" vertex="1" parent="n4IWMxkNp2gicGKN8Kom-1">
          <mxGeometry y="240" width="309" height="30" as="geometry" />
        </mxCell>
        <mxCell id="c1wcHCh8fKcfgMownZdg-70" value="" style="shape=partialRectangle;connectable=0;fillColor=none;top=0;left=0;bottom=0;right=0;editable=1;overflow=hidden;strokeColor=#FFFFFF;fontColor=#FFFFFF;" vertex="1" parent="c1wcHCh8fKcfgMownZdg-69">
          <mxGeometry width="30" height="30" as="geometry">
            <mxRectangle width="30" height="30" as="alternateBounds" />
          </mxGeometry>
        </mxCell>
        <mxCell id="c1wcHCh8fKcfgMownZdg-71" value="emp_City               VARCHAR(25)" style="shape=partialRectangle;connectable=0;fillColor=none;top=0;left=0;bottom=0;right=0;align=left;spacingLeft=6;overflow=hidden;strokeColor=#FFFFFF;fontColor=#FFFFFF;" vertex="1" parent="c1wcHCh8fKcfgMownZdg-69">
          <mxGeometry x="30" width="279" height="30" as="geometry">
            <mxRectangle width="279" height="30" as="alternateBounds" />
          </mxGeometry>
        </mxCell>
        <mxCell id="c1wcHCh8fKcfgMownZdg-81" value="" style="shape=tableRow;horizontal=0;startSize=0;swimlaneHead=0;swimlaneBody=0;fillColor=none;collapsible=0;dropTarget=0;points=[[0,0.5],[1,0.5]];portConstraint=eastwest;top=0;left=0;right=0;bottom=0;strokeColor=#FFFFFF;fontColor=#FFFFFF;" vertex="1" parent="n4IWMxkNp2gicGKN8Kom-1">
          <mxGeometry y="270" width="309" height="30" as="geometry" />
        </mxCell>
        <mxCell id="c1wcHCh8fKcfgMownZdg-82" value="" style="shape=partialRectangle;connectable=0;fillColor=none;top=0;left=0;bottom=0;right=0;editable=1;overflow=hidden;strokeColor=#FFFFFF;fontColor=#FFFFFF;" vertex="1" parent="c1wcHCh8fKcfgMownZdg-81">
          <mxGeometry width="30" height="30" as="geometry">
            <mxRectangle width="30" height="30" as="alternateBounds" />
          </mxGeometry>
        </mxCell>
        <mxCell id="c1wcHCh8fKcfgMownZdg-83" value="emp_Zip_Code      VARCHAR(5)" style="shape=partialRectangle;connectable=0;fillColor=none;top=0;left=0;bottom=0;right=0;align=left;spacingLeft=6;overflow=hidden;strokeColor=#FFFFFF;fontColor=#FFFFFF;" vertex="1" parent="c1wcHCh8fKcfgMownZdg-81">
          <mxGeometry x="30" width="279" height="30" as="geometry">
            <mxRectangle width="279" height="30" as="alternateBounds" />
          </mxGeometry>
        </mxCell>
        <mxCell id="c1wcHCh8fKcfgMownZdg-73" value="" style="shape=tableRow;horizontal=0;startSize=0;swimlaneHead=0;swimlaneBody=0;fillColor=none;collapsible=0;dropTarget=0;points=[[0,0.5],[1,0.5]];portConstraint=eastwest;top=0;left=0;right=0;bottom=0;strokeColor=#FFFFFF;fontColor=#FFFFFF;" vertex="1" parent="n4IWMxkNp2gicGKN8Kom-1">
          <mxGeometry y="300" width="309" height="30" as="geometry" />
        </mxCell>
        <mxCell id="c1wcHCh8fKcfgMownZdg-74" value="" style="shape=partialRectangle;connectable=0;fillColor=none;top=0;left=0;bottom=0;right=0;editable=1;overflow=hidden;strokeColor=#FFFFFF;fontColor=#FFFFFF;" vertex="1" parent="c1wcHCh8fKcfgMownZdg-73">
          <mxGeometry width="30" height="30" as="geometry">
            <mxRectangle width="30" height="30" as="alternateBounds" />
          </mxGeometry>
        </mxCell>
        <mxCell id="c1wcHCh8fKcfgMownZdg-75" value="emp_State                VARCHAR(2)" style="shape=partialRectangle;connectable=0;fillColor=none;top=0;left=0;bottom=0;right=0;align=left;spacingLeft=6;overflow=hidden;strokeColor=#FFFFFF;fontColor=#FFFFFF;" vertex="1" parent="c1wcHCh8fKcfgMownZdg-73">
          <mxGeometry x="30" width="279" height="30" as="geometry">
            <mxRectangle width="279" height="30" as="alternateBounds" />
          </mxGeometry>
        </mxCell>
        <mxCell id="c1wcHCh8fKcfgMownZdg-77" value="" style="shape=tableRow;horizontal=0;startSize=0;swimlaneHead=0;swimlaneBody=0;fillColor=none;collapsible=0;dropTarget=0;points=[[0,0.5],[1,0.5]];portConstraint=eastwest;top=0;left=0;right=0;bottom=0;strokeColor=#FFFFFF;fontColor=#FFFFFF;" vertex="1" parent="n4IWMxkNp2gicGKN8Kom-1">
          <mxGeometry y="330" width="309" height="30" as="geometry" />
        </mxCell>
        <mxCell id="c1wcHCh8fKcfgMownZdg-78" value="   " style="shape=partialRectangle;connectable=0;fillColor=none;top=0;left=0;bottom=0;right=0;editable=1;overflow=hidden;strokeColor=#FFFFFF;fontColor=#FFFFFF;" vertex="1" parent="c1wcHCh8fKcfgMownZdg-77">
          <mxGeometry width="30" height="30" as="geometry">
            <mxRectangle width="30" height="30" as="alternateBounds" />
          </mxGeometry>
        </mxCell>
        <mxCell id="c1wcHCh8fKcfgMownZdg-79" value="emp_Country            VARCHAR(3)" style="shape=partialRectangle;connectable=0;fillColor=none;top=0;left=0;bottom=0;right=0;align=left;spacingLeft=6;overflow=hidden;strokeColor=#FFFFFF;fontColor=#FFFFFF;" vertex="1" parent="c1wcHCh8fKcfgMownZdg-77">
          <mxGeometry x="30" width="279" height="30" as="geometry">
            <mxRectangle width="279" height="30" as="alternateBounds" />
          </mxGeometry>
        </mxCell>
        <mxCell id="spIK1A9tb59zinwG7bVb-1" value="Employee_Company" style="shape=table;startSize=30;container=1;collapsible=1;childLayout=tableLayout;fixedRows=1;rowLines=0;fontStyle=1;align=center;resizeLast=1;html=1;movable=1;resizable=1;rotatable=1;deletable=1;editable=1;locked=0;connectable=1;labelBackgroundColor=none;fillColor=#182E3E;strokeColor=#FFFFFF;fontColor=#FFFFFF;rounded=1;" vertex="1" parent="1">
          <mxGeometry x="170" y="630" width="310" height="280" as="geometry">
            <mxRectangle x="320" y="140" width="100" height="30" as="alternateBounds" />
          </mxGeometry>
        </mxCell>
        <mxCell id="spIK1A9tb59zinwG7bVb-2" value="" style="shape=tableRow;horizontal=0;startSize=0;swimlaneHead=0;swimlaneBody=0;fillColor=none;collapsible=0;dropTarget=0;points=[[0,0.5],[1,0.5]];portConstraint=eastwest;top=0;left=0;right=0;bottom=0;labelBackgroundColor=none;strokeColor=#FFFFFF;fontColor=#FFFFFF;rounded=1;" vertex="1" parent="spIK1A9tb59zinwG7bVb-1">
          <mxGeometry y="30" width="310" height="40" as="geometry" />
        </mxCell>
        <mxCell id="spIK1A9tb59zinwG7bVb-3" value="PK" style="shape=partialRectangle;connectable=0;fillColor=none;top=0;left=0;bottom=0;right=0;fontStyle=1;overflow=hidden;whiteSpace=wrap;html=1;labelBackgroundColor=none;strokeColor=#FFFFFF;fontColor=#FFFFFF;rounded=1;" vertex="1" parent="spIK1A9tb59zinwG7bVb-2">
          <mxGeometry width="30" height="40" as="geometry">
            <mxRectangle width="30" height="40" as="alternateBounds" />
          </mxGeometry>
        </mxCell>
        <mxCell id="spIK1A9tb59zinwG7bVb-4" value="EEID&amp;nbsp;&lt;span style=&quot;white-space: pre;&quot;&gt;&#x9;&lt;/span&gt;VARCHAR(15)" style="shape=partialRectangle;connectable=0;fillColor=none;top=0;left=0;bottom=0;right=0;align=left;spacingLeft=6;fontStyle=5;overflow=hidden;whiteSpace=wrap;html=1;labelBackgroundColor=none;strokeColor=#FFFFFF;fontColor=#FFFFFF;rounded=1;" vertex="1" parent="spIK1A9tb59zinwG7bVb-2">
          <mxGeometry x="30" width="280" height="40" as="geometry">
            <mxRectangle width="280" height="40" as="alternateBounds" />
          </mxGeometry>
        </mxCell>
        <mxCell id="spIK1A9tb59zinwG7bVb-5" value="" style="shape=tableRow;horizontal=0;startSize=0;swimlaneHead=0;swimlaneBody=0;fillColor=none;collapsible=0;dropTarget=0;points=[[0,0.5],[1,0.5]];portConstraint=eastwest;top=0;left=0;right=0;bottom=0;labelBackgroundColor=none;strokeColor=#FFFFFF;fontColor=#FFFFFF;rounded=1;" vertex="1" parent="spIK1A9tb59zinwG7bVb-1">
          <mxGeometry y="70" width="310" height="30" as="geometry" />
        </mxCell>
        <mxCell id="spIK1A9tb59zinwG7bVb-6" value="FK" style="shape=partialRectangle;connectable=0;fillColor=none;top=0;left=0;bottom=0;right=0;editable=1;overflow=hidden;whiteSpace=wrap;html=1;labelBackgroundColor=none;strokeColor=#FFFFFF;fontColor=#FFFFFF;rounded=1;" vertex="1" parent="spIK1A9tb59zinwG7bVb-5">
          <mxGeometry width="30" height="30" as="geometry">
            <mxRectangle width="30" height="30" as="alternateBounds" />
          </mxGeometry>
        </mxCell>
        <mxCell id="spIK1A9tb59zinwG7bVb-7" value="job_Code&lt;span style=&quot;white-space: pre;&quot;&gt;&#x9;&lt;/span&gt;&lt;span style=&quot;white-space: pre;&quot;&gt;&#x9;&lt;/span&gt;&lt;span style=&quot;white-space: pre;&quot;&gt;&#x9;&lt;span style=&quot;white-space: pre;&quot;&gt;&#x9;&lt;/span&gt;v&lt;/span&gt;archar(6)" style="shape=partialRectangle;connectable=0;fillColor=none;top=0;left=0;bottom=0;right=0;align=left;spacingLeft=6;overflow=hidden;whiteSpace=wrap;html=1;labelBackgroundColor=none;strokeColor=#FFFFFF;fontColor=#FFFFFF;rounded=1;" vertex="1" parent="spIK1A9tb59zinwG7bVb-5">
          <mxGeometry x="30" width="280" height="30" as="geometry">
            <mxRectangle width="280" height="30" as="alternateBounds" />
          </mxGeometry>
        </mxCell>
        <mxCell id="spIK1A9tb59zinwG7bVb-8" value="" style="shape=tableRow;horizontal=0;startSize=0;swimlaneHead=0;swimlaneBody=0;fillColor=none;collapsible=0;dropTarget=0;points=[[0,0.5],[1,0.5]];portConstraint=eastwest;top=0;left=0;right=0;bottom=0;labelBackgroundColor=none;strokeColor=#FFFFFF;fontColor=#FFFFFF;rounded=1;" vertex="1" parent="spIK1A9tb59zinwG7bVb-1">
          <mxGeometry y="100" width="310" height="30" as="geometry" />
        </mxCell>
        <mxCell id="spIK1A9tb59zinwG7bVb-9" value="FK" style="shape=partialRectangle;connectable=0;fillColor=none;top=0;left=0;bottom=0;right=0;editable=1;overflow=hidden;whiteSpace=wrap;html=1;labelBackgroundColor=none;strokeColor=#FFFFFF;fontColor=#FFFFFF;rounded=1;" vertex="1" parent="spIK1A9tb59zinwG7bVb-8">
          <mxGeometry width="30" height="30" as="geometry">
            <mxRectangle width="30" height="30" as="alternateBounds" />
          </mxGeometry>
        </mxCell>
        <mxCell id="spIK1A9tb59zinwG7bVb-10" value="work_Location_ID&lt;span style=&quot;white-space: pre;&quot;&gt;&#x9;&lt;/span&gt;&lt;span style=&quot;white-space: pre;&quot;&gt;&#x9;&lt;/span&gt;varchar(6)" style="shape=partialRectangle;connectable=0;fillColor=none;top=0;left=0;bottom=0;right=0;align=left;spacingLeft=6;overflow=hidden;whiteSpace=wrap;html=1;labelBackgroundColor=none;strokeColor=#FFFFFF;fontColor=#FFFFFF;rounded=1;" vertex="1" parent="spIK1A9tb59zinwG7bVb-8">
          <mxGeometry x="30" width="280" height="30" as="geometry">
            <mxRectangle width="280" height="30" as="alternateBounds" />
          </mxGeometry>
        </mxCell>
        <mxCell id="rO7Z7t6_UfiS_Hv_dB_8-15" value="" style="shape=tableRow;horizontal=0;startSize=0;swimlaneHead=0;swimlaneBody=0;fillColor=none;collapsible=0;dropTarget=0;points=[[0,0.5],[1,0.5]];portConstraint=eastwest;top=0;left=0;right=0;bottom=0;fontFamily=Helvetica;fontSize=12;fontColor=#FFFFFF;labelBackgroundColor=none;strokeColor=#FFFFFF;rounded=1;" vertex="1" parent="spIK1A9tb59zinwG7bVb-1">
          <mxGeometry y="130" width="310" height="30" as="geometry" />
        </mxCell>
        <mxCell id="rO7Z7t6_UfiS_Hv_dB_8-16" value="FK" style="shape=partialRectangle;connectable=0;fillColor=none;top=0;left=0;bottom=0;right=0;editable=1;overflow=hidden;fontFamily=Helvetica;fontSize=12;fontColor=#FFFFFF;labelBackgroundColor=none;strokeColor=#FFFFFF;rounded=1;" vertex="1" parent="rO7Z7t6_UfiS_Hv_dB_8-15">
          <mxGeometry width="30" height="30" as="geometry">
            <mxRectangle width="30" height="30" as="alternateBounds" />
          </mxGeometry>
        </mxCell>
        <mxCell id="rO7Z7t6_UfiS_Hv_dB_8-17" value="department_id                   int" style="shape=partialRectangle;connectable=0;fillColor=none;top=0;left=0;bottom=0;right=0;align=left;spacingLeft=6;overflow=hidden;fontFamily=Helvetica;fontSize=12;fontColor=#FFFFFF;labelBackgroundColor=none;strokeColor=#FFFFFF;rounded=1;" vertex="1" parent="rO7Z7t6_UfiS_Hv_dB_8-15">
          <mxGeometry x="30" width="280" height="30" as="geometry">
            <mxRectangle width="280" height="30" as="alternateBounds" />
          </mxGeometry>
        </mxCell>
        <mxCell id="spIK1A9tb59zinwG7bVb-11" value="" style="shape=tableRow;horizontal=0;startSize=0;swimlaneHead=0;swimlaneBody=0;fillColor=none;collapsible=0;dropTarget=0;points=[[0,0.5],[1,0.5]];portConstraint=eastwest;top=0;left=0;right=0;bottom=0;labelBackgroundColor=none;strokeColor=#FFFFFF;fontColor=#FFFFFF;rounded=1;" vertex="1" parent="spIK1A9tb59zinwG7bVb-1">
          <mxGeometry y="160" width="310" height="30" as="geometry" />
        </mxCell>
        <mxCell id="spIK1A9tb59zinwG7bVb-12" value="FK" style="shape=partialRectangle;connectable=0;fillColor=none;top=0;left=0;bottom=1;right=0;editable=1;overflow=hidden;whiteSpace=wrap;html=1;labelBackgroundColor=none;strokeColor=#FFFFFF;fontColor=#FFFFFF;rounded=1;" vertex="1" parent="spIK1A9tb59zinwG7bVb-11">
          <mxGeometry width="30" height="30" as="geometry">
            <mxRectangle width="30" height="30" as="alternateBounds" />
          </mxGeometry>
        </mxCell>
        <mxCell id="spIK1A9tb59zinwG7bVb-13" value="pay_Group" style="shape=partialRectangle;connectable=0;fillColor=none;top=0;left=0;bottom=1;right=0;align=left;spacingLeft=6;overflow=hidden;whiteSpace=wrap;html=1;labelBackgroundColor=none;strokeColor=#FFFFFF;fontColor=#FFFFFF;rounded=1;" vertex="1" parent="spIK1A9tb59zinwG7bVb-11">
          <mxGeometry x="30" width="280" height="30" as="geometry">
            <mxRectangle width="280" height="30" as="alternateBounds" />
          </mxGeometry>
        </mxCell>
        <mxCell id="rO7Z7t6_UfiS_Hv_dB_8-3" value="" style="shape=tableRow;horizontal=0;startSize=0;swimlaneHead=0;swimlaneBody=0;fillColor=none;collapsible=0;dropTarget=0;points=[[0,0.5],[1,0.5]];portConstraint=eastwest;top=0;left=0;right=0;bottom=0;fontFamily=Helvetica;fontSize=12;fontColor=#FFFFFF;labelBackgroundColor=none;strokeColor=#FFFFFF;rounded=1;" vertex="1" parent="spIK1A9tb59zinwG7bVb-1">
          <mxGeometry y="190" width="310" height="30" as="geometry" />
        </mxCell>
        <mxCell id="rO7Z7t6_UfiS_Hv_dB_8-4" value="" style="shape=partialRectangle;connectable=0;fillColor=none;top=0;left=0;bottom=0;right=0;editable=1;overflow=hidden;fontFamily=Helvetica;fontSize=12;fontColor=#FFFFFF;labelBackgroundColor=none;strokeColor=#FFFFFF;rounded=1;" vertex="1" parent="rO7Z7t6_UfiS_Hv_dB_8-3">
          <mxGeometry width="30" height="30" as="geometry">
            <mxRectangle width="30" height="30" as="alternateBounds" />
          </mxGeometry>
        </mxCell>
        <mxCell id="rO7Z7t6_UfiS_Hv_dB_8-5" value="date_of_Original_Hire        date" style="shape=partialRectangle;connectable=0;fillColor=none;top=0;left=0;bottom=0;right=0;align=left;spacingLeft=6;overflow=hidden;fontFamily=Helvetica;fontSize=12;fontColor=#FFFFFF;labelBackgroundColor=none;strokeColor=#FFFFFF;rounded=1;" vertex="1" parent="rO7Z7t6_UfiS_Hv_dB_8-3">
          <mxGeometry x="30" width="280" height="30" as="geometry">
            <mxRectangle width="280" height="30" as="alternateBounds" />
          </mxGeometry>
        </mxCell>
        <mxCell id="rO7Z7t6_UfiS_Hv_dB_8-7" value="" style="shape=tableRow;horizontal=0;startSize=0;swimlaneHead=0;swimlaneBody=0;fillColor=none;collapsible=0;dropTarget=0;points=[[0,0.5],[1,0.5]];portConstraint=eastwest;top=0;left=0;right=0;bottom=0;fontFamily=Helvetica;fontSize=12;fontColor=#FFFFFF;labelBackgroundColor=none;strokeColor=#FFFFFF;rounded=1;" vertex="1" parent="spIK1A9tb59zinwG7bVb-1">
          <mxGeometry y="220" width="310" height="30" as="geometry" />
        </mxCell>
        <mxCell id="rO7Z7t6_UfiS_Hv_dB_8-8" value="" style="shape=partialRectangle;connectable=0;fillColor=none;top=0;left=0;bottom=0;right=0;editable=1;overflow=hidden;fontFamily=Helvetica;fontSize=12;fontColor=#FFFFFF;labelBackgroundColor=none;strokeColor=#FFFFFF;rounded=1;" vertex="1" parent="rO7Z7t6_UfiS_Hv_dB_8-7">
          <mxGeometry width="30" height="30" as="geometry">
            <mxRectangle width="30" height="30" as="alternateBounds" />
          </mxGeometry>
        </mxCell>
        <mxCell id="rO7Z7t6_UfiS_Hv_dB_8-9" value="date_Of_Termintation         date" style="shape=partialRectangle;connectable=0;fillColor=none;top=0;left=0;bottom=0;right=0;align=left;spacingLeft=6;overflow=hidden;fontFamily=Helvetica;fontSize=12;fontColor=#FFFFFF;labelBackgroundColor=none;strokeColor=#FFFFFF;rounded=1;" vertex="1" parent="rO7Z7t6_UfiS_Hv_dB_8-7">
          <mxGeometry x="30" width="280" height="30" as="geometry">
            <mxRectangle width="280" height="30" as="alternateBounds" />
          </mxGeometry>
        </mxCell>
        <mxCell id="rO7Z7t6_UfiS_Hv_dB_8-11" value="" style="shape=tableRow;horizontal=0;startSize=0;swimlaneHead=0;swimlaneBody=0;fillColor=none;collapsible=0;dropTarget=0;points=[[0,0.5],[1,0.5]];portConstraint=eastwest;top=0;left=0;right=0;bottom=0;fontFamily=Helvetica;fontSize=12;fontColor=#FFFFFF;labelBackgroundColor=none;strokeColor=#FFFFFF;rounded=1;" vertex="1" parent="spIK1A9tb59zinwG7bVb-1">
          <mxGeometry y="250" width="310" height="30" as="geometry" />
        </mxCell>
        <mxCell id="rO7Z7t6_UfiS_Hv_dB_8-12" value="" style="shape=partialRectangle;connectable=0;fillColor=none;top=0;left=0;bottom=0;right=0;editable=1;overflow=hidden;fontFamily=Helvetica;fontSize=12;fontColor=#FFFFFF;labelBackgroundColor=none;strokeColor=#FFFFFF;rounded=1;" vertex="1" parent="rO7Z7t6_UfiS_Hv_dB_8-11">
          <mxGeometry width="30" height="30" as="geometry">
            <mxRectangle width="30" height="30" as="alternateBounds" />
          </mxGeometry>
        </mxCell>
        <mxCell id="rO7Z7t6_UfiS_Hv_dB_8-13" value="Date_Of_Senority               date" style="shape=partialRectangle;connectable=0;fillColor=none;top=0;left=0;bottom=0;right=0;align=left;spacingLeft=6;overflow=hidden;fontFamily=Helvetica;fontSize=12;fontColor=#FFFFFF;labelBackgroundColor=none;strokeColor=#FFFFFF;rounded=1;" vertex="1" parent="rO7Z7t6_UfiS_Hv_dB_8-11">
          <mxGeometry x="30" width="280" height="30" as="geometry">
            <mxRectangle width="280" height="30" as="alternateBounds" />
          </mxGeometry>
        </mxCell>
        <mxCell id="V9Exqj90Ii3oVxS3J_qq-182" value="Position&amp;nbsp;" style="shape=table;startSize=30;container=1;collapsible=1;childLayout=tableLayout;fixedRows=1;rowLines=0;fontStyle=1;align=center;resizeLast=1;html=1;labelBackgroundColor=none;fillColor=#182E3E;strokeColor=#FFFFFF;fontColor=#FFFFFF;rounded=1;" parent="1" vertex="1">
          <mxGeometry x="-190" y="220" width="309" height="210" as="geometry" />
        </mxCell>
        <mxCell id="V9Exqj90Ii3oVxS3J_qq-183" value="" style="shape=tableRow;horizontal=0;startSize=0;swimlaneHead=0;swimlaneBody=0;fillColor=none;collapsible=0;dropTarget=0;points=[[0,0.5],[1,0.5]];portConstraint=eastwest;top=0;left=0;right=0;bottom=1;labelBackgroundColor=none;strokeColor=#FFFFFF;fontColor=#FFFFFF;rounded=1;" parent="V9Exqj90Ii3oVxS3J_qq-182" vertex="1">
          <mxGeometry y="30" width="309" height="30" as="geometry" />
        </mxCell>
        <mxCell id="V9Exqj90Ii3oVxS3J_qq-184" value="PK" style="shape=partialRectangle;connectable=0;fillColor=none;top=0;left=0;bottom=0;right=0;fontStyle=1;overflow=hidden;whiteSpace=wrap;html=1;labelBackgroundColor=none;strokeColor=#FFFFFF;fontColor=#FFFFFF;rounded=1;" parent="V9Exqj90Ii3oVxS3J_qq-183" vertex="1">
          <mxGeometry width="30" height="30" as="geometry">
            <mxRectangle width="30" height="30" as="alternateBounds" />
          </mxGeometry>
        </mxCell>
        <mxCell id="V9Exqj90Ii3oVxS3J_qq-185" value="job_Code" style="shape=partialRectangle;connectable=0;fillColor=none;top=0;left=0;bottom=0;right=0;align=left;spacingLeft=6;fontStyle=5;overflow=hidden;whiteSpace=wrap;html=1;labelBackgroundColor=none;strokeColor=#FFFFFF;fontColor=#FFFFFF;rounded=1;" parent="V9Exqj90Ii3oVxS3J_qq-183" vertex="1">
          <mxGeometry x="30" width="279" height="30" as="geometry">
            <mxRectangle width="279" height="30" as="alternateBounds" />
          </mxGeometry>
        </mxCell>
        <mxCell id="V9Exqj90Ii3oVxS3J_qq-186" value="" style="shape=tableRow;horizontal=0;startSize=0;swimlaneHead=0;swimlaneBody=0;fillColor=none;collapsible=0;dropTarget=0;points=[[0,0.5],[1,0.5]];portConstraint=eastwest;top=0;left=0;right=0;bottom=0;labelBackgroundColor=none;strokeColor=#FFFFFF;fontColor=#FFFFFF;rounded=1;" parent="V9Exqj90Ii3oVxS3J_qq-182" vertex="1">
          <mxGeometry y="60" width="309" height="30" as="geometry" />
        </mxCell>
        <mxCell id="V9Exqj90Ii3oVxS3J_qq-187" value="" style="shape=partialRectangle;connectable=0;fillColor=none;top=0;left=0;bottom=0;right=0;editable=1;overflow=hidden;whiteSpace=wrap;html=1;labelBackgroundColor=none;strokeColor=#FFFFFF;fontColor=#FFFFFF;rounded=1;" parent="V9Exqj90Ii3oVxS3J_qq-186" vertex="1">
          <mxGeometry width="30" height="30" as="geometry">
            <mxRectangle width="30" height="30" as="alternateBounds" />
          </mxGeometry>
        </mxCell>
        <mxCell id="V9Exqj90Ii3oVxS3J_qq-188" value="position_title char 50 NOT NULL&amp;nbsp;" style="shape=partialRectangle;connectable=0;fillColor=none;top=0;left=0;bottom=0;right=0;align=left;spacingLeft=6;overflow=hidden;whiteSpace=wrap;html=1;labelBackgroundColor=none;strokeColor=#FFFFFF;fontColor=#FFFFFF;rounded=1;" parent="V9Exqj90Ii3oVxS3J_qq-186" vertex="1">
          <mxGeometry x="30" width="279" height="30" as="geometry">
            <mxRectangle width="279" height="30" as="alternateBounds" />
          </mxGeometry>
        </mxCell>
        <mxCell id="V9Exqj90Ii3oVxS3J_qq-189" value="" style="shape=tableRow;horizontal=0;startSize=0;swimlaneHead=0;swimlaneBody=0;fillColor=none;collapsible=0;dropTarget=0;points=[[0,0.5],[1,0.5]];portConstraint=eastwest;top=0;left=0;right=0;bottom=0;labelBackgroundColor=none;strokeColor=#FFFFFF;fontColor=#FFFFFF;rounded=1;" parent="V9Exqj90Ii3oVxS3J_qq-182" vertex="1">
          <mxGeometry y="90" width="309" height="30" as="geometry" />
        </mxCell>
        <mxCell id="V9Exqj90Ii3oVxS3J_qq-190" value="" style="shape=partialRectangle;connectable=0;fillColor=none;top=0;left=0;bottom=0;right=0;editable=1;overflow=hidden;whiteSpace=wrap;html=1;labelBackgroundColor=none;strokeColor=#FFFFFF;fontColor=#FFFFFF;rounded=1;" parent="V9Exqj90Ii3oVxS3J_qq-189" vertex="1">
          <mxGeometry width="30" height="30" as="geometry">
            <mxRectangle width="30" height="30" as="alternateBounds" />
          </mxGeometry>
        </mxCell>
        <mxCell id="V9Exqj90Ii3oVxS3J_qq-191" value="rate_of_pay_hourly&lt;span style=&quot;white-space: pre;&quot;&gt;&#x9;&lt;/span&gt;&lt;span style=&quot;white-space: pre;&quot;&gt;&#x9;&lt;/span&gt;double NOT Null" style="shape=partialRectangle;connectable=0;fillColor=none;top=0;left=0;bottom=0;right=0;align=left;spacingLeft=6;overflow=hidden;whiteSpace=wrap;html=1;labelBackgroundColor=none;strokeColor=#FFFFFF;fontColor=#FFFFFF;rounded=1;" parent="V9Exqj90Ii3oVxS3J_qq-189" vertex="1">
          <mxGeometry x="30" width="279" height="30" as="geometry">
            <mxRectangle width="279" height="30" as="alternateBounds" />
          </mxGeometry>
        </mxCell>
        <mxCell id="-pMqUoDDE-lmJMb8Pu5U-4" value="" style="shape=tableRow;horizontal=0;startSize=0;swimlaneHead=0;swimlaneBody=0;fillColor=none;collapsible=0;dropTarget=0;points=[[0,0.5],[1,0.5]];portConstraint=eastwest;top=0;left=0;right=0;bottom=0;fontFamily=Helvetica;fontSize=12;fontColor=#FFFFFF;labelBackgroundColor=none;strokeColor=#FFFFFF;rounded=1;" vertex="1" parent="V9Exqj90Ii3oVxS3J_qq-182">
          <mxGeometry y="120" width="309" height="30" as="geometry" />
        </mxCell>
        <mxCell id="-pMqUoDDE-lmJMb8Pu5U-5" value="        " style="shape=partialRectangle;connectable=0;fillColor=none;top=0;left=0;bottom=0;right=0;editable=1;overflow=hidden;fontFamily=Helvetica;fontSize=12;fontColor=#FFFFFF;labelBackgroundColor=none;strokeColor=#FFFFFF;rounded=1;" vertex="1" parent="-pMqUoDDE-lmJMb8Pu5U-4">
          <mxGeometry width="30" height="30" as="geometry">
            <mxRectangle width="30" height="30" as="alternateBounds" />
          </mxGeometry>
        </mxCell>
        <mxCell id="-pMqUoDDE-lmJMb8Pu5U-6" value="hourly_or_Salary    char(1)" style="shape=partialRectangle;connectable=0;fillColor=none;top=0;left=0;bottom=0;right=0;align=left;spacingLeft=6;overflow=hidden;fontFamily=Helvetica;fontSize=12;fontColor=#FFFFFF;labelBackgroundColor=none;strokeColor=#FFFFFF;rounded=1;" vertex="1" parent="-pMqUoDDE-lmJMb8Pu5U-4">
          <mxGeometry x="30" width="279" height="30" as="geometry">
            <mxRectangle width="279" height="30" as="alternateBounds" />
          </mxGeometry>
        </mxCell>
        <mxCell id="Tj3d9uKszmLnw8ARPlNT-2" value="" style="shape=tableRow;horizontal=0;startSize=0;swimlaneHead=0;swimlaneBody=0;fillColor=none;collapsible=0;dropTarget=0;points=[[0,0.5],[1,0.5]];portConstraint=eastwest;top=0;left=0;right=0;bottom=0;fontFamily=Helvetica;fontSize=12;fontColor=#FFFFFF;labelBackgroundColor=none;strokeColor=#FFFFFF;rounded=1;" vertex="1" parent="V9Exqj90Ii3oVxS3J_qq-182">
          <mxGeometry y="150" width="309" height="30" as="geometry" />
        </mxCell>
        <mxCell id="Tj3d9uKszmLnw8ARPlNT-3" value="" style="shape=partialRectangle;connectable=0;fillColor=none;top=0;left=0;bottom=0;right=0;editable=1;overflow=hidden;fontFamily=Helvetica;fontSize=12;fontColor=#FFFFFF;labelBackgroundColor=none;strokeColor=#FFFFFF;rounded=1;" vertex="1" parent="Tj3d9uKszmLnw8ARPlNT-2">
          <mxGeometry width="30" height="30" as="geometry">
            <mxRectangle width="30" height="30" as="alternateBounds" />
          </mxGeometry>
        </mxCell>
        <mxCell id="Tj3d9uKszmLnw8ARPlNT-4" value="position_nonExempt    Boolean NOT NULL" style="shape=partialRectangle;connectable=0;fillColor=none;top=0;left=0;bottom=0;right=0;align=left;spacingLeft=6;overflow=hidden;fontFamily=Helvetica;fontSize=12;fontColor=#FFFFFF;labelBackgroundColor=none;strokeColor=#FFFFFF;rounded=1;" vertex="1" parent="Tj3d9uKszmLnw8ARPlNT-2">
          <mxGeometry x="30" width="279" height="30" as="geometry">
            <mxRectangle width="279" height="30" as="alternateBounds" />
          </mxGeometry>
        </mxCell>
        <mxCell id="c1wcHCh8fKcfgMownZdg-41" value="" style="shape=tableRow;horizontal=0;startSize=0;swimlaneHead=0;swimlaneBody=0;fillColor=none;collapsible=0;dropTarget=0;points=[[0,0.5],[1,0.5]];portConstraint=eastwest;top=0;left=0;right=0;bottom=0;fontFamily=Helvetica;fontSize=12;fontColor=#FFFFFF;labelBackgroundColor=none;strokeColor=#FFFFFF;rounded=1;" vertex="1" parent="V9Exqj90Ii3oVxS3J_qq-182">
          <mxGeometry y="180" width="309" height="30" as="geometry" />
        </mxCell>
        <mxCell id="c1wcHCh8fKcfgMownZdg-42" value="" style="shape=partialRectangle;connectable=0;fillColor=none;top=0;left=0;bottom=0;right=0;editable=1;overflow=hidden;fontFamily=Helvetica;fontSize=12;fontColor=#FFFFFF;labelBackgroundColor=none;strokeColor=#FFFFFF;rounded=1;" vertex="1" parent="c1wcHCh8fKcfgMownZdg-41">
          <mxGeometry width="30" height="30" as="geometry">
            <mxRectangle width="30" height="30" as="alternateBounds" />
          </mxGeometry>
        </mxCell>
        <mxCell id="c1wcHCh8fKcfgMownZdg-43" value="" style="shape=partialRectangle;connectable=0;fillColor=none;top=0;left=0;bottom=0;right=0;align=left;spacingLeft=6;overflow=hidden;fontFamily=Helvetica;fontSize=12;fontColor=#FFFFFF;labelBackgroundColor=none;strokeColor=#FFFFFF;rounded=1;" vertex="1" parent="c1wcHCh8fKcfgMownZdg-41">
          <mxGeometry x="30" width="279" height="30" as="geometry">
            <mxRectangle width="279" height="30" as="alternateBounds" />
          </mxGeometry>
        </mxCell>
        <mxCell id="O6YI9wrZHvGKkqHvLnah-14" value="Work_Location" style="shape=table;startSize=30;container=1;collapsible=1;childLayout=tableLayout;fixedRows=1;rowLines=0;fontStyle=1;align=center;resizeLast=1;html=1;strokeColor=#FFFFFF;fontColor=#FFFFFF;fillColor=#182E3E;rounded=1;" vertex="1" parent="1">
          <mxGeometry x="-190" y="470" width="304.5" height="270" as="geometry" />
        </mxCell>
        <mxCell id="O6YI9wrZHvGKkqHvLnah-15" value="" style="shape=tableRow;horizontal=0;startSize=0;swimlaneHead=0;swimlaneBody=0;fillColor=none;collapsible=0;dropTarget=0;points=[[0,0.5],[1,0.5]];portConstraint=eastwest;top=0;left=0;right=0;bottom=1;strokeColor=#FFFFFF;fontColor=#FFFFFF;rounded=1;" vertex="1" parent="O6YI9wrZHvGKkqHvLnah-14">
          <mxGeometry y="30" width="304.5" height="30" as="geometry" />
        </mxCell>
        <mxCell id="O6YI9wrZHvGKkqHvLnah-16" value="PK" style="shape=partialRectangle;connectable=0;fillColor=none;top=0;left=0;bottom=0;right=0;fontStyle=1;overflow=hidden;whiteSpace=wrap;html=1;strokeColor=#FFFFFF;fontColor=#FFFFFF;" vertex="1" parent="O6YI9wrZHvGKkqHvLnah-15">
          <mxGeometry width="30" height="30" as="geometry">
            <mxRectangle width="30" height="30" as="alternateBounds" />
          </mxGeometry>
        </mxCell>
        <mxCell id="O6YI9wrZHvGKkqHvLnah-17" value="work_Locartion_ID&lt;span style=&quot;white-space: pre;&quot;&gt;&#x9;&lt;/span&gt;&amp;nbsp; VARCHAR(6)" style="shape=partialRectangle;connectable=0;fillColor=none;top=0;left=0;bottom=0;right=0;align=left;spacingLeft=6;fontStyle=5;overflow=hidden;whiteSpace=wrap;html=1;strokeColor=#FFFFFF;fontColor=#FFFFFF;" vertex="1" parent="O6YI9wrZHvGKkqHvLnah-15">
          <mxGeometry x="30" width="274.5" height="30" as="geometry">
            <mxRectangle width="274.5" height="30" as="alternateBounds" />
          </mxGeometry>
        </mxCell>
        <mxCell id="O6YI9wrZHvGKkqHvLnah-21" value="" style="shape=tableRow;horizontal=0;startSize=0;swimlaneHead=0;swimlaneBody=0;fillColor=none;collapsible=0;dropTarget=0;points=[[0,0.5],[1,0.5]];portConstraint=eastwest;top=0;left=0;right=0;bottom=0;strokeColor=#FFFFFF;fontColor=#FFFFFF;" vertex="1" parent="O6YI9wrZHvGKkqHvLnah-14">
          <mxGeometry y="60" width="304.5" height="30" as="geometry" />
        </mxCell>
        <mxCell id="O6YI9wrZHvGKkqHvLnah-22" value="" style="shape=partialRectangle;connectable=0;fillColor=none;top=0;left=0;bottom=0;right=0;editable=1;overflow=hidden;whiteSpace=wrap;html=1;strokeColor=#FFFFFF;fontColor=#FFFFFF;" vertex="1" parent="O6YI9wrZHvGKkqHvLnah-21">
          <mxGeometry width="30" height="30" as="geometry">
            <mxRectangle width="30" height="30" as="alternateBounds" />
          </mxGeometry>
        </mxCell>
        <mxCell id="O6YI9wrZHvGKkqHvLnah-23" value="work_Address_Line1&lt;span style=&quot;white-space: pre;&quot;&gt;&#x9;&lt;/span&gt;&amp;nbsp; VARCHAR(25)" style="shape=partialRectangle;connectable=0;fillColor=none;top=0;left=0;bottom=0;right=0;align=left;spacingLeft=6;overflow=hidden;whiteSpace=wrap;html=1;strokeColor=#FFFFFF;fontColor=#FFFFFF;" vertex="1" parent="O6YI9wrZHvGKkqHvLnah-21">
          <mxGeometry x="30" width="274.5" height="30" as="geometry">
            <mxRectangle width="274.5" height="30" as="alternateBounds" />
          </mxGeometry>
        </mxCell>
        <mxCell id="O6YI9wrZHvGKkqHvLnah-24" value="" style="shape=tableRow;horizontal=0;startSize=0;swimlaneHead=0;swimlaneBody=0;fillColor=none;collapsible=0;dropTarget=0;points=[[0,0.5],[1,0.5]];portConstraint=eastwest;top=0;left=0;right=0;bottom=0;strokeColor=#FFFFFF;fontColor=#FFFFFF;" vertex="1" parent="O6YI9wrZHvGKkqHvLnah-14">
          <mxGeometry y="90" width="304.5" height="30" as="geometry" />
        </mxCell>
        <mxCell id="O6YI9wrZHvGKkqHvLnah-25" value="" style="shape=partialRectangle;connectable=0;fillColor=none;top=0;left=0;bottom=0;right=0;editable=1;overflow=hidden;whiteSpace=wrap;html=1;strokeColor=#FFFFFF;fontColor=#FFFFFF;" vertex="1" parent="O6YI9wrZHvGKkqHvLnah-24">
          <mxGeometry width="30" height="30" as="geometry">
            <mxRectangle width="30" height="30" as="alternateBounds" />
          </mxGeometry>
        </mxCell>
        <mxCell id="O6YI9wrZHvGKkqHvLnah-26" value="work_City&lt;span style=&quot;white-space: pre;&quot;&gt;&#x9;&lt;/span&gt;&lt;span style=&quot;white-space: pre;&quot;&gt;&#x9;&lt;/span&gt;&lt;span style=&quot;white-space: pre;&quot;&gt;&#x9;&lt;/span&gt;&amp;nbsp; VARCHAR(25)" style="shape=partialRectangle;connectable=0;fillColor=none;top=0;left=0;bottom=0;right=0;align=left;spacingLeft=6;overflow=hidden;whiteSpace=wrap;html=1;strokeColor=#FFFFFF;fontColor=#FFFFFF;" vertex="1" parent="O6YI9wrZHvGKkqHvLnah-24">
          <mxGeometry x="30" width="274.5" height="30" as="geometry">
            <mxRectangle width="274.5" height="30" as="alternateBounds" />
          </mxGeometry>
        </mxCell>
        <mxCell id="O6YI9wrZHvGKkqHvLnah-45" value="" style="shape=tableRow;horizontal=0;startSize=0;swimlaneHead=0;swimlaneBody=0;fillColor=none;collapsible=0;dropTarget=0;points=[[0,0.5],[1,0.5]];portConstraint=eastwest;top=0;left=0;right=0;bottom=0;strokeColor=#FFFFFF;fontColor=#FFFFFF;" vertex="1" parent="O6YI9wrZHvGKkqHvLnah-14">
          <mxGeometry y="120" width="304.5" height="30" as="geometry" />
        </mxCell>
        <mxCell id="O6YI9wrZHvGKkqHvLnah-46" value="" style="shape=partialRectangle;connectable=0;fillColor=none;top=0;left=0;bottom=0;right=0;editable=1;overflow=hidden;strokeColor=#FFFFFF;fontColor=#FFFFFF;" vertex="1" parent="O6YI9wrZHvGKkqHvLnah-45">
          <mxGeometry width="30" height="30" as="geometry">
            <mxRectangle width="30" height="30" as="alternateBounds" />
          </mxGeometry>
        </mxCell>
        <mxCell id="O6YI9wrZHvGKkqHvLnah-47" value="work_Zip_Code                 VARCHAR(25)" style="shape=partialRectangle;connectable=0;fillColor=none;top=0;left=0;bottom=0;right=0;align=left;spacingLeft=6;overflow=hidden;strokeColor=#FFFFFF;fontColor=#FFFFFF;" vertex="1" parent="O6YI9wrZHvGKkqHvLnah-45">
          <mxGeometry x="30" width="274.5" height="30" as="geometry">
            <mxRectangle width="274.5" height="30" as="alternateBounds" />
          </mxGeometry>
        </mxCell>
        <mxCell id="O6YI9wrZHvGKkqHvLnah-41" value="" style="shape=tableRow;horizontal=0;startSize=0;swimlaneHead=0;swimlaneBody=0;fillColor=none;collapsible=0;dropTarget=0;points=[[0,0.5],[1,0.5]];portConstraint=eastwest;top=0;left=0;right=0;bottom=0;strokeColor=#FFFFFF;fontColor=#FFFFFF;" vertex="1" parent="O6YI9wrZHvGKkqHvLnah-14">
          <mxGeometry y="150" width="304.5" height="30" as="geometry" />
        </mxCell>
        <mxCell id="O6YI9wrZHvGKkqHvLnah-42" value="" style="shape=partialRectangle;connectable=0;fillColor=none;top=0;left=0;bottom=0;right=0;editable=1;overflow=hidden;strokeColor=#FFFFFF;fontColor=#FFFFFF;" vertex="1" parent="O6YI9wrZHvGKkqHvLnah-41">
          <mxGeometry width="30" height="30" as="geometry">
            <mxRectangle width="30" height="30" as="alternateBounds" />
          </mxGeometry>
        </mxCell>
        <mxCell id="O6YI9wrZHvGKkqHvLnah-43" value="work_State                        VARCHAR(2)" style="shape=partialRectangle;connectable=0;fillColor=none;top=0;left=0;bottom=0;right=0;align=left;spacingLeft=6;overflow=hidden;strokeColor=#FFFFFF;fontColor=#FFFFFF;" vertex="1" parent="O6YI9wrZHvGKkqHvLnah-41">
          <mxGeometry x="30" width="274.5" height="30" as="geometry">
            <mxRectangle width="274.5" height="30" as="alternateBounds" />
          </mxGeometry>
        </mxCell>
        <mxCell id="O6YI9wrZHvGKkqHvLnah-37" value="" style="shape=tableRow;horizontal=0;startSize=0;swimlaneHead=0;swimlaneBody=0;fillColor=none;collapsible=0;dropTarget=0;points=[[0,0.5],[1,0.5]];portConstraint=eastwest;top=0;left=0;right=0;bottom=0;strokeColor=#FFFFFF;fontColor=#FFFFFF;" vertex="1" parent="O6YI9wrZHvGKkqHvLnah-14">
          <mxGeometry y="180" width="304.5" height="30" as="geometry" />
        </mxCell>
        <mxCell id="O6YI9wrZHvGKkqHvLnah-38" value="" style="shape=partialRectangle;connectable=0;fillColor=none;top=0;left=0;bottom=0;right=0;editable=1;overflow=hidden;strokeColor=#FFFFFF;fontColor=#FFFFFF;" vertex="1" parent="O6YI9wrZHvGKkqHvLnah-37">
          <mxGeometry width="30" height="30" as="geometry">
            <mxRectangle width="30" height="30" as="alternateBounds" />
          </mxGeometry>
        </mxCell>
        <mxCell id="O6YI9wrZHvGKkqHvLnah-39" value="work_Country                    VARCHAR(3)" style="shape=partialRectangle;connectable=0;fillColor=none;top=0;left=0;bottom=0;right=0;align=left;spacingLeft=6;overflow=hidden;strokeColor=#FFFFFF;fontColor=#FFFFFF;" vertex="1" parent="O6YI9wrZHvGKkqHvLnah-37">
          <mxGeometry x="30" width="274.5" height="30" as="geometry">
            <mxRectangle width="274.5" height="30" as="alternateBounds" />
          </mxGeometry>
        </mxCell>
        <mxCell id="O6YI9wrZHvGKkqHvLnah-33" value="" style="shape=tableRow;horizontal=0;startSize=0;swimlaneHead=0;swimlaneBody=0;fillColor=none;collapsible=0;dropTarget=0;points=[[0,0.5],[1,0.5]];portConstraint=eastwest;top=0;left=0;right=0;bottom=0;strokeColor=#FFFFFF;fontColor=#FFFFFF;" vertex="1" parent="O6YI9wrZHvGKkqHvLnah-14">
          <mxGeometry y="210" width="304.5" height="30" as="geometry" />
        </mxCell>
        <mxCell id="O6YI9wrZHvGKkqHvLnah-34" value="" style="shape=partialRectangle;connectable=0;fillColor=none;top=0;left=0;bottom=0;right=0;editable=1;overflow=hidden;strokeColor=#FFFFFF;fontColor=#FFFFFF;" vertex="1" parent="O6YI9wrZHvGKkqHvLnah-33">
          <mxGeometry width="30" height="30" as="geometry">
            <mxRectangle width="30" height="30" as="alternateBounds" />
          </mxGeometry>
        </mxCell>
        <mxCell id="O6YI9wrZHvGKkqHvLnah-35" value="Row" style="shape=partialRectangle;connectable=0;fillColor=none;top=0;left=0;bottom=0;right=0;align=left;spacingLeft=6;overflow=hidden;strokeColor=#FFFFFF;fontColor=#FFFFFF;" vertex="1" parent="O6YI9wrZHvGKkqHvLnah-33">
          <mxGeometry x="30" width="274.5" height="30" as="geometry">
            <mxRectangle width="274.5" height="30" as="alternateBounds" />
          </mxGeometry>
        </mxCell>
        <mxCell id="O6YI9wrZHvGKkqHvLnah-18" value="" style="shape=tableRow;horizontal=0;startSize=0;swimlaneHead=0;swimlaneBody=0;fillColor=none;collapsible=0;dropTarget=0;points=[[0,0.5],[1,0.5]];portConstraint=eastwest;top=0;left=0;right=0;bottom=0;strokeColor=#FFFFFF;fontColor=#FFFFFF;" vertex="1" parent="O6YI9wrZHvGKkqHvLnah-14">
          <mxGeometry y="240" width="304.5" height="30" as="geometry" />
        </mxCell>
        <mxCell id="O6YI9wrZHvGKkqHvLnah-19" value="" style="shape=partialRectangle;connectable=0;fillColor=none;top=0;left=0;bottom=0;right=0;editable=1;overflow=hidden;whiteSpace=wrap;html=1;strokeColor=#FFFFFF;fontColor=#FFFFFF;" vertex="1" parent="O6YI9wrZHvGKkqHvLnah-18">
          <mxGeometry width="30" height="30" as="geometry">
            <mxRectangle width="30" height="30" as="alternateBounds" />
          </mxGeometry>
        </mxCell>
        <mxCell id="O6YI9wrZHvGKkqHvLnah-20" value="" style="shape=partialRectangle;connectable=0;fillColor=none;top=0;left=0;bottom=0;right=0;align=left;spacingLeft=6;overflow=hidden;whiteSpace=wrap;html=1;strokeColor=#FFFFFF;fontColor=#FFFFFF;" vertex="1" parent="O6YI9wrZHvGKkqHvLnah-18">
          <mxGeometry x="30" width="274.5" height="30" as="geometry">
            <mxRectangle width="274.5" height="30" as="alternateBounds" />
          </mxGeometry>
        </mxCell>
        <mxCell id="O6YI9wrZHvGKkqHvLnah-48" value="Earning" style="shape=table;startSize=30;container=1;collapsible=1;childLayout=tableLayout;fixedRows=1;rowLines=0;fontStyle=1;align=center;resizeLast=1;labelBackgroundColor=none;fillColor=#182E3E;strokeColor=#FFFFFF;fontColor=#FFFFFF;rounded=1;" vertex="1" parent="1">
          <mxGeometry x="-190" y="760" width="300" height="160" as="geometry" />
        </mxCell>
        <mxCell id="O6YI9wrZHvGKkqHvLnah-49" value="" style="shape=partialRectangle;collapsible=0;dropTarget=0;pointerEvents=0;fillColor=none;points=[[0,0.5],[1,0.5]];portConstraint=eastwest;top=0;left=0;right=0;bottom=1;labelBackgroundColor=none;strokeColor=#FFFFFF;fontColor=#FFFFFF;rounded=1;" vertex="1" parent="O6YI9wrZHvGKkqHvLnah-48">
          <mxGeometry y="30" width="300" height="40" as="geometry" />
        </mxCell>
        <mxCell id="O6YI9wrZHvGKkqHvLnah-50" value="PK" style="shape=partialRectangle;overflow=hidden;connectable=0;fillColor=none;top=0;left=0;bottom=0;right=0;fontStyle=1;labelBackgroundColor=none;strokeColor=#FFFFFF;fontColor=#FFFFFF;rounded=1;" vertex="1" parent="O6YI9wrZHvGKkqHvLnah-49">
          <mxGeometry width="30" height="40" as="geometry">
            <mxRectangle width="30" height="40" as="alternateBounds" />
          </mxGeometry>
        </mxCell>
        <mxCell id="O6YI9wrZHvGKkqHvLnah-51" value="earn_Code             VARCHAR(6) NOT NULL" style="shape=partialRectangle;overflow=hidden;connectable=0;fillColor=none;top=0;left=0;bottom=0;right=0;align=left;spacingLeft=6;fontStyle=1;labelBackgroundColor=none;strokeColor=#FFFFFF;fontColor=#FFFFFF;rounded=1;" vertex="1" parent="O6YI9wrZHvGKkqHvLnah-49">
          <mxGeometry x="30" width="270" height="40" as="geometry">
            <mxRectangle width="270" height="40" as="alternateBounds" />
          </mxGeometry>
        </mxCell>
        <mxCell id="O6YI9wrZHvGKkqHvLnah-87" value="" style="shape=tableRow;horizontal=0;startSize=0;swimlaneHead=0;swimlaneBody=0;fillColor=none;collapsible=0;dropTarget=0;points=[[0,0.5],[1,0.5]];portConstraint=eastwest;top=0;left=0;right=0;bottom=0;strokeColor=#FFFFFF;fontColor=#FFFFFF;" vertex="1" parent="O6YI9wrZHvGKkqHvLnah-48">
          <mxGeometry y="70" width="300" height="30" as="geometry" />
        </mxCell>
        <mxCell id="O6YI9wrZHvGKkqHvLnah-88" value="" style="shape=partialRectangle;connectable=0;fillColor=none;top=0;left=0;bottom=0;right=0;editable=1;overflow=hidden;strokeColor=#FFFFFF;fontColor=#FFFFFF;" vertex="1" parent="O6YI9wrZHvGKkqHvLnah-87">
          <mxGeometry width="30" height="30" as="geometry">
            <mxRectangle width="30" height="30" as="alternateBounds" />
          </mxGeometry>
        </mxCell>
        <mxCell id="O6YI9wrZHvGKkqHvLnah-89" value="earn_Desc                VARHCAR(25) NOT NULL" style="shape=partialRectangle;connectable=0;fillColor=none;top=0;left=0;bottom=0;right=0;align=left;spacingLeft=6;overflow=hidden;strokeColor=#FFFFFF;fontColor=#FFFFFF;" vertex="1" parent="O6YI9wrZHvGKkqHvLnah-87">
          <mxGeometry x="30" width="270" height="30" as="geometry">
            <mxRectangle width="270" height="30" as="alternateBounds" />
          </mxGeometry>
        </mxCell>
        <mxCell id="O6YI9wrZHvGKkqHvLnah-58" value="" style="shape=partialRectangle;collapsible=0;dropTarget=0;pointerEvents=0;fillColor=none;points=[[0,0.5],[1,0.5]];portConstraint=eastwest;top=0;left=0;right=0;bottom=0;labelBackgroundColor=none;strokeColor=#FFFFFF;fontColor=#FFFFFF;rounded=1;" vertex="1" parent="O6YI9wrZHvGKkqHvLnah-48">
          <mxGeometry y="100" width="300" height="30" as="geometry" />
        </mxCell>
        <mxCell id="O6YI9wrZHvGKkqHvLnah-59" value="" style="shape=partialRectangle;overflow=hidden;connectable=0;fillColor=none;top=0;left=0;bottom=0;right=0;labelBackgroundColor=none;strokeColor=#FFFFFF;fontColor=#FFFFFF;rounded=1;" vertex="1" parent="O6YI9wrZHvGKkqHvLnah-58">
          <mxGeometry width="30" height="30" as="geometry">
            <mxRectangle width="30" height="30" as="alternateBounds" />
          </mxGeometry>
        </mxCell>
        <mxCell id="O6YI9wrZHvGKkqHvLnah-60" value="earn_Type                          VARCHAR(6)" style="shape=partialRectangle;overflow=hidden;connectable=0;fillColor=none;top=0;left=0;bottom=0;right=0;align=left;spacingLeft=6;labelBackgroundColor=none;strokeColor=#FFFFFF;fontColor=#FFFFFF;rounded=1;" vertex="1" parent="O6YI9wrZHvGKkqHvLnah-58">
          <mxGeometry x="30" width="270" height="30" as="geometry">
            <mxRectangle width="270" height="30" as="alternateBounds" />
          </mxGeometry>
        </mxCell>
        <mxCell id="O6YI9wrZHvGKkqHvLnah-61" value="" style="shape=partialRectangle;collapsible=0;dropTarget=0;pointerEvents=0;fillColor=none;points=[[0,0.5],[1,0.5]];portConstraint=eastwest;top=0;left=0;right=0;bottom=0;labelBackgroundColor=none;strokeColor=#FFFFFF;fontColor=#FFFFFF;rounded=1;" vertex="1" parent="O6YI9wrZHvGKkqHvLnah-48">
          <mxGeometry y="130" width="300" height="30" as="geometry" />
        </mxCell>
        <mxCell id="O6YI9wrZHvGKkqHvLnah-62" value="" style="shape=partialRectangle;overflow=hidden;connectable=0;fillColor=none;top=0;left=0;bottom=0;right=0;labelBackgroundColor=none;strokeColor=#FFFFFF;fontColor=#FFFFFF;rounded=1;" vertex="1" parent="O6YI9wrZHvGKkqHvLnah-61">
          <mxGeometry width="30" height="30" as="geometry">
            <mxRectangle width="30" height="30" as="alternateBounds" />
          </mxGeometry>
        </mxCell>
        <mxCell id="O6YI9wrZHvGKkqHvLnah-63" value="earn_Tax_category            VARCHAR(6)" style="shape=partialRectangle;overflow=hidden;connectable=0;fillColor=none;top=0;left=0;bottom=0;right=0;align=left;spacingLeft=6;labelBackgroundColor=none;strokeColor=#FFFFFF;fontColor=#FFFFFF;rounded=1;" vertex="1" parent="O6YI9wrZHvGKkqHvLnah-61">
          <mxGeometry x="30" width="270" height="30" as="geometry">
            <mxRectangle width="270" height="30" as="alternateBounds" />
          </mxGeometry>
        </mxCell>
        <mxCell id="O6YI9wrZHvGKkqHvLnah-70" value="Deduction" style="shape=table;startSize=30;container=1;collapsible=1;childLayout=tableLayout;fixedRows=1;rowLines=0;fontStyle=1;align=center;resizeLast=1;labelBackgroundColor=none;fillColor=#182E3E;strokeColor=#FFFFFF;fontColor=#FFFFFF;rounded=1;" vertex="1" parent="1">
          <mxGeometry x="-190" y="960" width="280" height="150" as="geometry" />
        </mxCell>
        <mxCell id="O6YI9wrZHvGKkqHvLnah-71" value="" style="shape=partialRectangle;collapsible=0;dropTarget=0;pointerEvents=0;fillColor=none;points=[[0,0.5],[1,0.5]];portConstraint=eastwest;top=0;left=0;right=0;bottom=1;labelBackgroundColor=none;strokeColor=#FFFFFF;fontColor=#FFFFFF;rounded=1;" vertex="1" parent="O6YI9wrZHvGKkqHvLnah-70">
          <mxGeometry y="30" width="280" height="30" as="geometry" />
        </mxCell>
        <mxCell id="O6YI9wrZHvGKkqHvLnah-72" value="PK" style="shape=partialRectangle;overflow=hidden;connectable=0;fillColor=none;top=0;left=0;bottom=0;right=0;fontStyle=1;labelBackgroundColor=none;strokeColor=#FFFFFF;fontColor=#FFFFFF;rounded=1;" vertex="1" parent="O6YI9wrZHvGKkqHvLnah-71">
          <mxGeometry width="30" height="30" as="geometry">
            <mxRectangle width="30" height="30" as="alternateBounds" />
          </mxGeometry>
        </mxCell>
        <mxCell id="O6YI9wrZHvGKkqHvLnah-73" value="ded_Code                          VARCHAR(6)" style="shape=partialRectangle;overflow=hidden;connectable=0;fillColor=none;top=0;left=0;bottom=0;right=0;align=left;spacingLeft=6;fontStyle=1;labelBackgroundColor=none;strokeColor=#FFFFFF;fontColor=#FFFFFF;rounded=1;" vertex="1" parent="O6YI9wrZHvGKkqHvLnah-71">
          <mxGeometry x="30" width="250" height="30" as="geometry">
            <mxRectangle width="250" height="30" as="alternateBounds" />
          </mxGeometry>
        </mxCell>
        <mxCell id="O6YI9wrZHvGKkqHvLnah-77" value="" style="shape=tableRow;horizontal=0;startSize=0;swimlaneHead=0;swimlaneBody=0;fillColor=none;collapsible=0;dropTarget=0;points=[[0,0.5],[1,0.5]];portConstraint=eastwest;top=0;left=0;right=0;bottom=0;fontFamily=Helvetica;fontSize=12;fontColor=#FFFFFF;labelBackgroundColor=none;strokeColor=#FFFFFF;rounded=1;" vertex="1" parent="O6YI9wrZHvGKkqHvLnah-70">
          <mxGeometry y="60" width="280" height="30" as="geometry" />
        </mxCell>
        <mxCell id="O6YI9wrZHvGKkqHvLnah-78" value="FK2" style="shape=partialRectangle;connectable=0;fillColor=none;top=0;left=0;bottom=0;right=0;editable=1;overflow=hidden;fontFamily=Helvetica;fontSize=12;fontColor=#FFFFFF;labelBackgroundColor=none;strokeColor=#FFFFFF;rounded=1;" vertex="1" parent="O6YI9wrZHvGKkqHvLnah-77">
          <mxGeometry width="30" height="30" as="geometry">
            <mxRectangle width="30" height="30" as="alternateBounds" />
          </mxGeometry>
        </mxCell>
        <mxCell id="O6YI9wrZHvGKkqHvLnah-79" value="ded_Desc                           VARCHAR(25)" style="shape=partialRectangle;connectable=0;fillColor=none;top=0;left=0;bottom=0;right=0;align=left;spacingLeft=6;overflow=hidden;fontFamily=Helvetica;fontSize=12;fontColor=#FFFFFF;labelBackgroundColor=none;strokeColor=#FFFFFF;rounded=1;" vertex="1" parent="O6YI9wrZHvGKkqHvLnah-77">
          <mxGeometry x="30" width="250" height="30" as="geometry">
            <mxRectangle width="250" height="30" as="alternateBounds" />
          </mxGeometry>
        </mxCell>
        <mxCell id="O6YI9wrZHvGKkqHvLnah-91" value="" style="shape=tableRow;horizontal=0;startSize=0;swimlaneHead=0;swimlaneBody=0;fillColor=none;collapsible=0;dropTarget=0;points=[[0,0.5],[1,0.5]];portConstraint=eastwest;top=0;left=0;right=0;bottom=0;strokeColor=#FFFFFF;fontColor=#FFFFFF;" vertex="1" parent="O6YI9wrZHvGKkqHvLnah-70">
          <mxGeometry y="90" width="280" height="30" as="geometry" />
        </mxCell>
        <mxCell id="O6YI9wrZHvGKkqHvLnah-92" value="" style="shape=partialRectangle;connectable=0;fillColor=none;top=0;left=0;bottom=0;right=0;editable=1;overflow=hidden;strokeColor=#FFFFFF;fontColor=#FFFFFF;" vertex="1" parent="O6YI9wrZHvGKkqHvLnah-91">
          <mxGeometry width="30" height="30" as="geometry">
            <mxRectangle width="30" height="30" as="alternateBounds" />
          </mxGeometry>
        </mxCell>
        <mxCell id="O6YI9wrZHvGKkqHvLnah-93" value="ded_Type                         VARCHAR(6)" style="shape=partialRectangle;connectable=0;fillColor=none;top=0;left=0;bottom=0;right=0;align=left;spacingLeft=6;overflow=hidden;strokeColor=#FFFFFF;fontColor=#FFFFFF;" vertex="1" parent="O6YI9wrZHvGKkqHvLnah-91">
          <mxGeometry x="30" width="250" height="30" as="geometry">
            <mxRectangle width="250" height="30" as="alternateBounds" />
          </mxGeometry>
        </mxCell>
        <mxCell id="O6YI9wrZHvGKkqHvLnah-80" value="" style="shape=partialRectangle;collapsible=0;dropTarget=0;pointerEvents=0;fillColor=none;points=[[0,0.5],[1,0.5]];portConstraint=eastwest;top=0;left=0;right=0;bottom=0;labelBackgroundColor=none;strokeColor=#FFFFFF;fontColor=#FFFFFF;rounded=1;" vertex="1" parent="O6YI9wrZHvGKkqHvLnah-70">
          <mxGeometry y="120" width="280" height="30" as="geometry" />
        </mxCell>
        <mxCell id="O6YI9wrZHvGKkqHvLnah-81" value="" style="shape=partialRectangle;overflow=hidden;connectable=0;fillColor=none;top=0;left=0;bottom=0;right=0;labelBackgroundColor=none;strokeColor=#FFFFFF;fontColor=#FFFFFF;rounded=1;" vertex="1" parent="O6YI9wrZHvGKkqHvLnah-80">
          <mxGeometry width="30" height="30" as="geometry">
            <mxRectangle width="30" height="30" as="alternateBounds" />
          </mxGeometry>
        </mxCell>
        <mxCell id="O6YI9wrZHvGKkqHvLnah-82" value="ded_Tax_Category           VARCHAR(6)" style="shape=partialRectangle;overflow=hidden;connectable=0;fillColor=none;top=0;left=0;bottom=0;right=0;align=left;spacingLeft=6;labelBackgroundColor=none;strokeColor=#FFFFFF;fontColor=#FFFFFF;rounded=1;" vertex="1" parent="O6YI9wrZHvGKkqHvLnah-80">
          <mxGeometry x="30" width="250" height="30" as="geometry">
            <mxRectangle width="250" height="30" as="alternateBounds" />
          </mxGeometry>
        </mxCell>
        <mxCell id="O6YI9wrZHvGKkqHvLnah-94" value="Pay_Group" style="shape=table;startSize=30;container=1;collapsible=1;childLayout=tableLayout;fixedRows=1;rowLines=0;fontStyle=1;align=center;resizeLast=1;html=1;labelBackgroundColor=none;fillColor=#182E3E;strokeColor=#FFFFFF;fontColor=#FFFFFF;rounded=1;" vertex="1" parent="1">
          <mxGeometry x="-190" y="1157.5" width="275.5" height="180" as="geometry" />
        </mxCell>
        <mxCell id="O6YI9wrZHvGKkqHvLnah-95" value="" style="shape=tableRow;horizontal=0;startSize=0;swimlaneHead=0;swimlaneBody=0;fillColor=none;collapsible=0;dropTarget=0;points=[[0,0.5],[1,0.5]];portConstraint=eastwest;top=0;left=0;right=0;bottom=1;labelBackgroundColor=none;strokeColor=#FFFFFF;fontColor=#FFFFFF;rounded=1;" vertex="1" parent="O6YI9wrZHvGKkqHvLnah-94">
          <mxGeometry y="30" width="275.5" height="30" as="geometry" />
        </mxCell>
        <mxCell id="O6YI9wrZHvGKkqHvLnah-96" value="PK" style="shape=partialRectangle;connectable=0;fillColor=none;top=0;left=0;bottom=0;right=0;fontStyle=1;overflow=hidden;whiteSpace=wrap;html=1;labelBackgroundColor=none;strokeColor=#FFFFFF;fontColor=#FFFFFF;rounded=1;" vertex="1" parent="O6YI9wrZHvGKkqHvLnah-95">
          <mxGeometry width="30" height="30" as="geometry">
            <mxRectangle width="30" height="30" as="alternateBounds" />
          </mxGeometry>
        </mxCell>
        <mxCell id="O6YI9wrZHvGKkqHvLnah-97" value="pay_Group_Code" style="shape=partialRectangle;connectable=0;fillColor=none;top=0;left=0;bottom=0;right=0;align=left;spacingLeft=6;fontStyle=5;overflow=hidden;whiteSpace=wrap;html=1;labelBackgroundColor=none;strokeColor=#FFFFFF;fontColor=#FFFFFF;rounded=1;" vertex="1" parent="O6YI9wrZHvGKkqHvLnah-95">
          <mxGeometry x="30" width="245.5" height="30" as="geometry">
            <mxRectangle width="245.5" height="30" as="alternateBounds" />
          </mxGeometry>
        </mxCell>
        <mxCell id="O6YI9wrZHvGKkqHvLnah-98" value="" style="shape=tableRow;horizontal=0;startSize=0;swimlaneHead=0;swimlaneBody=0;fillColor=none;collapsible=0;dropTarget=0;points=[[0,0.5],[1,0.5]];portConstraint=eastwest;top=0;left=0;right=0;bottom=0;labelBackgroundColor=none;strokeColor=#FFFFFF;fontColor=#FFFFFF;rounded=1;" vertex="1" parent="O6YI9wrZHvGKkqHvLnah-94">
          <mxGeometry y="60" width="275.5" height="30" as="geometry" />
        </mxCell>
        <mxCell id="O6YI9wrZHvGKkqHvLnah-99" value="" style="shape=partialRectangle;connectable=0;fillColor=none;top=0;left=0;bottom=0;right=0;editable=1;overflow=hidden;whiteSpace=wrap;html=1;labelBackgroundColor=none;strokeColor=#FFFFFF;fontColor=#FFFFFF;rounded=1;" vertex="1" parent="O6YI9wrZHvGKkqHvLnah-98">
          <mxGeometry width="30" height="30" as="geometry">
            <mxRectangle width="30" height="30" as="alternateBounds" />
          </mxGeometry>
        </mxCell>
        <mxCell id="O6YI9wrZHvGKkqHvLnah-100" value="pay_Frecquency&lt;span style=&quot;white-space: pre;&quot;&gt;&#x9;&lt;/span&gt;&lt;span style=&quot;white-space: pre;&quot;&gt;&#x9;&lt;/span&gt;VARCHAR(3)" style="shape=partialRectangle;connectable=0;fillColor=none;top=0;left=0;bottom=0;right=0;align=left;spacingLeft=6;overflow=hidden;whiteSpace=wrap;html=1;labelBackgroundColor=none;strokeColor=#FFFFFF;fontColor=#FFFFFF;rounded=1;" vertex="1" parent="O6YI9wrZHvGKkqHvLnah-98">
          <mxGeometry x="30" width="245.5" height="30" as="geometry">
            <mxRectangle width="245.5" height="30" as="alternateBounds" />
          </mxGeometry>
        </mxCell>
        <mxCell id="O6YI9wrZHvGKkqHvLnah-101" value="" style="shape=tableRow;horizontal=0;startSize=0;swimlaneHead=0;swimlaneBody=0;fillColor=none;collapsible=0;dropTarget=0;points=[[0,0.5],[1,0.5]];portConstraint=eastwest;top=0;left=0;right=0;bottom=0;labelBackgroundColor=none;strokeColor=#FFFFFF;fontColor=#FFFFFF;rounded=1;" vertex="1" parent="O6YI9wrZHvGKkqHvLnah-94">
          <mxGeometry y="90" width="275.5" height="30" as="geometry" />
        </mxCell>
        <mxCell id="O6YI9wrZHvGKkqHvLnah-102" value="" style="shape=partialRectangle;connectable=0;fillColor=none;top=0;left=0;bottom=0;right=0;editable=1;overflow=hidden;whiteSpace=wrap;html=1;labelBackgroundColor=none;strokeColor=#FFFFFF;fontColor=#FFFFFF;rounded=1;" vertex="1" parent="O6YI9wrZHvGKkqHvLnah-101">
          <mxGeometry width="30" height="30" as="geometry">
            <mxRectangle width="30" height="30" as="alternateBounds" />
          </mxGeometry>
        </mxCell>
        <mxCell id="O6YI9wrZHvGKkqHvLnah-103" value="pay_Tax_ID&lt;span style=&quot;white-space: pre;&quot;&gt;&#x9;&lt;/span&gt;&lt;span style=&quot;white-space: pre;&quot;&gt;&#x9;&lt;/span&gt;&lt;span style=&quot;white-space: pre;&quot;&gt;&#x9;&lt;/span&gt;&amp;nbsp;VARCHAR(10)" style="shape=partialRectangle;connectable=0;fillColor=none;top=0;left=0;bottom=0;right=0;align=left;spacingLeft=6;overflow=hidden;whiteSpace=wrap;html=1;labelBackgroundColor=none;strokeColor=#FFFFFF;fontColor=#FFFFFF;rounded=1;" vertex="1" parent="O6YI9wrZHvGKkqHvLnah-101">
          <mxGeometry x="30" width="245.5" height="30" as="geometry">
            <mxRectangle width="245.5" height="30" as="alternateBounds" />
          </mxGeometry>
        </mxCell>
        <mxCell id="O6YI9wrZHvGKkqHvLnah-104" value="" style="shape=tableRow;horizontal=0;startSize=0;swimlaneHead=0;swimlaneBody=0;fillColor=none;collapsible=0;dropTarget=0;points=[[0,0.5],[1,0.5]];portConstraint=eastwest;top=0;left=0;right=0;bottom=0;fontFamily=Helvetica;fontSize=12;fontColor=#FFFFFF;labelBackgroundColor=none;strokeColor=#FFFFFF;rounded=1;" vertex="1" parent="O6YI9wrZHvGKkqHvLnah-94">
          <mxGeometry y="120" width="275.5" height="30" as="geometry" />
        </mxCell>
        <mxCell id="O6YI9wrZHvGKkqHvLnah-105" value="        " style="shape=partialRectangle;connectable=0;fillColor=none;top=0;left=0;bottom=0;right=0;editable=1;overflow=hidden;fontFamily=Helvetica;fontSize=12;fontColor=#FFFFFF;labelBackgroundColor=none;strokeColor=#FFFFFF;rounded=1;" vertex="1" parent="O6YI9wrZHvGKkqHvLnah-104">
          <mxGeometry width="30" height="30" as="geometry">
            <mxRectangle width="30" height="30" as="alternateBounds" />
          </mxGeometry>
        </mxCell>
        <mxCell id="O6YI9wrZHvGKkqHvLnah-106" value="pay_Schedule                 VARCHAR(6)" style="shape=partialRectangle;connectable=0;fillColor=none;top=0;left=0;bottom=0;right=0;align=left;spacingLeft=6;overflow=hidden;fontFamily=Helvetica;fontSize=12;fontColor=#FFFFFF;labelBackgroundColor=none;strokeColor=#FFFFFF;rounded=1;" vertex="1" parent="O6YI9wrZHvGKkqHvLnah-104">
          <mxGeometry x="30" width="245.5" height="30" as="geometry">
            <mxRectangle width="245.5" height="30" as="alternateBounds" />
          </mxGeometry>
        </mxCell>
        <mxCell id="O6YI9wrZHvGKkqHvLnah-110" value="" style="shape=tableRow;horizontal=0;startSize=0;swimlaneHead=0;swimlaneBody=0;fillColor=none;collapsible=0;dropTarget=0;points=[[0,0.5],[1,0.5]];portConstraint=eastwest;top=0;left=0;right=0;bottom=0;fontFamily=Helvetica;fontSize=12;fontColor=#FFFFFF;labelBackgroundColor=none;strokeColor=#FFFFFF;rounded=1;" vertex="1" parent="O6YI9wrZHvGKkqHvLnah-94">
          <mxGeometry y="150" width="275.5" height="30" as="geometry" />
        </mxCell>
        <mxCell id="O6YI9wrZHvGKkqHvLnah-111" value="" style="shape=partialRectangle;connectable=0;fillColor=none;top=0;left=0;bottom=0;right=0;editable=1;overflow=hidden;fontFamily=Helvetica;fontSize=12;fontColor=#FFFFFF;labelBackgroundColor=none;strokeColor=#FFFFFF;rounded=1;" vertex="1" parent="O6YI9wrZHvGKkqHvLnah-110">
          <mxGeometry width="30" height="30" as="geometry">
            <mxRectangle width="30" height="30" as="alternateBounds" />
          </mxGeometry>
        </mxCell>
        <mxCell id="O6YI9wrZHvGKkqHvLnah-112" value="" style="shape=partialRectangle;connectable=0;fillColor=none;top=0;left=0;bottom=0;right=0;align=left;spacingLeft=6;overflow=hidden;fontFamily=Helvetica;fontSize=12;fontColor=#FFFFFF;labelBackgroundColor=none;strokeColor=#FFFFFF;rounded=1;" vertex="1" parent="O6YI9wrZHvGKkqHvLnah-110">
          <mxGeometry x="30" width="245.5" height="30" as="geometry">
            <mxRectangle width="245.5" height="30" as="alternateBounds" />
          </mxGeometry>
        </mxCell>
        <mxCell id="O6YI9wrZHvGKkqHvLnah-113" value="Employee_Earn_Ded" style="shape=table;startSize=30;container=1;collapsible=1;childLayout=tableLayout;fixedRows=1;rowLines=0;fontStyle=1;align=center;resizeLast=1;html=1;movable=1;resizable=1;rotatable=1;deletable=1;editable=1;locked=0;connectable=1;labelBackgroundColor=none;fillColor=#182E3E;strokeColor=#FFFFFF;fontColor=#FFFFFF;rounded=1;" vertex="1" parent="1">
          <mxGeometry x="170" y="960" width="309" height="360" as="geometry" />
        </mxCell>
        <mxCell id="O6YI9wrZHvGKkqHvLnah-114" value="" style="shape=tableRow;horizontal=0;startSize=0;swimlaneHead=0;swimlaneBody=0;fillColor=none;collapsible=0;dropTarget=0;points=[[0,0.5],[1,0.5]];portConstraint=eastwest;top=0;left=0;right=0;bottom=1;labelBackgroundColor=none;strokeColor=#FFFFFF;fontColor=#FFFFFF;rounded=1;" vertex="1" parent="O6YI9wrZHvGKkqHvLnah-113">
          <mxGeometry y="30" width="309" height="30" as="geometry" />
        </mxCell>
        <mxCell id="O6YI9wrZHvGKkqHvLnah-115" value="PK" style="shape=partialRectangle;connectable=0;fillColor=none;top=0;left=0;bottom=0;right=0;fontStyle=1;overflow=hidden;whiteSpace=wrap;html=1;labelBackgroundColor=none;strokeColor=#FFFFFF;fontColor=#FFFFFF;rounded=1;" vertex="1" parent="O6YI9wrZHvGKkqHvLnah-114">
          <mxGeometry width="30" height="30" as="geometry">
            <mxRectangle width="30" height="30" as="alternateBounds" />
          </mxGeometry>
        </mxCell>
        <mxCell id="O6YI9wrZHvGKkqHvLnah-116" value="auditKey&lt;span style=&quot;white-space: pre;&quot;&gt;&#x9;&lt;span style=&quot;white-space: pre;&quot;&gt;&#x9;&lt;/span&gt;&lt;span style=&quot;white-space: pre;&quot;&gt;&#x9;&lt;/span&gt;&lt;span style=&quot;white-space: pre;&quot;&gt;&#x9;&lt;/span&gt;&lt;/span&gt;VARCHAR(6)" style="shape=partialRectangle;connectable=0;fillColor=none;top=0;left=0;bottom=0;right=0;align=left;spacingLeft=6;fontStyle=5;overflow=hidden;whiteSpace=wrap;html=1;labelBackgroundColor=none;strokeColor=#FFFFFF;fontColor=#FFFFFF;rounded=1;" vertex="1" parent="O6YI9wrZHvGKkqHvLnah-114">
          <mxGeometry x="30" width="279" height="30" as="geometry">
            <mxRectangle width="279" height="30" as="alternateBounds" />
          </mxGeometry>
        </mxCell>
        <mxCell id="O6YI9wrZHvGKkqHvLnah-117" value="" style="shape=tableRow;horizontal=0;startSize=0;swimlaneHead=0;swimlaneBody=0;fillColor=none;collapsible=0;dropTarget=0;points=[[0,0.5],[1,0.5]];portConstraint=eastwest;top=0;left=0;right=0;bottom=0;labelBackgroundColor=none;strokeColor=#FFFFFF;fontColor=#FFFFFF;rounded=1;" vertex="1" parent="O6YI9wrZHvGKkqHvLnah-113">
          <mxGeometry y="60" width="309" height="30" as="geometry" />
        </mxCell>
        <mxCell id="O6YI9wrZHvGKkqHvLnah-118" value="FK" style="shape=partialRectangle;connectable=0;fillColor=none;top=0;left=0;bottom=0;right=0;editable=1;overflow=hidden;whiteSpace=wrap;html=1;labelBackgroundColor=none;strokeColor=#FFFFFF;fontColor=#FFFFFF;rounded=1;" vertex="1" parent="O6YI9wrZHvGKkqHvLnah-117">
          <mxGeometry width="30" height="30" as="geometry">
            <mxRectangle width="30" height="30" as="alternateBounds" />
          </mxGeometry>
        </mxCell>
        <mxCell id="O6YI9wrZHvGKkqHvLnah-119" value="EEID&lt;span style=&quot;white-space: pre;&quot;&gt;&#x9;&lt;/span&gt;&lt;span style=&quot;white-space: pre;&quot;&gt;&#x9;&lt;/span&gt;&lt;span style=&quot;white-space: pre;&quot;&gt;&#x9;&lt;span style=&quot;white-space: pre;&quot;&gt;&#x9;&lt;/span&gt;V&lt;/span&gt;ARCHAR(15)" style="shape=partialRectangle;connectable=0;fillColor=none;top=0;left=0;bottom=0;right=0;align=left;spacingLeft=6;overflow=hidden;whiteSpace=wrap;html=1;labelBackgroundColor=none;strokeColor=#FFFFFF;fontColor=#FFFFFF;rounded=1;" vertex="1" parent="O6YI9wrZHvGKkqHvLnah-117">
          <mxGeometry x="30" width="279" height="30" as="geometry">
            <mxRectangle width="279" height="30" as="alternateBounds" />
          </mxGeometry>
        </mxCell>
        <mxCell id="O6YI9wrZHvGKkqHvLnah-120" value="" style="shape=tableRow;horizontal=0;startSize=0;swimlaneHead=0;swimlaneBody=0;fillColor=none;collapsible=0;dropTarget=0;points=[[0,0.5],[1,0.5]];portConstraint=eastwest;top=0;left=0;right=0;bottom=0;labelBackgroundColor=none;strokeColor=#FFFFFF;fontColor=#FFFFFF;rounded=1;" vertex="1" parent="O6YI9wrZHvGKkqHvLnah-113">
          <mxGeometry y="90" width="309" height="30" as="geometry" />
        </mxCell>
        <mxCell id="O6YI9wrZHvGKkqHvLnah-121" value="FK" style="shape=partialRectangle;connectable=0;fillColor=none;top=0;left=0;bottom=0;right=0;editable=1;overflow=hidden;whiteSpace=wrap;html=1;labelBackgroundColor=none;strokeColor=#FFFFFF;fontColor=#FFFFFF;rounded=1;" vertex="1" parent="O6YI9wrZHvGKkqHvLnah-120">
          <mxGeometry width="30" height="30" as="geometry">
            <mxRectangle width="30" height="30" as="alternateBounds" />
          </mxGeometry>
        </mxCell>
        <mxCell id="O6YI9wrZHvGKkqHvLnah-122" value="ded_Code&lt;span style=&quot;white-space: pre;&quot;&gt;&#x9;&lt;/span&gt;&lt;span style=&quot;white-space: pre;&quot;&gt;&#x9;&lt;/span&gt;&lt;span style=&quot;white-space: pre;&quot;&gt;&#x9;&lt;/span&gt;VARCHAR(6)" style="shape=partialRectangle;connectable=0;fillColor=none;top=0;left=0;bottom=0;right=0;align=left;spacingLeft=6;overflow=hidden;whiteSpace=wrap;html=1;labelBackgroundColor=none;strokeColor=#FFFFFF;fontColor=#FFFFFF;rounded=1;" vertex="1" parent="O6YI9wrZHvGKkqHvLnah-120">
          <mxGeometry x="30" width="279" height="30" as="geometry">
            <mxRectangle width="279" height="30" as="alternateBounds" />
          </mxGeometry>
        </mxCell>
        <mxCell id="O6YI9wrZHvGKkqHvLnah-132" value="" style="shape=tableRow;horizontal=0;startSize=0;swimlaneHead=0;swimlaneBody=0;fillColor=none;collapsible=0;dropTarget=0;points=[[0,0.5],[1,0.5]];portConstraint=eastwest;top=0;left=0;right=0;bottom=0;strokeColor=#FFFFFF;fontColor=#FFFFFF;" vertex="1" parent="O6YI9wrZHvGKkqHvLnah-113">
          <mxGeometry y="120" width="309" height="30" as="geometry" />
        </mxCell>
        <mxCell id="O6YI9wrZHvGKkqHvLnah-133" value="" style="shape=partialRectangle;connectable=0;fillColor=none;top=0;left=0;bottom=0;right=0;editable=1;overflow=hidden;strokeColor=#FFFFFF;fontColor=#FFFFFF;" vertex="1" parent="O6YI9wrZHvGKkqHvLnah-132">
          <mxGeometry width="30" height="30" as="geometry">
            <mxRectangle width="30" height="30" as="alternateBounds" />
          </mxGeometry>
        </mxCell>
        <mxCell id="O6YI9wrZHvGKkqHvLnah-134" value="earn_Code                     VARCHAR(6)" style="shape=partialRectangle;connectable=0;fillColor=none;top=0;left=0;bottom=0;right=0;align=left;spacingLeft=6;overflow=hidden;strokeColor=#FFFFFF;fontColor=#FFFFFF;" vertex="1" parent="O6YI9wrZHvGKkqHvLnah-132">
          <mxGeometry x="30" width="279" height="30" as="geometry">
            <mxRectangle width="279" height="30" as="alternateBounds" />
          </mxGeometry>
        </mxCell>
        <mxCell id="O6YI9wrZHvGKkqHvLnah-123" value="" style="shape=tableRow;horizontal=0;startSize=0;swimlaneHead=0;swimlaneBody=0;fillColor=none;collapsible=0;dropTarget=0;points=[[0,0.5],[1,0.5]];portConstraint=eastwest;top=0;left=0;right=0;bottom=0;strokeColor=#FFFFFF;fontColor=#FFFFFF;" vertex="1" parent="O6YI9wrZHvGKkqHvLnah-113">
          <mxGeometry y="150" width="309" height="30" as="geometry" />
        </mxCell>
        <mxCell id="O6YI9wrZHvGKkqHvLnah-124" value="" style="shape=partialRectangle;connectable=0;fillColor=none;top=0;left=0;bottom=0;right=0;editable=1;overflow=hidden;strokeColor=#FFFFFF;fontColor=#FFFFFF;" vertex="1" parent="O6YI9wrZHvGKkqHvLnah-123">
          <mxGeometry width="30" height="30" as="geometry">
            <mxRectangle width="30" height="30" as="alternateBounds" />
          </mxGeometry>
        </mxCell>
        <mxCell id="O6YI9wrZHvGKkqHvLnah-125" value="stat_Date                         DATE NOT NULL" style="shape=partialRectangle;connectable=0;fillColor=none;top=0;left=0;bottom=0;right=0;align=left;spacingLeft=6;overflow=hidden;strokeColor=#FFFFFF;fontColor=#FFFFFF;" vertex="1" parent="O6YI9wrZHvGKkqHvLnah-123">
          <mxGeometry x="30" width="279" height="30" as="geometry">
            <mxRectangle width="279" height="30" as="alternateBounds" />
          </mxGeometry>
        </mxCell>
        <mxCell id="O6YI9wrZHvGKkqHvLnah-126" value="" style="shape=tableRow;horizontal=0;startSize=0;swimlaneHead=0;swimlaneBody=0;fillColor=none;collapsible=0;dropTarget=0;points=[[0,0.5],[1,0.5]];portConstraint=eastwest;top=0;left=0;right=0;bottom=0;labelBackgroundColor=none;strokeColor=#FFFFFF;fontColor=#FFFFFF;rounded=1;" vertex="1" parent="O6YI9wrZHvGKkqHvLnah-113">
          <mxGeometry y="180" width="309" height="30" as="geometry" />
        </mxCell>
        <mxCell id="O6YI9wrZHvGKkqHvLnah-127" value="" style="shape=partialRectangle;connectable=0;fillColor=none;top=0;left=0;bottom=0;right=0;editable=1;overflow=hidden;whiteSpace=wrap;html=1;labelBackgroundColor=none;strokeColor=#FFFFFF;fontColor=#FFFFFF;rounded=1;" vertex="1" parent="O6YI9wrZHvGKkqHvLnah-126">
          <mxGeometry width="30" height="30" as="geometry">
            <mxRectangle width="30" height="30" as="alternateBounds" />
          </mxGeometry>
        </mxCell>
        <mxCell id="O6YI9wrZHvGKkqHvLnah-128" value="end_Date&lt;span style=&quot;white-space: pre;&quot;&gt;&#x9;&lt;/span&gt;&lt;span style=&quot;white-space: pre;&quot;&gt;&#x9;&lt;/span&gt;&lt;span style=&quot;white-space: pre;&quot;&gt;&#x9;&lt;/span&gt;DATE NULL" style="shape=partialRectangle;connectable=0;fillColor=none;top=0;left=0;bottom=0;right=0;align=left;spacingLeft=6;overflow=hidden;whiteSpace=wrap;html=1;labelBackgroundColor=none;strokeColor=#FFFFFF;fontColor=#FFFFFF;rounded=1;" vertex="1" parent="O6YI9wrZHvGKkqHvLnah-126">
          <mxGeometry x="30" width="279" height="30" as="geometry">
            <mxRectangle width="279" height="30" as="alternateBounds" />
          </mxGeometry>
        </mxCell>
        <mxCell id="O6YI9wrZHvGKkqHvLnah-129" value="" style="shape=tableRow;horizontal=0;startSize=0;swimlaneHead=0;swimlaneBody=0;fillColor=none;collapsible=0;dropTarget=0;points=[[0,0.5],[1,0.5]];portConstraint=eastwest;top=0;left=0;right=0;bottom=0;strokeColor=#FFFFFF;fontColor=#FFFFFF;" vertex="1" parent="O6YI9wrZHvGKkqHvLnah-113">
          <mxGeometry y="210" width="309" height="30" as="geometry" />
        </mxCell>
        <mxCell id="O6YI9wrZHvGKkqHvLnah-130" value="" style="shape=partialRectangle;connectable=0;fillColor=none;top=0;left=0;bottom=0;right=0;editable=1;overflow=hidden;strokeColor=#FFFFFF;fontColor=#FFFFFF;" vertex="1" parent="O6YI9wrZHvGKkqHvLnah-129">
          <mxGeometry width="30" height="30" as="geometry">
            <mxRectangle width="30" height="30" as="alternateBounds" />
          </mxGeometry>
        </mxCell>
        <mxCell id="O6YI9wrZHvGKkqHvLnah-131" value="calc_Amt                        MONEY NOT NULL" style="shape=partialRectangle;connectable=0;fillColor=none;top=0;left=0;bottom=0;right=0;align=left;spacingLeft=6;overflow=hidden;strokeColor=#FFFFFF;fontColor=#FFFFFF;" vertex="1" parent="O6YI9wrZHvGKkqHvLnah-129">
          <mxGeometry x="30" width="279" height="30" as="geometry">
            <mxRectangle width="279" height="30" as="alternateBounds" />
          </mxGeometry>
        </mxCell>
        <mxCell id="O6YI9wrZHvGKkqHvLnah-135" value="" style="shape=tableRow;horizontal=0;startSize=0;swimlaneHead=0;swimlaneBody=0;fillColor=none;collapsible=0;dropTarget=0;points=[[0,0.5],[1,0.5]];portConstraint=eastwest;top=0;left=0;right=0;bottom=0;strokeColor=#FFFFFF;fontColor=#FFFFFF;" vertex="1" parent="O6YI9wrZHvGKkqHvLnah-113">
          <mxGeometry y="240" width="309" height="30" as="geometry" />
        </mxCell>
        <mxCell id="O6YI9wrZHvGKkqHvLnah-136" value="" style="shape=partialRectangle;connectable=0;fillColor=none;top=0;left=0;bottom=0;right=0;editable=1;overflow=hidden;strokeColor=#FFFFFF;fontColor=#FFFFFF;" vertex="1" parent="O6YI9wrZHvGKkqHvLnah-135">
          <mxGeometry width="30" height="30" as="geometry">
            <mxRectangle width="30" height="30" as="alternateBounds" />
          </mxGeometry>
        </mxCell>
        <mxCell id="O6YI9wrZHvGKkqHvLnah-137" value="emp_City                       VARCHAR(25)" style="shape=partialRectangle;connectable=0;fillColor=none;top=0;left=0;bottom=0;right=0;align=left;spacingLeft=6;overflow=hidden;strokeColor=#FFFFFF;fontColor=#FFFFFF;" vertex="1" parent="O6YI9wrZHvGKkqHvLnah-135">
          <mxGeometry x="30" width="279" height="30" as="geometry">
            <mxRectangle width="279" height="30" as="alternateBounds" />
          </mxGeometry>
        </mxCell>
        <mxCell id="O6YI9wrZHvGKkqHvLnah-138" value="" style="shape=tableRow;horizontal=0;startSize=0;swimlaneHead=0;swimlaneBody=0;fillColor=none;collapsible=0;dropTarget=0;points=[[0,0.5],[1,0.5]];portConstraint=eastwest;top=0;left=0;right=0;bottom=0;strokeColor=#FFFFFF;fontColor=#FFFFFF;" vertex="1" parent="O6YI9wrZHvGKkqHvLnah-113">
          <mxGeometry y="270" width="309" height="30" as="geometry" />
        </mxCell>
        <mxCell id="O6YI9wrZHvGKkqHvLnah-139" value="" style="shape=partialRectangle;connectable=0;fillColor=none;top=0;left=0;bottom=0;right=0;editable=1;overflow=hidden;strokeColor=#FFFFFF;fontColor=#FFFFFF;" vertex="1" parent="O6YI9wrZHvGKkqHvLnah-138">
          <mxGeometry width="30" height="30" as="geometry">
            <mxRectangle width="30" height="30" as="alternateBounds" />
          </mxGeometry>
        </mxCell>
        <mxCell id="O6YI9wrZHvGKkqHvLnah-140" value="emp_Zip_Code      VARCHAR(5)" style="shape=partialRectangle;connectable=0;fillColor=none;top=0;left=0;bottom=0;right=0;align=left;spacingLeft=6;overflow=hidden;strokeColor=#FFFFFF;fontColor=#FFFFFF;" vertex="1" parent="O6YI9wrZHvGKkqHvLnah-138">
          <mxGeometry x="30" width="279" height="30" as="geometry">
            <mxRectangle width="279" height="30" as="alternateBounds" />
          </mxGeometry>
        </mxCell>
        <mxCell id="O6YI9wrZHvGKkqHvLnah-141" value="" style="shape=tableRow;horizontal=0;startSize=0;swimlaneHead=0;swimlaneBody=0;fillColor=none;collapsible=0;dropTarget=0;points=[[0,0.5],[1,0.5]];portConstraint=eastwest;top=0;left=0;right=0;bottom=0;strokeColor=#FFFFFF;fontColor=#FFFFFF;" vertex="1" parent="O6YI9wrZHvGKkqHvLnah-113">
          <mxGeometry y="300" width="309" height="30" as="geometry" />
        </mxCell>
        <mxCell id="O6YI9wrZHvGKkqHvLnah-142" value="" style="shape=partialRectangle;connectable=0;fillColor=none;top=0;left=0;bottom=0;right=0;editable=1;overflow=hidden;strokeColor=#FFFFFF;fontColor=#FFFFFF;" vertex="1" parent="O6YI9wrZHvGKkqHvLnah-141">
          <mxGeometry width="30" height="30" as="geometry">
            <mxRectangle width="30" height="30" as="alternateBounds" />
          </mxGeometry>
        </mxCell>
        <mxCell id="O6YI9wrZHvGKkqHvLnah-143" value="emp_State                VARCHAR(2)" style="shape=partialRectangle;connectable=0;fillColor=none;top=0;left=0;bottom=0;right=0;align=left;spacingLeft=6;overflow=hidden;strokeColor=#FFFFFF;fontColor=#FFFFFF;" vertex="1" parent="O6YI9wrZHvGKkqHvLnah-141">
          <mxGeometry x="30" width="279" height="30" as="geometry">
            <mxRectangle width="279" height="30" as="alternateBounds" />
          </mxGeometry>
        </mxCell>
        <mxCell id="O6YI9wrZHvGKkqHvLnah-144" value="" style="shape=tableRow;horizontal=0;startSize=0;swimlaneHead=0;swimlaneBody=0;fillColor=none;collapsible=0;dropTarget=0;points=[[0,0.5],[1,0.5]];portConstraint=eastwest;top=0;left=0;right=0;bottom=0;strokeColor=#FFFFFF;fontColor=#FFFFFF;" vertex="1" parent="O6YI9wrZHvGKkqHvLnah-113">
          <mxGeometry y="330" width="309" height="30" as="geometry" />
        </mxCell>
        <mxCell id="O6YI9wrZHvGKkqHvLnah-145" value="   " style="shape=partialRectangle;connectable=0;fillColor=none;top=0;left=0;bottom=0;right=0;editable=1;overflow=hidden;strokeColor=#FFFFFF;fontColor=#FFFFFF;" vertex="1" parent="O6YI9wrZHvGKkqHvLnah-144">
          <mxGeometry width="30" height="30" as="geometry">
            <mxRectangle width="30" height="30" as="alternateBounds" />
          </mxGeometry>
        </mxCell>
        <mxCell id="O6YI9wrZHvGKkqHvLnah-146" value="emp_Country            VARCHAR(3)" style="shape=partialRectangle;connectable=0;fillColor=none;top=0;left=0;bottom=0;right=0;align=left;spacingLeft=6;overflow=hidden;strokeColor=#FFFFFF;fontColor=#FFFFFF;" vertex="1" parent="O6YI9wrZHvGKkqHvLnah-144">
          <mxGeometry x="30" width="279" height="30" as="geometry">
            <mxRectangle width="279" height="30" as="alternateBounds" />
          </mxGeometry>
        </mxCell>
      </root>
    </mxGraphModel>
  </diagram>
  <diagram name="Page-1" id="ynXVY5SXccS-CiErboIk">
    <mxGraphModel dx="1687" dy="984" grid="1" gridSize="10" guides="1" tooltips="1" connect="1" arrows="1" fold="1" page="1" pageScale="1" pageWidth="850" pageHeight="1100" math="0" shadow="0">
      <root>
        <mxCell id="0" />
        <mxCell id="1" parent="0" />
        <mxCell id="rn6xQBVTXmwM3agb3QI7-19" value="" style="shape=tableRow;horizontal=0;startSize=0;swimlaneHead=0;swimlaneBody=0;fillColor=none;collapsible=0;dropTarget=0;points=[[0,0.5],[1,0.5]];portConstraint=eastwest;top=0;left=0;right=0;bottom=0;" parent="1" vertex="1">
          <mxGeometry x="60" y="230" width="260" height="70" as="geometry" />
        </mxCell>
        <mxCell id="rn6xQBVTXmwM3agb3QI7-37" value="" style="shape=tableRow;horizontal=0;startSize=0;swimlaneHead=0;swimlaneBody=0;fillColor=none;collapsible=0;dropTarget=0;points=[[0,0.5],[1,0.5]];portConstraint=eastwest;top=0;left=0;right=0;bottom=0;" parent="1" vertex="1">
          <mxGeometry x="70" y="240" width="260" height="30" as="geometry" />
        </mxCell>
        <mxCell id="rn6xQBVTXmwM3agb3QI7-38" value="" style="shape=partialRectangle;connectable=0;fillColor=none;top=0;left=0;bottom=0;right=0;editable=1;overflow=hidden;whiteSpace=wrap;html=1;" parent="rn6xQBVTXmwM3agb3QI7-37" vertex="1">
          <mxGeometry width="30" height="30" as="geometry">
            <mxRectangle width="30" height="30" as="alternateBounds" />
          </mxGeometry>
        </mxCell>
        <mxCell id="rn6xQBVTXmwM3agb3QI7-44" value="EmpPers" style="shape=table;startSize=30;container=1;collapsible=1;childLayout=tableLayout;fixedRows=1;rowLines=0;fontStyle=1;align=center;resizeLast=1;html=1;movable=1;resizable=1;rotatable=1;deletable=1;editable=1;locked=0;connectable=1;" parent="1" vertex="1">
          <mxGeometry x="50" y="160" width="180" height="210" as="geometry" />
        </mxCell>
        <mxCell id="rn6xQBVTXmwM3agb3QI7-45" value="" style="shape=tableRow;horizontal=0;startSize=0;swimlaneHead=0;swimlaneBody=0;fillColor=none;collapsible=0;dropTarget=0;points=[[0,0.5],[1,0.5]];portConstraint=eastwest;top=0;left=0;right=0;bottom=1;" parent="rn6xQBVTXmwM3agb3QI7-44" vertex="1">
          <mxGeometry y="30" width="180" height="30" as="geometry" />
        </mxCell>
        <mxCell id="rn6xQBVTXmwM3agb3QI7-46" value="PK" style="shape=partialRectangle;connectable=0;fillColor=none;top=0;left=0;bottom=0;right=0;fontStyle=1;overflow=hidden;whiteSpace=wrap;html=1;" parent="rn6xQBVTXmwM3agb3QI7-45" vertex="1">
          <mxGeometry width="30" height="30" as="geometry">
            <mxRectangle width="30" height="30" as="alternateBounds" />
          </mxGeometry>
        </mxCell>
        <mxCell id="rn6xQBVTXmwM3agb3QI7-47" value="eepEEID&amp;nbsp;&lt;span style=&quot;white-space: pre;&quot;&gt;&#x9;&lt;/span&gt;varchar" style="shape=partialRectangle;connectable=0;fillColor=none;top=0;left=0;bottom=0;right=0;align=left;spacingLeft=6;fontStyle=5;overflow=hidden;whiteSpace=wrap;html=1;" parent="rn6xQBVTXmwM3agb3QI7-45" vertex="1">
          <mxGeometry x="30" width="150" height="30" as="geometry">
            <mxRectangle width="150" height="30" as="alternateBounds" />
          </mxGeometry>
        </mxCell>
        <mxCell id="rn6xQBVTXmwM3agb3QI7-48" value="" style="shape=tableRow;horizontal=0;startSize=0;swimlaneHead=0;swimlaneBody=0;fillColor=none;collapsible=0;dropTarget=0;points=[[0,0.5],[1,0.5]];portConstraint=eastwest;top=0;left=0;right=0;bottom=0;" parent="rn6xQBVTXmwM3agb3QI7-44" vertex="1">
          <mxGeometry y="60" width="180" height="30" as="geometry" />
        </mxCell>
        <mxCell id="rn6xQBVTXmwM3agb3QI7-49" value="" style="shape=partialRectangle;connectable=0;fillColor=none;top=0;left=0;bottom=0;right=0;editable=1;overflow=hidden;whiteSpace=wrap;html=1;" parent="rn6xQBVTXmwM3agb3QI7-48" vertex="1">
          <mxGeometry width="30" height="30" as="geometry">
            <mxRectangle width="30" height="30" as="alternateBounds" />
          </mxGeometry>
        </mxCell>
        <mxCell id="rn6xQBVTXmwM3agb3QI7-50" value="eepDateOfBirth&amp;nbsp; &amp;nbsp;varchar" style="shape=partialRectangle;connectable=0;fillColor=none;top=0;left=0;bottom=0;right=0;align=left;spacingLeft=6;overflow=hidden;whiteSpace=wrap;html=1;" parent="rn6xQBVTXmwM3agb3QI7-48" vertex="1">
          <mxGeometry x="30" width="150" height="30" as="geometry">
            <mxRectangle width="150" height="30" as="alternateBounds" />
          </mxGeometry>
        </mxCell>
        <mxCell id="rn6xQBVTXmwM3agb3QI7-51" value="" style="shape=tableRow;horizontal=0;startSize=0;swimlaneHead=0;swimlaneBody=0;fillColor=none;collapsible=0;dropTarget=0;points=[[0,0.5],[1,0.5]];portConstraint=eastwest;top=0;left=0;right=0;bottom=0;" parent="rn6xQBVTXmwM3agb3QI7-44" vertex="1">
          <mxGeometry y="90" width="180" height="30" as="geometry" />
        </mxCell>
        <mxCell id="rn6xQBVTXmwM3agb3QI7-52" value="" style="shape=partialRectangle;connectable=0;fillColor=none;top=0;left=0;bottom=0;right=0;editable=1;overflow=hidden;whiteSpace=wrap;html=1;" parent="rn6xQBVTXmwM3agb3QI7-51" vertex="1">
          <mxGeometry width="30" height="30" as="geometry">
            <mxRectangle width="30" height="30" as="alternateBounds" />
          </mxGeometry>
        </mxCell>
        <mxCell id="rn6xQBVTXmwM3agb3QI7-53" value="eepFirstName&lt;span style=&quot;white-space: pre;&quot;&gt;&#x9;&lt;/span&gt;&amp;nbsp;varchar" style="shape=partialRectangle;connectable=0;fillColor=none;top=0;left=0;bottom=0;right=0;align=left;spacingLeft=6;overflow=hidden;whiteSpace=wrap;html=1;" parent="rn6xQBVTXmwM3agb3QI7-51" vertex="1">
          <mxGeometry x="30" width="150" height="30" as="geometry">
            <mxRectangle width="150" height="30" as="alternateBounds" />
          </mxGeometry>
        </mxCell>
        <mxCell id="rn6xQBVTXmwM3agb3QI7-54" value="" style="shape=tableRow;horizontal=0;startSize=0;swimlaneHead=0;swimlaneBody=0;fillColor=none;collapsible=0;dropTarget=0;points=[[0,0.5],[1,0.5]];portConstraint=eastwest;top=0;left=0;right=0;bottom=0;" parent="rn6xQBVTXmwM3agb3QI7-44" vertex="1">
          <mxGeometry y="120" width="180" height="30" as="geometry" />
        </mxCell>
        <mxCell id="rn6xQBVTXmwM3agb3QI7-55" value="" style="shape=partialRectangle;connectable=0;fillColor=none;top=0;left=0;bottom=0;right=0;editable=1;overflow=hidden;whiteSpace=wrap;html=1;" parent="rn6xQBVTXmwM3agb3QI7-54" vertex="1">
          <mxGeometry width="30" height="30" as="geometry">
            <mxRectangle width="30" height="30" as="alternateBounds" />
          </mxGeometry>
        </mxCell>
        <mxCell id="rn6xQBVTXmwM3agb3QI7-56" value="eepLastName&lt;span style=&quot;white-space: pre;&quot;&gt;&#x9;&lt;/span&gt;&amp;nbsp;varchar" style="shape=partialRectangle;connectable=0;fillColor=none;top=0;left=0;bottom=0;right=0;align=left;spacingLeft=6;overflow=hidden;whiteSpace=wrap;html=1;" parent="rn6xQBVTXmwM3agb3QI7-54" vertex="1">
          <mxGeometry x="30" width="150" height="30" as="geometry">
            <mxRectangle width="150" height="30" as="alternateBounds" />
          </mxGeometry>
        </mxCell>
        <mxCell id="rn6xQBVTXmwM3agb3QI7-74" value="" style="shape=tableRow;horizontal=0;startSize=0;swimlaneHead=0;swimlaneBody=0;fillColor=none;collapsible=0;dropTarget=0;points=[[0,0.5],[1,0.5]];portConstraint=eastwest;top=0;left=0;right=0;bottom=0;" parent="1" vertex="1">
          <mxGeometry x="50" y="310" width="180" height="30" as="geometry" />
        </mxCell>
        <mxCell id="rn6xQBVTXmwM3agb3QI7-75" value="" style="shape=partialRectangle;connectable=0;fillColor=none;top=0;left=0;bottom=0;right=0;editable=1;overflow=hidden;whiteSpace=wrap;html=1;" parent="rn6xQBVTXmwM3agb3QI7-74" vertex="1">
          <mxGeometry width="30" height="30" as="geometry">
            <mxRectangle width="30" height="30" as="alternateBounds" />
          </mxGeometry>
        </mxCell>
        <mxCell id="rn6xQBVTXmwM3agb3QI7-76" value="eepSSN&lt;span style=&quot;white-space: pre;&quot;&gt;&#x9;&lt;/span&gt;&lt;span style=&quot;white-space: pre;&quot;&gt;&#x9;&lt;/span&gt;&amp;nbsp;varchar" style="shape=partialRectangle;connectable=0;fillColor=none;top=0;left=1;bottom=0;right=1;align=left;spacingLeft=6;overflow=hidden;whiteSpace=wrap;html=1;" parent="rn6xQBVTXmwM3agb3QI7-74" vertex="1">
          <mxGeometry x="30" width="150" height="30" as="geometry">
            <mxRectangle width="150" height="30" as="alternateBounds" />
          </mxGeometry>
        </mxCell>
        <mxCell id="rn6xQBVTXmwM3agb3QI7-77" value="" style="shape=tableRow;horizontal=0;startSize=0;swimlaneHead=0;swimlaneBody=0;fillColor=none;collapsible=0;dropTarget=0;points=[[0,0.5],[1,0.5]];portConstraint=eastwest;top=0;left=0;right=0;bottom=0;" parent="1" vertex="1">
          <mxGeometry x="60" y="320" width="180" height="30" as="geometry" />
        </mxCell>
        <mxCell id="rn6xQBVTXmwM3agb3QI7-78" value="" style="shape=partialRectangle;connectable=0;fillColor=none;top=0;left=0;bottom=0;right=0;editable=1;overflow=hidden;whiteSpace=wrap;html=1;" parent="1" vertex="1">
          <mxGeometry x="50" y="340" width="30" height="30" as="geometry">
            <mxRectangle width="30" height="30" as="alternateBounds" />
          </mxGeometry>
        </mxCell>
        <mxCell id="rn6xQBVTXmwM3agb3QI7-110" value="" style="shape=partialRectangle;connectable=0;fillColor=none;top=0;left=0;bottom=0;right=0;editable=1;overflow=hidden;whiteSpace=wrap;html=1;" parent="1" vertex="1">
          <mxGeometry x="1090" y="585" width="30" height="30" as="geometry">
            <mxRectangle width="30" height="30" as="alternateBounds" />
          </mxGeometry>
        </mxCell>
        <mxCell id="rn6xQBVTXmwM3agb3QI7-124" value="" style="shape=tableRow;horizontal=0;startSize=0;swimlaneHead=0;swimlaneBody=0;fillColor=none;collapsible=0;dropTarget=0;points=[[0,0.5],[1,0.5]];portConstraint=eastwest;top=0;left=0;right=0;bottom=0;" parent="1" vertex="1">
          <mxGeometry x="1070" y="655" width="250" height="90" as="geometry" />
        </mxCell>
        <mxCell id="rn6xQBVTXmwM3agb3QI7-125" value="" style="shape=partialRectangle;connectable=0;fillColor=none;top=0;left=0;bottom=0;right=0;editable=1;overflow=hidden;whiteSpace=wrap;html=1;" parent="rn6xQBVTXmwM3agb3QI7-124" vertex="1">
          <mxGeometry width="30" height="90" as="geometry">
            <mxRectangle width="30" height="30" as="alternateBounds" />
          </mxGeometry>
        </mxCell>
        <mxCell id="rn6xQBVTXmwM3agb3QI7-127" value="" style="shape=tableRow;horizontal=0;startSize=0;swimlaneHead=0;swimlaneBody=0;fillColor=none;collapsible=0;dropTarget=0;points=[[0,0.5],[1,0.5]];portConstraint=eastwest;top=0;left=0;right=0;bottom=0;" parent="1" vertex="1">
          <mxGeometry x="1080" y="665" width="180" height="30" as="geometry" />
        </mxCell>
        <mxCell id="rn6xQBVTXmwM3agb3QI7-128" value="" style="shape=partialRectangle;connectable=0;fillColor=none;top=0;left=0;bottom=0;right=0;editable=1;overflow=hidden;whiteSpace=wrap;html=1;" parent="1" vertex="1">
          <mxGeometry x="1070" y="685" width="30" height="30" as="geometry">
            <mxRectangle width="30" height="30" as="alternateBounds" />
          </mxGeometry>
        </mxCell>
        <mxCell id="rn6xQBVTXmwM3agb3QI7-130" value="" style="edgeStyle=entityRelationEdgeStyle;fontSize=12;html=1;endArrow=ERmandOne;startArrow=ERmandOne;rounded=0;entryX=0;entryY=0.5;entryDx=0;entryDy=0;" parent="1" source="rn6xQBVTXmwM3agb3QI7-45" target="rn6xQBVTXmwM3agb3QI7-112" edge="1">
          <mxGeometry width="100" height="100" relative="1" as="geometry">
            <mxPoint x="220" y="210" as="sourcePoint" />
            <mxPoint x="320" y="110" as="targetPoint" />
          </mxGeometry>
        </mxCell>
        <mxCell id="rn6xQBVTXmwM3agb3QI7-150" value="" style="shape=partialRectangle;connectable=0;fillColor=none;top=0;left=0;bottom=0;right=0;editable=1;overflow=hidden;whiteSpace=wrap;html=1;" parent="1" vertex="1">
          <mxGeometry x="50" y="490" width="30" height="30" as="geometry">
            <mxRectangle width="30" height="30" as="alternateBounds" />
          </mxGeometry>
        </mxCell>
        <mxCell id="rn6xQBVTXmwM3agb3QI7-151" value="jobCode" style="shape=table;startSize=30;container=1;collapsible=1;childLayout=tableLayout;fixedRows=1;rowLines=0;fontStyle=1;align=center;resizeLast=1;html=1;movable=1;resizable=1;rotatable=1;deletable=1;editable=1;locked=0;connectable=1;" parent="1" vertex="1">
          <mxGeometry x="30" y="410" width="250" height="210" as="geometry">
            <mxRectangle x="30" y="410" width="90" height="30" as="alternateBounds" />
          </mxGeometry>
        </mxCell>
        <mxCell id="rn6xQBVTXmwM3agb3QI7-152" value="" style="shape=tableRow;horizontal=0;startSize=0;swimlaneHead=0;swimlaneBody=0;fillColor=none;collapsible=0;dropTarget=0;points=[[0,0.5],[1,0.5]];portConstraint=eastwest;top=0;left=0;right=0;bottom=1;" parent="rn6xQBVTXmwM3agb3QI7-151" vertex="1">
          <mxGeometry y="30" width="250" height="30" as="geometry" />
        </mxCell>
        <mxCell id="rn6xQBVTXmwM3agb3QI7-153" value="PK" style="shape=partialRectangle;connectable=0;fillColor=none;top=0;left=0;bottom=0;right=0;fontStyle=1;overflow=hidden;whiteSpace=wrap;html=1;" parent="rn6xQBVTXmwM3agb3QI7-152" vertex="1">
          <mxGeometry width="30" height="30" as="geometry">
            <mxRectangle width="30" height="30" as="alternateBounds" />
          </mxGeometry>
        </mxCell>
        <mxCell id="rn6xQBVTXmwM3agb3QI7-154" value="jobJobCode" style="shape=partialRectangle;connectable=0;fillColor=none;top=0;left=0;bottom=0;right=0;align=left;spacingLeft=6;fontStyle=5;overflow=hidden;whiteSpace=wrap;html=1;" parent="rn6xQBVTXmwM3agb3QI7-152" vertex="1">
          <mxGeometry x="30" width="220" height="30" as="geometry">
            <mxRectangle width="220" height="30" as="alternateBounds" />
          </mxGeometry>
        </mxCell>
        <mxCell id="rn6xQBVTXmwM3agb3QI7-155" value="" style="shape=tableRow;horizontal=0;startSize=0;swimlaneHead=0;swimlaneBody=0;fillColor=none;collapsible=0;dropTarget=0;points=[[0,0.5],[1,0.5]];portConstraint=eastwest;top=0;left=0;right=0;bottom=0;" parent="rn6xQBVTXmwM3agb3QI7-151" vertex="1">
          <mxGeometry y="60" width="250" height="30" as="geometry" />
        </mxCell>
        <mxCell id="rn6xQBVTXmwM3agb3QI7-156" value="" style="shape=partialRectangle;connectable=0;fillColor=none;top=0;left=0;bottom=0;right=0;editable=1;overflow=hidden;whiteSpace=wrap;html=1;" parent="rn6xQBVTXmwM3agb3QI7-155" vertex="1">
          <mxGeometry width="30" height="30" as="geometry">
            <mxRectangle width="30" height="30" as="alternateBounds" />
          </mxGeometry>
        </mxCell>
        <mxCell id="rn6xQBVTXmwM3agb3QI7-157" value="" style="shape=partialRectangle;connectable=0;fillColor=none;top=0;left=0;bottom=0;right=0;align=left;spacingLeft=6;overflow=hidden;whiteSpace=wrap;html=1;" parent="rn6xQBVTXmwM3agb3QI7-155" vertex="1">
          <mxGeometry x="30" width="220" height="30" as="geometry">
            <mxRectangle width="220" height="30" as="alternateBounds" />
          </mxGeometry>
        </mxCell>
        <mxCell id="rn6xQBVTXmwM3agb3QI7-158" value="" style="shape=tableRow;horizontal=0;startSize=0;swimlaneHead=0;swimlaneBody=0;fillColor=none;collapsible=0;dropTarget=0;points=[[0,0.5],[1,0.5]];portConstraint=eastwest;top=0;left=0;right=0;bottom=0;" parent="rn6xQBVTXmwM3agb3QI7-151" vertex="1">
          <mxGeometry y="90" width="250" height="30" as="geometry" />
        </mxCell>
        <mxCell id="rn6xQBVTXmwM3agb3QI7-159" value="" style="shape=partialRectangle;connectable=0;fillColor=none;top=0;left=0;bottom=0;right=0;editable=1;overflow=hidden;whiteSpace=wrap;html=1;" parent="rn6xQBVTXmwM3agb3QI7-158" vertex="1">
          <mxGeometry width="30" height="30" as="geometry">
            <mxRectangle width="30" height="30" as="alternateBounds" />
          </mxGeometry>
        </mxCell>
        <mxCell id="rn6xQBVTXmwM3agb3QI7-160" value="jobJobTitle&lt;span style=&quot;white-space: pre;&quot;&gt;&#x9;&lt;/span&gt;&lt;span style=&quot;white-space: pre;&quot;&gt;&#x9;&lt;/span&gt;&lt;span style=&quot;white-space: pre;&quot;&gt;&#x9;&lt;/span&gt;&lt;span style=&quot;white-space: pre;&quot;&gt;&#x9;&lt;/span&gt;varchar" style="shape=partialRectangle;connectable=0;fillColor=none;top=0;left=0;bottom=0;right=0;align=left;spacingLeft=6;overflow=hidden;whiteSpace=wrap;html=1;" parent="rn6xQBVTXmwM3agb3QI7-158" vertex="1">
          <mxGeometry x="30" width="220" height="30" as="geometry">
            <mxRectangle width="220" height="30" as="alternateBounds" />
          </mxGeometry>
        </mxCell>
        <mxCell id="rn6xQBVTXmwM3agb3QI7-161" value="" style="shape=tableRow;horizontal=0;startSize=0;swimlaneHead=0;swimlaneBody=0;fillColor=none;collapsible=0;dropTarget=0;points=[[0,0.5],[1,0.5]];portConstraint=eastwest;top=0;left=0;right=0;bottom=0;" parent="rn6xQBVTXmwM3agb3QI7-151" vertex="1">
          <mxGeometry y="120" width="250" height="30" as="geometry" />
        </mxCell>
        <mxCell id="rn6xQBVTXmwM3agb3QI7-162" value="" style="shape=partialRectangle;connectable=0;fillColor=none;top=0;left=0;bottom=0;right=0;editable=1;overflow=hidden;whiteSpace=wrap;html=1;" parent="rn6xQBVTXmwM3agb3QI7-161" vertex="1">
          <mxGeometry width="30" height="30" as="geometry">
            <mxRectangle width="30" height="30" as="alternateBounds" />
          </mxGeometry>
        </mxCell>
        <mxCell id="rn6xQBVTXmwM3agb3QI7-163" value="jobJobType&lt;span style=&quot;white-space: pre;&quot;&gt;&#x9;&lt;/span&gt;&lt;span style=&quot;white-space: pre;&quot;&gt;&#x9;&lt;/span&gt;&lt;span style=&quot;white-space: pre;&quot;&gt;&#x9;&lt;/span&gt;&lt;span style=&quot;white-space: pre;&quot;&gt;&#x9;&lt;/span&gt;varchar" style="shape=partialRectangle;connectable=0;fillColor=none;top=0;left=0;bottom=0;right=0;align=left;spacingLeft=6;overflow=hidden;whiteSpace=wrap;html=1;" parent="rn6xQBVTXmwM3agb3QI7-161" vertex="1">
          <mxGeometry x="30" width="220" height="30" as="geometry">
            <mxRectangle width="220" height="30" as="alternateBounds" />
          </mxGeometry>
        </mxCell>
        <mxCell id="rn6xQBVTXmwM3agb3QI7-164" value="" style="shape=tableRow;horizontal=0;startSize=0;swimlaneHead=0;swimlaneBody=0;fillColor=none;collapsible=0;dropTarget=0;points=[[0,0.5],[1,0.5]];portConstraint=eastwest;top=0;left=0;right=0;bottom=0;" parent="1" vertex="1">
          <mxGeometry x="30" y="560" width="250" height="30" as="geometry" />
        </mxCell>
        <mxCell id="rn6xQBVTXmwM3agb3QI7-165" value="" style="shape=partialRectangle;connectable=0;fillColor=none;top=0;left=0;bottom=0;right=0;editable=1;overflow=hidden;whiteSpace=wrap;html=1;" parent="rn6xQBVTXmwM3agb3QI7-164" vertex="1">
          <mxGeometry width="30" height="30" as="geometry">
            <mxRectangle width="30" height="30" as="alternateBounds" />
          </mxGeometry>
        </mxCell>
        <mxCell id="rn6xQBVTXmwM3agb3QI7-166" value="jobRateOfPay&lt;span style=&quot;white-space: pre;&quot;&gt;&#x9;&lt;/span&gt;&lt;span style=&quot;white-space: pre;&quot;&gt;&#x9;&lt;/span&gt;&lt;span style=&quot;white-space: pre;&quot;&gt;&#x9;&lt;/span&gt;&lt;span style=&quot;white-space: pre;&quot;&gt;&#x9;&lt;/span&gt;varchar" style="shape=partialRectangle;connectable=0;fillColor=none;top=0;left=1;bottom=0;right=1;align=left;spacingLeft=6;overflow=hidden;whiteSpace=wrap;html=1;" parent="rn6xQBVTXmwM3agb3QI7-164" vertex="1">
          <mxGeometry x="30" width="220" height="30" as="geometry">
            <mxRectangle width="150" height="30" as="alternateBounds" />
          </mxGeometry>
        </mxCell>
        <mxCell id="rn6xQBVTXmwM3agb3QI7-167" value="" style="shape=tableRow;horizontal=0;startSize=0;swimlaneHead=0;swimlaneBody=0;fillColor=none;collapsible=0;dropTarget=0;points=[[0,0.5],[1,0.5]];portConstraint=eastwest;top=0;left=0;right=0;bottom=0;" parent="1" vertex="1">
          <mxGeometry x="40" y="570" width="180" height="30" as="geometry" />
        </mxCell>
        <mxCell id="rn6xQBVTXmwM3agb3QI7-168" value="" style="shape=partialRectangle;connectable=0;fillColor=none;top=0;left=0;bottom=0;right=0;editable=1;overflow=hidden;whiteSpace=wrap;html=1;" parent="1" vertex="1">
          <mxGeometry x="30" y="590" width="30" height="30" as="geometry">
            <mxRectangle width="30" height="30" as="alternateBounds" />
          </mxGeometry>
        </mxCell>
        <mxCell id="rn6xQBVTXmwM3agb3QI7-188" value="" style="shape=tableRow;horizontal=0;startSize=0;swimlaneHead=0;swimlaneBody=0;fillColor=none;collapsible=0;dropTarget=0;points=[[0,0.5],[1,0.5]];portConstraint=eastwest;top=0;left=0;right=0;bottom=0;" parent="1" vertex="1">
          <mxGeometry x="360" y="560" width="250" height="30" as="geometry" />
        </mxCell>
        <mxCell id="rn6xQBVTXmwM3agb3QI7-189" value="" style="shape=partialRectangle;connectable=0;fillColor=none;top=0;left=0;bottom=0;right=0;editable=1;overflow=hidden;whiteSpace=wrap;html=1;" parent="rn6xQBVTXmwM3agb3QI7-188" vertex="1">
          <mxGeometry width="30" height="30" as="geometry">
            <mxRectangle width="30" height="30" as="alternateBounds" />
          </mxGeometry>
        </mxCell>
        <mxCell id="rn6xQBVTXmwM3agb3QI7-191" value="" style="shape=tableRow;horizontal=0;startSize=0;swimlaneHead=0;swimlaneBody=0;fillColor=none;collapsible=0;dropTarget=0;points=[[0,0.5],[1,0.5]];portConstraint=eastwest;top=0;left=0;right=0;bottom=0;" parent="1" vertex="1">
          <mxGeometry x="370" y="570" width="180" height="30" as="geometry" />
        </mxCell>
        <mxCell id="rn6xQBVTXmwM3agb3QI7-190" value="jobHourlyOrSalary&lt;span style=&quot;white-space: pre;&quot;&gt;&#x9;&lt;/span&gt;&lt;span style=&quot;white-space: pre;&quot;&gt;&#x9;&lt;/span&gt;&lt;span style=&quot;white-space: pre;&quot;&gt;&#x9;&lt;/span&gt;varchar" style="shape=partialRectangle;connectable=0;fillColor=none;top=0;left=1;bottom=0;right=1;align=left;spacingLeft=6;overflow=hidden;whiteSpace=wrap;html=1;" parent="1" vertex="1">
          <mxGeometry x="60" y="590" width="220" height="30" as="geometry">
            <mxRectangle width="150" height="30" as="alternateBounds" />
          </mxGeometry>
        </mxCell>
        <mxCell id="rn6xQBVTXmwM3agb3QI7-210" value="eepGender" style="shape=partialRectangle;connectable=0;fillColor=none;top=0;left=1;bottom=0;right=1;align=left;spacingLeft=6;overflow=hidden;whiteSpace=wrap;html=1;" parent="1" vertex="1">
          <mxGeometry x="80" y="340" width="150" height="30" as="geometry">
            <mxRectangle width="150" height="30" as="alternateBounds" />
          </mxGeometry>
        </mxCell>
        <mxCell id="rn6xQBVTXmwM3agb3QI7-211" value="eecDateOfOriginalHire&lt;br&gt;&lt;br&gt;eecDateOfTermination&lt;br&gt;&lt;br&gt;eecDateOfSenority&lt;br&gt;&lt;br&gt;eecPaySchedHours" style="shape=partialRectangle;connectable=0;fillColor=none;top=0;left=1;bottom=0;right=1;align=left;spacingLeft=6;overflow=hidden;whiteSpace=wrap;html=1;" parent="1" vertex="1">
          <mxGeometry x="1120" y="280" width="220" height="140" as="geometry">
            <mxRectangle width="150" height="30" as="alternateBounds" />
          </mxGeometry>
        </mxCell>
        <mxCell id="rn6xQBVTXmwM3agb3QI7-111" value="EmpComp" style="shape=table;startSize=30;container=1;collapsible=1;childLayout=tableLayout;fixedRows=1;rowLines=0;fontStyle=1;align=center;resizeLast=1;html=1;movable=1;resizable=1;rotatable=1;deletable=1;editable=1;locked=0;connectable=1;" parent="1" vertex="1">
          <mxGeometry x="1070" y="485" width="250" height="300" as="geometry">
            <mxRectangle x="320" y="140" width="100" height="30" as="alternateBounds" />
          </mxGeometry>
        </mxCell>
        <mxCell id="rn6xQBVTXmwM3agb3QI7-112" value="" style="shape=tableRow;horizontal=0;startSize=0;swimlaneHead=0;swimlaneBody=0;fillColor=none;collapsible=0;dropTarget=0;points=[[0,0.5],[1,0.5]];portConstraint=eastwest;top=0;left=0;right=0;bottom=0;" parent="rn6xQBVTXmwM3agb3QI7-111" vertex="1">
          <mxGeometry y="30" width="250" height="40" as="geometry" />
        </mxCell>
        <mxCell id="rn6xQBVTXmwM3agb3QI7-113" value="PK" style="shape=partialRectangle;connectable=0;fillColor=none;top=0;left=0;bottom=0;right=0;fontStyle=1;overflow=hidden;whiteSpace=wrap;html=1;" parent="rn6xQBVTXmwM3agb3QI7-112" vertex="1">
          <mxGeometry width="30" height="40" as="geometry">
            <mxRectangle width="30" height="40" as="alternateBounds" />
          </mxGeometry>
        </mxCell>
        <mxCell id="rn6xQBVTXmwM3agb3QI7-114" value="eecEEID&amp;nbsp;&amp;nbsp;&lt;span style=&quot;white-space: pre;&quot;&gt;&#x9;&lt;/span&gt;varchar" style="shape=partialRectangle;connectable=0;fillColor=none;top=0;left=0;bottom=0;right=0;align=left;spacingLeft=6;fontStyle=5;overflow=hidden;whiteSpace=wrap;html=1;" parent="rn6xQBVTXmwM3agb3QI7-112" vertex="1">
          <mxGeometry x="30" width="220" height="40" as="geometry">
            <mxRectangle width="220" height="40" as="alternateBounds" />
          </mxGeometry>
        </mxCell>
        <mxCell id="rn6xQBVTXmwM3agb3QI7-115" value="" style="shape=tableRow;horizontal=0;startSize=0;swimlaneHead=0;swimlaneBody=0;fillColor=none;collapsible=0;dropTarget=0;points=[[0,0.5],[1,0.5]];portConstraint=eastwest;top=0;left=0;right=0;bottom=0;" parent="rn6xQBVTXmwM3agb3QI7-111" vertex="1">
          <mxGeometry y="70" width="250" height="30" as="geometry" />
        </mxCell>
        <mxCell id="rn6xQBVTXmwM3agb3QI7-116" value="FK" style="shape=partialRectangle;connectable=0;fillColor=none;top=0;left=0;bottom=0;right=0;editable=1;overflow=hidden;whiteSpace=wrap;html=1;" parent="rn6xQBVTXmwM3agb3QI7-115" vertex="1">
          <mxGeometry width="30" height="30" as="geometry">
            <mxRectangle width="30" height="30" as="alternateBounds" />
          </mxGeometry>
        </mxCell>
        <mxCell id="rn6xQBVTXmwM3agb3QI7-117" value="eecJobCode&#x9;&lt;span style=&quot;border-color: var(--border-color);&quot;&gt;&lt;span style=&quot;white-space: pre;&quot;&gt;&amp;nbsp;&amp;nbsp;&amp;nbsp;&lt;span style=&quot;white-space: pre;&quot;&gt;&#x9;&lt;/span&gt;&amp;nbsp;&lt;/span&gt;&lt;span style=&quot;border-color: var(--border-color);&quot;&gt;&lt;span style=&quot;white-space: pre;&quot;&gt;&amp;nbsp;&amp;nbsp;&amp;nbsp;&amp;nbsp;&lt;/span&gt;&lt;/span&gt;&lt;span style=&quot;border-color: var(--border-color);&quot;&gt;&lt;span style=&quot;white-space: pre;&quot;&gt;&amp;nbsp;&amp;nbsp;&amp;nbsp;&amp;nbsp;&lt;/span&gt;&lt;/span&gt;&lt;/span&gt;varchar" style="shape=partialRectangle;connectable=0;fillColor=none;top=0;left=0;bottom=0;right=0;align=left;spacingLeft=6;overflow=hidden;whiteSpace=wrap;html=1;" parent="rn6xQBVTXmwM3agb3QI7-115" vertex="1">
          <mxGeometry x="30" width="220" height="30" as="geometry">
            <mxRectangle width="220" height="30" as="alternateBounds" />
          </mxGeometry>
        </mxCell>
        <mxCell id="rn6xQBVTXmwM3agb3QI7-118" value="" style="shape=tableRow;horizontal=0;startSize=0;swimlaneHead=0;swimlaneBody=0;fillColor=none;collapsible=0;dropTarget=0;points=[[0,0.5],[1,0.5]];portConstraint=eastwest;top=0;left=0;right=0;bottom=0;" parent="rn6xQBVTXmwM3agb3QI7-111" vertex="1">
          <mxGeometry y="100" width="250" height="30" as="geometry" />
        </mxCell>
        <mxCell id="rn6xQBVTXmwM3agb3QI7-119" value="FK" style="shape=partialRectangle;connectable=0;fillColor=none;top=0;left=0;bottom=0;right=0;editable=1;overflow=hidden;whiteSpace=wrap;html=1;" parent="rn6xQBVTXmwM3agb3QI7-118" vertex="1">
          <mxGeometry width="30" height="30" as="geometry">
            <mxRectangle width="30" height="30" as="alternateBounds" />
          </mxGeometry>
        </mxCell>
        <mxCell id="rn6xQBVTXmwM3agb3QI7-120" value="eecWorkLocation&amp;nbsp;&lt;span style=&quot;white-space: pre;&quot;&gt;&#x9;&lt;/span&gt;&lt;span style=&quot;white-space: pre;&quot;&gt;&#x9;&lt;/span&gt;" style="shape=partialRectangle;connectable=0;fillColor=none;top=0;left=0;bottom=0;right=0;align=left;spacingLeft=6;overflow=hidden;whiteSpace=wrap;html=1;" parent="rn6xQBVTXmwM3agb3QI7-118" vertex="1">
          <mxGeometry x="30" width="220" height="30" as="geometry">
            <mxRectangle width="220" height="30" as="alternateBounds" />
          </mxGeometry>
        </mxCell>
        <mxCell id="rn6xQBVTXmwM3agb3QI7-121" value="" style="shape=tableRow;horizontal=0;startSize=0;swimlaneHead=0;swimlaneBody=0;fillColor=none;collapsible=0;dropTarget=0;points=[[0,0.5],[1,0.5]];portConstraint=eastwest;top=0;left=0;right=0;bottom=0;" parent="rn6xQBVTXmwM3agb3QI7-111" vertex="1">
          <mxGeometry y="130" width="250" height="30" as="geometry" />
        </mxCell>
        <mxCell id="rn6xQBVTXmwM3agb3QI7-122" value="FK" style="shape=partialRectangle;connectable=0;fillColor=none;top=0;left=0;bottom=1;right=0;editable=1;overflow=hidden;whiteSpace=wrap;html=1;" parent="rn6xQBVTXmwM3agb3QI7-121" vertex="1">
          <mxGeometry width="30" height="30" as="geometry">
            <mxRectangle width="30" height="30" as="alternateBounds" />
          </mxGeometry>
        </mxCell>
        <mxCell id="rn6xQBVTXmwM3agb3QI7-123" value="eecPayGroup" style="shape=partialRectangle;connectable=0;fillColor=none;top=0;left=0;bottom=1;right=0;align=left;spacingLeft=6;overflow=hidden;whiteSpace=wrap;html=1;" parent="rn6xQBVTXmwM3agb3QI7-121" vertex="1">
          <mxGeometry x="30" width="220" height="30" as="geometry">
            <mxRectangle width="220" height="30" as="alternateBounds" />
          </mxGeometry>
        </mxCell>
        <mxCell id="rn6xQBVTXmwM3agb3QI7-212" value="" style="edgeStyle=entityRelationEdgeStyle;fontSize=12;html=1;endArrow=ERmandOne;startArrow=ERmandOne;rounded=0;exitX=1;exitY=0.5;exitDx=0;exitDy=0;entryX=0;entryY=0.5;entryDx=0;entryDy=0;" parent="1" source="rn6xQBVTXmwM3agb3QI7-152" target="rn6xQBVTXmwM3agb3QI7-115" edge="1">
          <mxGeometry width="100" height="100" relative="1" as="geometry">
            <mxPoint x="420" y="430" as="sourcePoint" />
            <mxPoint x="520" y="330" as="targetPoint" />
            <Array as="points">
              <mxPoint x="290" y="500" />
            </Array>
          </mxGeometry>
        </mxCell>
        <mxCell id="rn6xQBVTXmwM3agb3QI7-233" value="" style="shape=partialRectangle;connectable=0;fillColor=none;top=0;left=0;bottom=0;right=0;editable=1;overflow=hidden;whiteSpace=wrap;html=1;" parent="1" vertex="1">
          <mxGeometry x="740" y="240" width="30" height="30" as="geometry">
            <mxRectangle width="30" height="30" as="alternateBounds" />
          </mxGeometry>
        </mxCell>
        <mxCell id="rn6xQBVTXmwM3agb3QI7-276" value="" style="shape=partialRectangle;connectable=0;fillColor=none;top=0;left=0;bottom=0;right=0;editable=1;overflow=hidden;whiteSpace=wrap;html=1;" parent="1" vertex="1">
          <mxGeometry x="350" y="540" width="30" height="30" as="geometry">
            <mxRectangle width="30" height="30" as="alternateBounds" />
          </mxGeometry>
        </mxCell>
        <mxCell id="rn6xQBVTXmwM3agb3QI7-277" value="" style="shape=tableRow;horizontal=0;startSize=0;swimlaneHead=0;swimlaneBody=0;fillColor=none;collapsible=0;dropTarget=0;points=[[0,0.5],[1,0.5]];portConstraint=eastwest;top=0;left=0;right=0;bottom=0;" parent="1" vertex="1">
          <mxGeometry x="330" y="610" width="250" height="90" as="geometry" />
        </mxCell>
        <mxCell id="rn6xQBVTXmwM3agb3QI7-278" value="" style="shape=partialRectangle;connectable=0;fillColor=none;top=0;left=0;bottom=0;right=0;editable=1;overflow=hidden;whiteSpace=wrap;html=1;" parent="rn6xQBVTXmwM3agb3QI7-277" vertex="1">
          <mxGeometry width="30" height="90" as="geometry">
            <mxRectangle width="30" height="30" as="alternateBounds" />
          </mxGeometry>
        </mxCell>
        <mxCell id="rn6xQBVTXmwM3agb3QI7-279" value="" style="shape=tableRow;horizontal=0;startSize=0;swimlaneHead=0;swimlaneBody=0;fillColor=none;collapsible=0;dropTarget=0;points=[[0,0.5],[1,0.5]];portConstraint=eastwest;top=0;left=0;right=0;bottom=0;" parent="1" vertex="1">
          <mxGeometry x="340" y="620" width="180" height="30" as="geometry" />
        </mxCell>
        <mxCell id="rn6xQBVTXmwM3agb3QI7-280" value="" style="shape=partialRectangle;connectable=0;fillColor=none;top=0;left=0;bottom=0;right=0;editable=1;overflow=hidden;whiteSpace=wrap;html=1;" parent="1" vertex="1">
          <mxGeometry x="330" y="640" width="30" height="30" as="geometry">
            <mxRectangle width="30" height="30" as="alternateBounds" />
          </mxGeometry>
        </mxCell>
        <mxCell id="rn6xQBVTXmwM3agb3QI7-282" value="PayGroup" style="shape=table;startSize=30;container=1;collapsible=1;childLayout=tableLayout;fixedRows=1;rowLines=0;fontStyle=1;align=center;resizeLast=1;html=1;movable=1;resizable=1;rotatable=1;deletable=1;editable=1;locked=0;connectable=1;" parent="1" vertex="1">
          <mxGeometry x="720" y="370" width="250" height="150" as="geometry" />
        </mxCell>
        <mxCell id="rn6xQBVTXmwM3agb3QI7-283" value="" style="shape=tableRow;horizontal=0;startSize=0;swimlaneHead=0;swimlaneBody=0;fillColor=none;collapsible=0;dropTarget=0;points=[[0,0.5],[1,0.5]];portConstraint=eastwest;top=0;left=0;right=0;bottom=1;" parent="rn6xQBVTXmwM3agb3QI7-282" vertex="1">
          <mxGeometry y="30" width="250" height="30" as="geometry" />
        </mxCell>
        <mxCell id="rn6xQBVTXmwM3agb3QI7-284" value="PK" style="shape=partialRectangle;connectable=0;fillColor=none;top=0;left=0;bottom=0;right=0;fontStyle=1;overflow=hidden;whiteSpace=wrap;html=1;" parent="rn6xQBVTXmwM3agb3QI7-283" vertex="1">
          <mxGeometry width="30" height="30" as="geometry">
            <mxRectangle width="30" height="30" as="alternateBounds" />
          </mxGeometry>
        </mxCell>
        <mxCell id="rn6xQBVTXmwM3agb3QI7-285" value="payPayGroup" style="shape=partialRectangle;connectable=0;fillColor=none;top=0;left=0;bottom=0;right=0;align=left;spacingLeft=6;fontStyle=5;overflow=hidden;whiteSpace=wrap;html=1;" parent="rn6xQBVTXmwM3agb3QI7-283" vertex="1">
          <mxGeometry x="30" width="220" height="30" as="geometry">
            <mxRectangle width="220" height="30" as="alternateBounds" />
          </mxGeometry>
        </mxCell>
        <mxCell id="rn6xQBVTXmwM3agb3QI7-286" value="" style="shape=tableRow;horizontal=0;startSize=0;swimlaneHead=0;swimlaneBody=0;fillColor=none;collapsible=0;dropTarget=0;points=[[0,0.5],[1,0.5]];portConstraint=eastwest;top=0;left=0;right=0;bottom=0;" parent="rn6xQBVTXmwM3agb3QI7-282" vertex="1">
          <mxGeometry y="60" width="250" height="30" as="geometry" />
        </mxCell>
        <mxCell id="rn6xQBVTXmwM3agb3QI7-287" value="" style="shape=partialRectangle;connectable=0;fillColor=none;top=0;left=0;bottom=0;right=0;editable=1;overflow=hidden;whiteSpace=wrap;html=1;" parent="rn6xQBVTXmwM3agb3QI7-286" vertex="1">
          <mxGeometry width="30" height="30" as="geometry">
            <mxRectangle width="30" height="30" as="alternateBounds" />
          </mxGeometry>
        </mxCell>
        <mxCell id="rn6xQBVTXmwM3agb3QI7-288" value="payPayFrequency" style="shape=partialRectangle;connectable=0;fillColor=none;top=0;left=0;bottom=0;right=0;align=left;spacingLeft=6;overflow=hidden;whiteSpace=wrap;html=1;" parent="rn6xQBVTXmwM3agb3QI7-286" vertex="1">
          <mxGeometry x="30" width="220" height="30" as="geometry">
            <mxRectangle width="220" height="30" as="alternateBounds" />
          </mxGeometry>
        </mxCell>
        <mxCell id="rn6xQBVTXmwM3agb3QI7-289" value="" style="shape=tableRow;horizontal=0;startSize=0;swimlaneHead=0;swimlaneBody=0;fillColor=none;collapsible=0;dropTarget=0;points=[[0,0.5],[1,0.5]];portConstraint=eastwest;top=0;left=0;right=0;bottom=0;" parent="rn6xQBVTXmwM3agb3QI7-282" vertex="1">
          <mxGeometry y="90" width="250" height="30" as="geometry" />
        </mxCell>
        <mxCell id="rn6xQBVTXmwM3agb3QI7-290" value="" style="shape=partialRectangle;connectable=0;fillColor=none;top=0;left=0;bottom=0;right=0;editable=1;overflow=hidden;whiteSpace=wrap;html=1;" parent="rn6xQBVTXmwM3agb3QI7-289" vertex="1">
          <mxGeometry width="30" height="30" as="geometry">
            <mxRectangle width="30" height="30" as="alternateBounds" />
          </mxGeometry>
        </mxCell>
        <mxCell id="rn6xQBVTXmwM3agb3QI7-291" value="dedCode" style="shape=partialRectangle;connectable=0;fillColor=none;top=0;left=0;bottom=0;right=0;align=left;spacingLeft=6;overflow=hidden;whiteSpace=wrap;html=1;" parent="rn6xQBVTXmwM3agb3QI7-289" vertex="1">
          <mxGeometry x="30" width="220" height="30" as="geometry">
            <mxRectangle width="220" height="30" as="alternateBounds" />
          </mxGeometry>
        </mxCell>
        <mxCell id="rn6xQBVTXmwM3agb3QI7-292" value="" style="shape=tableRow;horizontal=0;startSize=0;swimlaneHead=0;swimlaneBody=0;fillColor=none;collapsible=0;dropTarget=0;points=[[0,0.5],[1,0.5]];portConstraint=eastwest;top=0;left=0;right=0;bottom=0;" parent="rn6xQBVTXmwM3agb3QI7-282" vertex="1">
          <mxGeometry y="120" width="250" height="30" as="geometry" />
        </mxCell>
        <mxCell id="rn6xQBVTXmwM3agb3QI7-293" value="" style="shape=partialRectangle;connectable=0;fillColor=none;top=0;left=0;bottom=0;right=0;editable=1;overflow=hidden;whiteSpace=wrap;html=1;" parent="rn6xQBVTXmwM3agb3QI7-292" vertex="1">
          <mxGeometry width="30" height="30" as="geometry">
            <mxRectangle width="30" height="30" as="alternateBounds" />
          </mxGeometry>
        </mxCell>
        <mxCell id="rn6xQBVTXmwM3agb3QI7-294" value="earnCode" style="shape=partialRectangle;connectable=0;fillColor=none;top=0;left=0;bottom=0;right=0;align=left;spacingLeft=6;overflow=hidden;whiteSpace=wrap;html=1;" parent="rn6xQBVTXmwM3agb3QI7-292" vertex="1">
          <mxGeometry x="30" width="220" height="30" as="geometry">
            <mxRectangle width="220" height="30" as="alternateBounds" />
          </mxGeometry>
        </mxCell>
        <mxCell id="rn6xQBVTXmwM3agb3QI7-295" value="" style="edgeStyle=entityRelationEdgeStyle;fontSize=12;html=1;endArrow=ERmandOne;startArrow=ERmandOne;rounded=0;entryX=1;entryY=0.5;entryDx=0;entryDy=0;" parent="1" source="rn6xQBVTXmwM3agb3QI7-283" target="rn6xQBVTXmwM3agb3QI7-121" edge="1">
          <mxGeometry width="100" height="100" relative="1" as="geometry">
            <mxPoint x="410" y="440" as="sourcePoint" />
            <mxPoint x="510" y="340" as="targetPoint" />
          </mxGeometry>
        </mxCell>
        <mxCell id="rn6xQBVTXmwM3agb3QI7-296" value="" style="shape=partialRectangle;connectable=0;fillColor=none;top=0;left=0;bottom=0;right=0;editable=1;overflow=hidden;whiteSpace=wrap;html=1;" parent="1" vertex="1">
          <mxGeometry x="710" y="490" width="30" height="30" as="geometry">
            <mxRectangle width="30" height="30" as="alternateBounds" />
          </mxGeometry>
        </mxCell>
        <mxCell id="rn6xQBVTXmwM3agb3QI7-315" value="" style="shape=partialRectangle;connectable=0;fillColor=none;top=0;left=0;bottom=0;right=0;editable=1;overflow=hidden;whiteSpace=wrap;html=1;" parent="1" vertex="1">
          <mxGeometry x="680" y="240" width="30" height="30" as="geometry">
            <mxRectangle width="30" height="30" as="alternateBounds" />
          </mxGeometry>
        </mxCell>
        <mxCell id="rn6xQBVTXmwM3agb3QI7-318" value="" style="shape=tableRow;horizontal=0;startSize=0;swimlaneHead=0;swimlaneBody=0;fillColor=none;collapsible=0;dropTarget=0;points=[[0,0.5],[1,0.5]];portConstraint=eastwest;top=0;left=0;right=0;bottom=0;" parent="1" vertex="1">
          <mxGeometry x="670" y="320" width="180" height="30" as="geometry" />
        </mxCell>
        <mxCell id="rn6xQBVTXmwM3agb3QI7-319" value="" style="shape=partialRectangle;connectable=0;fillColor=none;top=0;left=0;bottom=0;right=0;editable=1;overflow=hidden;whiteSpace=wrap;html=1;" parent="1" vertex="1">
          <mxGeometry x="660" y="340" width="30" height="30" as="geometry">
            <mxRectangle width="30" height="30" as="alternateBounds" />
          </mxGeometry>
        </mxCell>
        <mxCell id="rn6xQBVTXmwM3agb3QI7-321" value="Location" style="shape=table;startSize=30;container=1;collapsible=1;childLayout=tableLayout;fixedRows=1;rowLines=0;fontStyle=1;align=center;resizeLast=1;html=1;movable=1;resizable=1;rotatable=1;deletable=1;editable=1;locked=0;connectable=1;" parent="1" vertex="1">
          <mxGeometry x="660" y="140" width="250" height="160" as="geometry" />
        </mxCell>
        <mxCell id="rn6xQBVTXmwM3agb3QI7-322" value="" style="shape=tableRow;horizontal=0;startSize=0;swimlaneHead=0;swimlaneBody=0;fillColor=none;collapsible=0;dropTarget=0;points=[[0,0.5],[1,0.5]];portConstraint=eastwest;top=0;left=0;right=0;bottom=0;" parent="rn6xQBVTXmwM3agb3QI7-321" vertex="1">
          <mxGeometry y="30" width="250" height="40" as="geometry" />
        </mxCell>
        <mxCell id="rn6xQBVTXmwM3agb3QI7-323" value="PK" style="shape=partialRectangle;connectable=0;fillColor=none;top=0;left=0;bottom=0;right=0;fontStyle=1;overflow=hidden;whiteSpace=wrap;html=1;" parent="rn6xQBVTXmwM3agb3QI7-322" vertex="1">
          <mxGeometry width="30" height="40" as="geometry">
            <mxRectangle width="30" height="40" as="alternateBounds" />
          </mxGeometry>
        </mxCell>
        <mxCell id="rn6xQBVTXmwM3agb3QI7-324" value="locWorkLocation" style="shape=partialRectangle;connectable=0;fillColor=none;top=0;left=0;bottom=0;right=0;align=left;spacingLeft=6;fontStyle=5;overflow=hidden;whiteSpace=wrap;html=1;" parent="rn6xQBVTXmwM3agb3QI7-322" vertex="1">
          <mxGeometry x="30" width="220" height="40" as="geometry">
            <mxRectangle width="220" height="40" as="alternateBounds" />
          </mxGeometry>
        </mxCell>
        <mxCell id="rn6xQBVTXmwM3agb3QI7-325" value="" style="shape=tableRow;horizontal=0;startSize=0;swimlaneHead=0;swimlaneBody=0;fillColor=none;collapsible=0;dropTarget=0;points=[[0,0.5],[1,0.5]];portConstraint=eastwest;top=0;left=0;right=0;bottom=0;" parent="rn6xQBVTXmwM3agb3QI7-321" vertex="1">
          <mxGeometry y="70" width="250" height="30" as="geometry" />
        </mxCell>
        <mxCell id="rn6xQBVTXmwM3agb3QI7-326" value="FK" style="shape=partialRectangle;connectable=0;fillColor=none;top=0;left=0;bottom=1;right=0;editable=1;overflow=hidden;whiteSpace=wrap;html=1;" parent="rn6xQBVTXmwM3agb3QI7-325" vertex="1">
          <mxGeometry width="30" height="30" as="geometry">
            <mxRectangle width="30" height="30" as="alternateBounds" />
          </mxGeometry>
        </mxCell>
        <mxCell id="rn6xQBVTXmwM3agb3QI7-327" value="locAddressState" style="shape=partialRectangle;connectable=0;fillColor=none;top=0;left=0;bottom=1;right=0;align=left;spacingLeft=6;overflow=hidden;whiteSpace=wrap;html=1;" parent="rn6xQBVTXmwM3agb3QI7-325" vertex="1">
          <mxGeometry x="30" width="220" height="30" as="geometry">
            <mxRectangle width="220" height="30" as="alternateBounds" />
          </mxGeometry>
        </mxCell>
        <mxCell id="rn6xQBVTXmwM3agb3QI7-328" value="" style="shape=tableRow;horizontal=0;startSize=0;swimlaneHead=0;swimlaneBody=0;fillColor=none;collapsible=0;dropTarget=0;points=[[0,0.5],[1,0.5]];portConstraint=eastwest;top=0;left=0;right=0;bottom=0;" parent="rn6xQBVTXmwM3agb3QI7-321" vertex="1">
          <mxGeometry y="100" width="250" height="30" as="geometry" />
        </mxCell>
        <mxCell id="rn6xQBVTXmwM3agb3QI7-329" value="" style="shape=partialRectangle;connectable=0;fillColor=none;top=0;left=0;bottom=0;right=0;editable=1;overflow=hidden;whiteSpace=wrap;html=1;" parent="rn6xQBVTXmwM3agb3QI7-328" vertex="1">
          <mxGeometry width="30" height="30" as="geometry">
            <mxRectangle width="30" height="30" as="alternateBounds" />
          </mxGeometry>
        </mxCell>
        <mxCell id="rn6xQBVTXmwM3agb3QI7-330" value="locName" style="shape=partialRectangle;connectable=0;fillColor=none;top=0;left=0;bottom=0;right=0;align=left;spacingLeft=6;overflow=hidden;whiteSpace=wrap;html=1;" parent="rn6xQBVTXmwM3agb3QI7-328" vertex="1">
          <mxGeometry x="30" width="220" height="30" as="geometry">
            <mxRectangle width="220" height="30" as="alternateBounds" />
          </mxGeometry>
        </mxCell>
        <mxCell id="rn6xQBVTXmwM3agb3QI7-331" value="" style="shape=tableRow;horizontal=0;startSize=0;swimlaneHead=0;swimlaneBody=0;fillColor=none;collapsible=0;dropTarget=0;points=[[0,0.5],[1,0.5]];portConstraint=eastwest;top=0;left=0;right=0;bottom=0;" parent="rn6xQBVTXmwM3agb3QI7-321" vertex="1">
          <mxGeometry y="130" width="250" height="30" as="geometry" />
        </mxCell>
        <mxCell id="rn6xQBVTXmwM3agb3QI7-332" value="" style="shape=partialRectangle;connectable=0;fillColor=none;top=0;left=0;bottom=1;right=0;editable=1;overflow=hidden;whiteSpace=wrap;html=1;" parent="rn6xQBVTXmwM3agb3QI7-331" vertex="1">
          <mxGeometry width="30" height="30" as="geometry">
            <mxRectangle width="30" height="30" as="alternateBounds" />
          </mxGeometry>
        </mxCell>
        <mxCell id="rn6xQBVTXmwM3agb3QI7-333" value="locAddressState" style="shape=partialRectangle;connectable=0;fillColor=none;top=0;left=0;bottom=1;right=0;align=left;spacingLeft=6;overflow=hidden;whiteSpace=wrap;html=1;" parent="rn6xQBVTXmwM3agb3QI7-331" vertex="1">
          <mxGeometry x="30" width="220" height="30" as="geometry">
            <mxRectangle width="220" height="30" as="alternateBounds" />
          </mxGeometry>
        </mxCell>
        <mxCell id="rn6xQBVTXmwM3agb3QI7-334" value="" style="edgeStyle=entityRelationEdgeStyle;fontSize=12;html=1;endArrow=ERmandOne;startArrow=ERmandOne;rounded=0;entryX=0;entryY=0.5;entryDx=0;entryDy=0;" parent="1" target="rn6xQBVTXmwM3agb3QI7-322" edge="1">
          <mxGeometry width="100" height="100" relative="1" as="geometry">
            <mxPoint x="570" y="260" as="sourcePoint" />
            <mxPoint x="670" y="160" as="targetPoint" />
          </mxGeometry>
        </mxCell>
        <mxCell id="rn6xQBVTXmwM3agb3QI7-370" value="" style="shape=partialRectangle;connectable=0;fillColor=none;top=0;left=0;bottom=0;right=0;editable=1;overflow=hidden;whiteSpace=wrap;html=1;" parent="1" vertex="1">
          <mxGeometry x="720" y="530" width="30" height="30" as="geometry">
            <mxRectangle width="30" height="30" as="alternateBounds" />
          </mxGeometry>
        </mxCell>
        <mxCell id="rn6xQBVTXmwM3agb3QI7-371" value="" style="shape=partialRectangle;connectable=0;fillColor=none;top=0;left=0;bottom=0;right=0;editable=1;overflow=hidden;whiteSpace=wrap;html=1;" parent="1" vertex="1">
          <mxGeometry x="660" y="530" width="30" height="30" as="geometry">
            <mxRectangle width="30" height="30" as="alternateBounds" />
          </mxGeometry>
        </mxCell>
        <mxCell id="rn6xQBVTXmwM3agb3QI7-372" value="" style="shape=tableRow;horizontal=0;startSize=0;swimlaneHead=0;swimlaneBody=0;fillColor=none;collapsible=0;dropTarget=0;points=[[0,0.5],[1,0.5]];portConstraint=eastwest;top=0;left=0;right=0;bottom=0;" parent="1" vertex="1">
          <mxGeometry x="650" y="610" width="180" height="30" as="geometry" />
        </mxCell>
        <mxCell id="rn6xQBVTXmwM3agb3QI7-373" value="EarnCode" style="shape=table;startSize=30;container=1;collapsible=1;childLayout=tableLayout;fixedRows=1;rowLines=0;fontStyle=1;align=center;resizeLast=1;html=1;movable=1;resizable=1;rotatable=1;deletable=1;editable=1;locked=0;connectable=1;" parent="1" vertex="1">
          <mxGeometry x="330" y="610" width="250" height="190" as="geometry" />
        </mxCell>
        <mxCell id="rn6xQBVTXmwM3agb3QI7-374" value="" style="shape=tableRow;horizontal=0;startSize=0;swimlaneHead=0;swimlaneBody=0;fillColor=none;collapsible=0;dropTarget=0;points=[[0,0.5],[1,0.5]];portConstraint=eastwest;top=0;left=0;right=0;bottom=0;" parent="rn6xQBVTXmwM3agb3QI7-373" vertex="1">
          <mxGeometry y="30" width="250" height="40" as="geometry" />
        </mxCell>
        <mxCell id="rn6xQBVTXmwM3agb3QI7-375" value="PK" style="shape=partialRectangle;connectable=0;fillColor=none;top=0;left=0;bottom=0;right=0;fontStyle=1;overflow=hidden;whiteSpace=wrap;html=1;" parent="rn6xQBVTXmwM3agb3QI7-374" vertex="1">
          <mxGeometry width="30" height="40" as="geometry">
            <mxRectangle width="30" height="40" as="alternateBounds" />
          </mxGeometry>
        </mxCell>
        <mxCell id="rn6xQBVTXmwM3agb3QI7-376" value="earEarnCode" style="shape=partialRectangle;connectable=0;fillColor=none;top=0;left=0;bottom=0;right=0;align=left;spacingLeft=6;fontStyle=5;overflow=hidden;whiteSpace=wrap;html=1;" parent="rn6xQBVTXmwM3agb3QI7-374" vertex="1">
          <mxGeometry x="30" width="220" height="40" as="geometry">
            <mxRectangle width="220" height="40" as="alternateBounds" />
          </mxGeometry>
        </mxCell>
        <mxCell id="rn6xQBVTXmwM3agb3QI7-377" value="" style="shape=tableRow;horizontal=0;startSize=0;swimlaneHead=0;swimlaneBody=0;fillColor=none;collapsible=0;dropTarget=0;points=[[0,0.5],[1,0.5]];portConstraint=eastwest;top=0;left=0;right=0;bottom=0;" parent="rn6xQBVTXmwM3agb3QI7-373" vertex="1">
          <mxGeometry y="70" width="250" height="20" as="geometry" />
        </mxCell>
        <mxCell id="rn6xQBVTXmwM3agb3QI7-378" value="" style="shape=partialRectangle;connectable=0;fillColor=none;top=0;left=0;bottom=1;right=0;editable=1;overflow=hidden;whiteSpace=wrap;html=1;" parent="rn6xQBVTXmwM3agb3QI7-377" vertex="1">
          <mxGeometry width="30" height="20" as="geometry">
            <mxRectangle width="30" height="20" as="alternateBounds" />
          </mxGeometry>
        </mxCell>
        <mxCell id="rn6xQBVTXmwM3agb3QI7-379" value="" style="shape=partialRectangle;connectable=0;fillColor=none;top=0;left=0;bottom=1;right=0;align=left;spacingLeft=6;overflow=hidden;whiteSpace=wrap;html=1;" parent="rn6xQBVTXmwM3agb3QI7-377" vertex="1">
          <mxGeometry x="30" width="220" height="20" as="geometry">
            <mxRectangle width="220" height="20" as="alternateBounds" />
          </mxGeometry>
        </mxCell>
        <mxCell id="rn6xQBVTXmwM3agb3QI7-380" value="" style="shape=tableRow;horizontal=0;startSize=0;swimlaneHead=0;swimlaneBody=0;fillColor=none;collapsible=0;dropTarget=0;points=[[0,0.5],[1,0.5]];portConstraint=eastwest;top=0;left=0;right=0;bottom=0;" parent="rn6xQBVTXmwM3agb3QI7-373" vertex="1">
          <mxGeometry y="90" width="250" height="30" as="geometry" />
        </mxCell>
        <mxCell id="rn6xQBVTXmwM3agb3QI7-381" value="" style="shape=partialRectangle;connectable=0;fillColor=none;top=0;left=0;bottom=0;right=0;editable=1;overflow=hidden;whiteSpace=wrap;html=1;" parent="rn6xQBVTXmwM3agb3QI7-380" vertex="1">
          <mxGeometry width="30" height="30" as="geometry">
            <mxRectangle width="30" height="30" as="alternateBounds" />
          </mxGeometry>
        </mxCell>
        <mxCell id="rn6xQBVTXmwM3agb3QI7-382" value="earnCode" style="shape=partialRectangle;connectable=0;fillColor=none;top=0;left=0;bottom=0;right=0;align=left;spacingLeft=6;overflow=hidden;whiteSpace=wrap;html=1;" parent="rn6xQBVTXmwM3agb3QI7-380" vertex="1">
          <mxGeometry x="30" width="220" height="30" as="geometry">
            <mxRectangle width="220" height="30" as="alternateBounds" />
          </mxGeometry>
        </mxCell>
        <mxCell id="rn6xQBVTXmwM3agb3QI7-383" value="" style="shape=tableRow;horizontal=0;startSize=0;swimlaneHead=0;swimlaneBody=0;fillColor=none;collapsible=0;dropTarget=0;points=[[0,0.5],[1,0.5]];portConstraint=eastwest;top=0;left=0;right=0;bottom=0;" parent="rn6xQBVTXmwM3agb3QI7-373" vertex="1">
          <mxGeometry y="120" width="250" height="30" as="geometry" />
        </mxCell>
        <mxCell id="rn6xQBVTXmwM3agb3QI7-384" value="" style="shape=partialRectangle;connectable=0;fillColor=none;top=0;left=0;bottom=1;right=0;editable=1;overflow=hidden;whiteSpace=wrap;html=1;" parent="rn6xQBVTXmwM3agb3QI7-383" vertex="1">
          <mxGeometry width="30" height="30" as="geometry">
            <mxRectangle width="30" height="30" as="alternateBounds" />
          </mxGeometry>
        </mxCell>
        <mxCell id="rn6xQBVTXmwM3agb3QI7-385" value="earnDesc" style="shape=partialRectangle;connectable=0;fillColor=none;top=0;left=0;bottom=1;right=0;align=left;spacingLeft=6;overflow=hidden;whiteSpace=wrap;html=1;" parent="rn6xQBVTXmwM3agb3QI7-383" vertex="1">
          <mxGeometry x="30" width="220" height="30" as="geometry">
            <mxRectangle width="220" height="30" as="alternateBounds" />
          </mxGeometry>
        </mxCell>
      </root>
    </mxGraphModel>
  </diagram>
</mxfile>
